<svg width="46" height="46" viewBox="0 0 46 46" fill="none" xmlns="http://www.w3.org/2000/svg">
<path d="M16.0733 15.5859C15.8723 15.5859 15.6704 15.5152 15.5085 15.3721C14.1524 14.1702 12.7767 12.8422 12.1455 10.986C11.4274 8.8743 11.7707 5.8852 13.8159 4.25734C15.1005 3.23428 16.8817 3.15335 18.7021 4.03415C19.1254 4.23945 19.3026 4.74885 19.0982 5.17221C18.8937 5.59643 18.3869 5.77531 17.9601 5.56832C17.2514 5.22417 15.9064 4.77014 14.8773 5.59046C13.4624 6.71659 13.2452 8.92882 13.7589 10.4383C14.2555 11.9 15.454 13.0475 16.6389 14.0978C16.9907 14.4104 17.0231 14.9488 16.7113 15.3006C16.5427 15.4888 16.3084 15.5859 16.0733 15.5859Z" fill="white"/>
<path d="M23.0005 25.6308C22.7594 25.6308 22.5286 25.5286 22.3676 25.3489C20.8198 23.6299 18.9688 22.2823 17.0095 20.8563C14.8484 19.2829 12.6141 17.6568 10.8525 15.4982C8.62405 12.7672 7.85313 9.22443 8.79186 6.02152C9.8277 2.4881 12.8406 0.0118063 16.1194 0.000732422C18.6885 0.0995456 21.141 1.12175 23.0005 2.83735C24.8601 1.1226 27.3083 0.0995456 29.845 0.0015842C31.9959 0.00754706 33.8717 0.892607 35.3053 2.56051C37.0661 4.60747 37.906 7.59657 37.4971 10.3591C36.9332 14.1745 34.146 16.8399 31.4959 18.9439C30.6756 19.5956 29.8203 20.2225 28.9932 20.829C27.1226 22.2022 25.1872 23.6213 23.6326 25.3489C23.4724 25.5286 23.2416 25.6308 23.0005 25.6308ZM16.0896 1.70356C13.1737 1.71463 11.1029 4.19774 10.4282 6.50111C9.64711 9.1648 10.2996 12.1258 12.1728 14.4215C13.7947 16.4088 15.8442 17.9004 18.0122 19.4789C19.7158 20.7191 21.4706 21.996 23.0005 23.5396C24.533 21.9901 26.2844 20.7047 27.9863 19.4567C28.8007 18.8596 29.6423 18.242 30.4371 17.6108C32.8282 15.7137 35.3351 13.3397 35.813 10.1103C36.1469 7.85723 35.4399 5.32983 34.0148 3.67215C33.2456 2.77772 31.9039 1.71122 29.8757 1.70441C27.528 1.79555 25.2391 2.8578 23.6292 4.61769C23.3063 4.97036 22.6939 4.97036 22.371 4.61769C20.7619 2.8578 18.473 1.79555 16.0896 1.70356Z" fill="white"/>
<path d="M9.37137 37.3682C8.9003 37.3682 8.51953 36.9866 8.51953 36.5164V30.8023C8.51953 30.3321 8.9003 29.9504 9.37137 29.9504C9.84244 29.9504 10.2232 30.3321 10.2232 30.8023V36.5164C10.2232 36.9866 9.84244 37.3682 9.37137 37.3682Z" fill="white"/>
<path d="M4.68631 41.2434C4.21524 41.2434 3.83447 40.8618 3.83447 40.3916C3.83447 39.9213 4.21524 39.5397 4.68631 39.5397C4.92057 39.5397 5.11223 39.3489 5.11223 39.1138C5.11223 38.6436 5.493 38.262 5.96407 38.262C6.43513 38.262 6.81591 38.6436 6.81591 39.1138C6.81591 40.2876 5.861 41.2434 4.68631 41.2434Z" fill="white"/>
<path d="M5.96365 39.9655C5.49259 39.9655 5.11182 39.5839 5.11182 39.1137V31.0877C5.11182 30.6175 5.49259 30.2358 5.96365 30.2358C6.43472 30.2358 6.81549 30.6175 6.81549 31.0877V39.1137C6.81549 39.5839 6.43472 39.9655 5.96365 39.9655Z" fill="white"/>
<path d="M4.68616 41.2433H2.13065C1.65958 41.2433 1.27881 40.8617 1.27881 40.3915C1.27881 39.9213 1.65958 39.5397 2.13065 39.5397H4.68616C5.15723 39.5397 5.538 39.9213 5.538 40.3915C5.538 40.8617 5.15723 41.2433 4.68616 41.2433Z" fill="white"/>
<path d="M2.13057 41.2434C0.955887 41.2434 0.000976562 40.2876 0.000976562 39.1138C0.000976562 38.6436 0.381748 38.262 0.852815 38.262C1.32388 38.262 1.70465 38.6436 1.70465 39.1138C1.70465 39.3489 1.89632 39.5397 2.13057 39.5397C2.60164 39.5397 2.98241 39.9213 2.98241 40.3916C2.98241 40.8618 2.60164 41.2434 2.13057 41.2434Z" fill="white"/>
<path d="M0.852815 39.9655C0.381748 39.9655 0.000976562 39.5839 0.000976562 39.1137V31.0877C0.000976562 30.6175 0.381748 30.2358 0.852815 30.2358C1.32388 30.2358 1.70465 30.6175 1.70465 31.0877V39.1137C1.70465 39.5839 1.32388 39.9655 0.852815 39.9655Z" fill="white"/>
<path d="M0.852815 31.9387C0.381748 31.9387 0.000976562 31.5571 0.000976562 31.0869C0.000976562 29.913 0.955887 28.9573 2.13057 28.9573C2.60164 28.9573 2.98241 29.3389 2.98241 29.8091C2.98241 30.2793 2.60164 30.661 2.13057 30.661C1.89632 30.661 1.70465 30.8518 1.70465 31.0869C1.70465 31.5571 1.32388 31.9387 0.852815 31.9387Z" fill="white"/>
<path d="M4.68616 30.661H2.13065C1.65958 30.661 1.27881 30.2793 1.27881 29.8091C1.27881 29.3389 1.65958 28.9573 2.13065 28.9573H4.68616C5.15723 28.9573 5.538 29.3389 5.538 29.8091C5.538 30.2793 5.15723 30.661 4.68616 30.661Z" fill="white"/>
<path d="M5.96407 31.9387C5.493 31.9387 5.11223 31.5571 5.11223 31.0869C5.11223 30.8518 4.92057 30.661 4.68631 30.661C4.21524 30.661 3.83447 30.2793 3.83447 29.8091C3.83447 29.3389 4.21524 28.9573 4.68631 28.9573C5.861 28.9573 6.81591 29.913 6.81591 31.0869C6.81591 31.5571 6.43513 31.9387 5.96407 31.9387Z" fill="white"/>
<path d="M18.4739 45.0954C18.3512 45.0954 18.2277 45.069 18.1093 45.0127L9.00568 40.6939C8.58061 40.492 8.39917 39.9843 8.60105 39.5593C8.80209 39.1342 9.30893 38.9511 9.7357 39.1547L18.8393 43.4735C19.2644 43.6745 19.4458 44.1831 19.2439 44.6081C19.0983 44.9156 18.7924 45.0954 18.4739 45.0954Z" fill="white"/>
<path d="M9.36857 31.6542C8.96395 31.6542 8.60533 31.3655 8.53122 30.9532C8.44774 30.4898 8.7561 30.0477 9.2195 29.9633L12.0238 29.459C13.569 29.1813 15.1849 29.2657 16.6952 29.7061C17.1467 29.8373 17.4057 30.31 17.2745 30.7624C17.1433 31.213 16.6739 31.4753 16.2182 31.3416C14.9617 30.9753 13.6175 30.9038 12.3253 31.1363L9.52105 31.6406C9.46909 31.65 9.41883 31.6542 9.36857 31.6542Z" fill="white"/>
<path d="M22.4944 34.1961C22.2269 34.1961 21.9628 34.07 21.7976 33.8349C21.5267 33.4499 21.6187 32.9183 22.0037 32.6474L27.1344 29.0365C27.5194 28.7656 28.0509 28.8585 28.321 29.2426C28.5918 29.6277 28.4999 30.1592 28.1148 30.4301L22.9842 34.041C22.8351 34.1458 22.6631 34.1961 22.4944 34.1961Z" fill="white"/>
<path d="M24.9861 45.6617C24.613 45.6617 24.2697 45.4147 24.1657 45.0373C24.0405 44.5842 24.3063 44.1148 24.7595 43.9896C28.4062 42.9819 31.9319 41.5346 35.2396 39.6878L35.3572 39.6231C35.7669 39.3948 36.2874 39.543 36.5148 39.9553C36.7431 40.3667 36.5941 40.8855 36.1818 41.1129L36.0668 41.1768C32.6432 43.0892 28.9905 44.5884 25.2135 45.6319C25.1377 45.6515 25.0619 45.6617 24.9861 45.6617Z" fill="white"/>
<path d="M31.1713 41.6488C29.7172 41.6488 28.3738 41.5168 27.2588 41.3813C26.792 41.3251 26.4597 40.9 26.516 40.4332C26.573 39.9664 26.9981 39.6368 27.4649 39.6904C29.9659 39.9945 31.7906 40.0278 33.57 39.8012C34.4347 39.6913 35.2984 39.5499 36.1639 39.4093C37.6043 39.1742 39.0934 38.9314 40.5866 38.8309C41.0705 38.7934 41.4623 39.1546 41.4938 39.624C41.5254 40.0933 41.1701 40.4997 40.7008 40.5303C39.2876 40.6257 37.8386 40.8617 36.4373 41.09C35.5523 41.234 34.6689 41.3779 33.7847 41.4912C32.892 41.6037 32.0129 41.6488 31.1713 41.6488Z" fill="white"/>
<path d="M41.7648 32.8085C41.419 32.8085 41.0936 32.5955 40.9658 32.2531C40.7784 31.7488 40.3635 31.3731 39.826 31.2215C39.2842 31.0707 38.7365 31.1755 38.3132 31.5086C37.9426 31.8008 37.4076 31.7352 37.1172 31.3663C36.8258 30.9966 36.8889 30.4608 37.2586 30.1703C38.1155 29.4957 39.217 29.2819 40.2877 29.5817C41.3551 29.8824 42.1856 30.6397 42.5638 31.6602C42.7274 32.1015 42.5025 32.5921 42.0612 32.7557C41.9641 32.7906 41.8636 32.8085 41.7648 32.8085Z" fill="white"/>
<path d="M36.0242 37.1741C35.7567 37.1741 35.4926 37.0481 35.3274 36.813C35.0565 36.4279 35.1485 35.8964 35.5335 35.6255C37.4357 34.2864 39.4034 32.9013 41.2016 31.3161C41.5552 31.006 42.0935 31.0392 42.4036 31.3919C42.7145 31.7454 42.6804 32.2829 42.3278 32.5947C40.4597 34.2404 38.4536 35.6528 36.5131 37.0183C36.3641 37.1239 36.1937 37.1741 36.0242 37.1741Z" fill="white"/>
<path d="M45.1486 34.3357C44.6775 34.3357 44.2968 33.9541 44.2968 33.4839C44.2968 32.7973 43.7541 32.4992 43.588 32.4242C43.4228 32.3501 42.8427 32.1405 42.3282 32.5946C41.9781 32.9055 41.4371 32.8731 41.1262 32.5187C40.8153 32.1661 40.8494 31.6277 41.202 31.3168C42.053 30.5663 43.2371 30.3968 44.2891 30.8721C45.3445 31.3483 46.0004 32.3492 46.0004 33.4839C46.0004 33.9541 45.6197 34.3357 45.1486 34.3357Z" fill="white"/>
<path d="M39.8943 38.6171C39.6268 38.6171 39.3627 38.491 39.1975 38.2559C38.9266 37.8709 39.0186 37.3394 39.4036 37.0685C41.2155 35.7933 42.9515 34.3784 44.5658 32.863C44.9091 32.5418 45.4483 32.558 45.7694 32.9004C46.0923 33.2429 46.0744 33.7821 45.7319 34.1049C44.0606 35.6749 42.2616 37.14 40.3841 38.4612C40.2342 38.566 40.063 38.6171 39.8943 38.6171Z" fill="white"/>
<path d="M22.4909 45.9999C20.9857 45.9999 19.4882 45.6677 18.1082 45.0126C17.6831 44.8108 17.5017 44.3031 17.7036 43.878C17.9046 43.4529 18.4115 43.2715 18.8382 43.4734C20.6859 44.3499 22.7874 44.5314 24.7585 43.9879C25.2083 43.8644 25.6811 44.1276 25.8063 44.5816C25.9315 45.0348 25.6657 45.5041 25.2125 45.6294C24.3207 45.8773 23.4049 45.9999 22.4909 45.9999Z" fill="white"/>
<path d="M30.7786 36.6996C30.5111 36.6996 30.247 36.5735 30.0818 36.3384C29.8109 35.9534 29.9029 35.4218 30.2879 35.151L31.3306 34.4175C33.2949 33.0384 35.3248 31.6116 37.2772 30.1558C37.6563 29.8747 38.1879 29.9539 38.469 30.3296C38.7501 30.7069 38.6717 31.2402 38.2952 31.5213C36.324 32.9916 34.283 34.4252 32.3102 35.8111L31.2675 36.5437C31.1185 36.6485 30.9481 36.6996 30.7786 36.6996Z" fill="white"/>
<path d="M25.8225 36.0216C25.555 36.0216 25.291 35.8955 25.1257 35.6604C24.8548 35.2754 24.9468 34.7438 25.3319 34.473L32.5861 29.367C32.9694 29.0979 33.5018 29.189 33.7727 29.5732C34.0436 29.9582 33.9516 30.4898 33.5666 30.7607L26.3123 35.8666C26.1624 35.9713 25.992 36.0216 25.8225 36.0216Z" fill="white"/>
<path d="M37.787 31.6908C37.5237 31.6908 37.2656 31.5698 37.0978 31.3415C36.2826 30.2248 34.6999 29.9633 33.5653 30.7606C33.1819 31.0306 32.6495 30.9386 32.3786 30.5544C32.1078 30.1694 32.1998 29.6379 32.5848 29.367C34.4699 28.0398 37.1115 28.4751 38.4735 30.3355C38.7504 30.7154 38.6686 31.2487 38.2878 31.5255C38.1379 31.6371 37.9616 31.6908 37.787 31.6908Z" fill="white"/>
<path d="M33.0753 30.9157C32.8717 30.9157 32.6673 30.8433 32.5046 30.6959C31.2762 29.5868 29.4712 29.4761 28.1151 30.4293C27.73 30.7002 27.1985 30.6065 26.9284 30.2223C26.6576 29.8373 26.7496 29.3066 27.1346 29.0357C29.1432 27.6216 31.8223 27.7843 33.646 29.4309C33.9953 29.7461 34.0226 30.2845 33.7074 30.6346C33.5396 30.8211 33.3079 30.9157 33.0753 30.9157Z" fill="white"/>
<path d="M11.0741 31.3476C10.6695 31.3476 10.3109 31.0588 10.2368 30.6465C10.1533 30.184 10.4617 29.741 10.9251 29.6576L12.0239 29.4599C12.4839 29.3764 12.9294 29.6848 13.0129 30.1482C13.0964 30.6108 12.788 31.0537 12.3246 31.1372L11.2258 31.3348C11.1747 31.3433 11.1244 31.3476 11.0741 31.3476Z" fill="white"/>
<path d="M40.6436 40.5312C40.2023 40.5312 39.8292 40.1913 39.7951 39.7441C39.6963 38.4459 38.6826 37.4186 37.3861 37.301L27.7723 36.4313C25.3548 36.2124 23.6153 35.0828 21.7737 33.8886C20.0112 32.7454 18.1653 31.9038 16.2205 31.3433C15.7682 31.2129 15.5067 30.741 15.637 30.2887C15.7665 29.8381 16.2401 29.574 16.6907 29.706C18.7973 30.3126 20.7957 31.2249 22.6349 32.4174C24.4322 33.5836 25.9281 34.5539 27.9248 34.7344L37.5386 35.6042C39.6674 35.7967 41.3302 37.4833 41.4937 39.6146C41.5295 40.084 41.1785 40.4929 40.7092 40.5286C40.6879 40.5303 40.6649 40.5312 40.6436 40.5312Z" fill="white"/>
</svg>
