<svg width="66" height="55" viewBox="0 0 66 55" fill="none" xmlns="http://www.w3.org/2000/svg">
<path d="M60.2973 5.7962C60.537 6.03651 60.6737 6.36885 60.6737 6.71012C60.6737 7.05022 60.537 7.38373 60.2973 7.62417C60.0562 7.86473 59.7248 8.00292 59.3858 8.00292C59.0453 8.00292 58.7141 7.8646 58.473 7.62417C58.2334 7.38373 58.0966 7.05009 58.0966 6.71012C58.0966 6.36885 58.2334 6.03651 58.473 5.7962C58.7142 5.55447 59.0455 5.41732 59.3858 5.41732C59.7249 5.41732 60.0562 5.55447 60.2973 5.7962ZM30.6889 36.2419C30.9288 36.4822 31.0654 36.8146 31.0653 37.1559C31.0653 37.496 30.9287 37.8295 30.6889 38.0699C30.4478 38.3105 30.1164 38.4487 29.7774 38.4487C29.4369 38.4487 29.1057 38.3103 28.8646 38.0699C28.625 37.8293 28.4882 37.4958 28.4882 37.1559C28.4882 36.8146 28.625 36.4822 28.8646 36.2419C29.1057 36.0002 29.4371 35.8631 29.7774 35.8631C30.1165 35.8631 30.448 36.0002 30.6889 36.2419ZM63.4198 10.0895C67.821 17.8509 66.493 27.6858 60.1894 34.0057L57.6894 36.5127C57.5851 36.6172 57.4671 36.6988 57.3417 36.76C57.105 37.3362 56.7542 37.876 56.2882 38.3433C55.3706 39.2634 54.1506 39.7701 52.8531 39.7701C52.7874 39.7701 52.7222 39.768 52.657 39.7654C52.7088 41.0769 52.2374 42.4055 51.2411 43.4046C50.3235 44.3247 49.1036 44.8315 47.806 44.8315C47.7404 44.8315 47.6751 44.8293 47.6099 44.8267C47.6617 46.1382 47.1903 47.4668 46.194 48.4659C45.2469 49.4158 44.0027 49.8906 42.7587 49.8906C42.6776 49.8906 42.5964 49.8883 42.5154 49.8843C42.5812 51.2118 42.1099 52.5615 41.101 53.5731C40.1835 54.4933 38.9635 55 37.666 55C36.3684 55 35.1484 54.4933 34.2309 53.573L31.7972 51.1328L29.9955 52.9397C29.0781 53.8599 27.8581 54.3666 26.5604 54.3666C25.263 54.3666 24.043 53.8599 23.1253 52.9397C22.1285 51.94 21.6571 50.6103 21.7094 49.2982C21.644 49.3007 21.5787 49.3028 21.5133 49.3028C20.2694 49.3028 19.0254 48.828 18.0782 47.8783C17.1605 46.9582 16.6552 45.7348 16.6552 44.4336C16.6552 44.3678 16.6574 44.3024 16.66 44.237C16.5954 44.2396 16.5307 44.2416 16.4661 44.2416C15.222 44.2418 13.9784 43.767 13.031 42.8171C12.1135 41.897 11.6082 40.6736 11.6082 39.3724C11.6082 39.3066 11.6103 39.2412 11.6129 39.1758C11.5483 39.1784 11.4836 39.1804 11.419 39.1804C10.175 39.1804 8.93128 38.7058 7.98395 37.7559C7.13278 36.9025 6.66549 35.8084 6.57926 34.69C6.48013 34.6337 6.38628 34.5644 6.30172 34.4798L5.81587 33.9926C2.06547 30.2315 0 25.2312 0 19.9124C0 14.5937 2.06534 9.59303 5.81587 5.83214C9.56641 2.07124 14.5528 0 19.8568 0C24.7526 0 29.3769 1.76592 33.0093 4.99513C35.9662 2.36946 39.5734 0.714717 43.5143 0.188471C47.7254 -0.373969 52.0794 0.448556 55.7749 2.50377C56.3975 2.85008 56.6223 3.63706 56.2769 4.26141C55.9316 4.8859 55.1468 5.11096 54.5242 4.76491C47.8243 1.03814 39.356 2.23438 33.9318 7.67393L25.0558 16.5746C23.9012 17.7323 23.9012 19.6161 25.0558 20.7738C26.2103 21.9317 28.0888 21.9317 29.2433 20.7738L33.1311 16.8752C33.3731 16.6328 33.7009 16.4965 34.0428 16.4965H39.1213C40.8091 16.4965 42.3958 15.8374 43.5893 14.6406L46.1298 12.0929C46.6335 11.5881 47.4496 11.5881 47.9531 12.0929C48.4564 12.5977 48.4564 13.4164 47.9531 13.9211L45.4126 16.4689C44.7099 17.1735 43.9095 17.7437 43.0433 18.1711L56.2892 31.4539C56.7877 31.9536 57.1535 32.5365 57.3897 33.1579L58.3672 32.1777C63.8519 26.6777 65.0079 18.1203 61.1786 11.3676C60.8266 10.747 61.043 9.95769 61.6619 9.60479C62.2805 9.2519 63.0679 9.46881 63.4198 10.0895ZM11.4192 36.5972C12.0283 36.5972 12.6006 36.3593 13.0312 35.9277L15.2527 33.6998C16.1417 32.8085 16.1417 31.3582 15.2527 30.4668C14.8222 30.0349 14.2496 29.7972 13.6408 29.7972C13.0318 29.7972 12.4592 30.0349 12.0286 30.4668L9.80707 32.6946C9.3764 33.1263 9.13934 33.7005 9.13934 34.3111C9.13934 34.9217 9.37653 35.4958 9.80707 35.9276C10.2378 36.3594 10.8102 36.5972 11.4192 36.5972ZM14.8545 40.989C15.743 41.8802 17.1895 41.8802 18.0786 40.9889L20.3002 38.761C21.1891 37.8697 21.1891 36.4194 20.3002 35.528C19.8696 35.0961 19.297 34.8584 18.6882 34.8584C18.0793 34.8584 17.5068 35.0962 17.0762 35.528C17.0762 35.5281 17.0762 35.5281 17.0762 35.5281L14.8545 37.756C14.4239 38.1878 14.1868 38.7619 14.1868 39.3725C14.1868 39.9831 14.4239 40.5573 14.8545 40.989ZM19.9016 46.0502C20.7905 46.9416 22.2367 46.9416 23.1256 46.0502L25.3473 43.8223C26.2362 42.931 26.2362 41.4807 25.3473 40.5892C24.9167 40.1573 24.3442 39.9196 23.7353 39.9196C23.1263 39.9196 22.5539 40.1574 22.1233 40.5892C22.1233 40.5893 22.1233 40.5893 22.1233 40.5893L19.9016 42.8172C19.4709 43.249 19.2339 43.8231 19.2339 44.4337C19.2339 45.0442 19.4709 45.6184 19.9016 46.0502ZM30.3945 48.8837C30.8251 48.452 31.0623 47.878 31.0622 47.2671C31.0622 46.6566 30.8251 46.0824 30.3945 45.6506C29.9639 45.2188 29.3913 44.981 28.7825 44.981C28.1735 44.981 27.6011 45.2189 27.1705 45.6506C27.1705 45.6508 27.1705 45.6508 27.1705 45.6508L24.9488 47.8787C24.0599 48.77 24.0599 50.2202 24.9488 51.1118C25.3794 51.5437 25.952 51.7814 26.5608 51.7814C27.1697 51.7814 27.7422 51.5435 28.1728 51.1118L30.3945 48.8837ZM54.4659 36.5151C55.3548 35.6239 55.3548 34.1735 54.4667 33.2817L40.2351 19.0105C39.8684 19.0562 39.4973 19.0819 39.1221 19.0819H34.5777L31.0674 22.6021C29.9874 23.6851 28.5688 24.2264 27.1503 24.2264C25.7318 24.2264 24.3132 23.6849 23.2332 22.6021C22.187 21.5528 21.6108 20.1579 21.6108 18.674C21.6108 17.1903 22.187 15.7954 23.2332 14.7461L31.1554 6.80177C28.0176 4.07398 24.0516 2.58534 19.8575 2.58534C15.2424 2.58534 10.9032 4.38771 7.63977 7.66023C4.37612 10.9328 2.5789 15.284 2.5789 19.9122C2.5789 24.3618 4.24102 28.5548 7.26916 31.7802C7.46665 31.4547 7.70422 31.1471 7.98447 30.8661L10.206 28.6383C12.1002 26.739 15.1825 26.7389 17.0766 28.6383C18.0729 29.6374 18.5444 30.966 18.4925 32.2776C18.5578 32.275 18.623 32.2728 18.6886 32.2728C19.986 32.2728 21.206 32.7795 22.1237 33.6996C23.12 34.6987 23.5914 36.0274 23.5396 37.3389C23.6048 37.3363 23.6701 37.3341 23.7357 37.3341C25.0331 37.3341 26.2531 37.8408 27.1708 38.761C28.1671 39.7601 28.6384 41.0887 28.5867 42.4002C28.6519 42.3976 28.7171 42.3954 28.7827 42.3954C30.0802 42.3954 31.3002 42.9022 32.2178 43.8223C33.1354 44.7424 33.6407 45.9658 33.6407 47.267C33.6407 47.8707 33.5306 48.4571 33.3224 49.0049L36.0547 51.7447C36.4853 52.1765 37.0578 52.4143 37.6667 52.4143C38.2755 52.4143 38.8481 52.1765 39.2787 51.7447C40.1676 50.8534 40.1676 49.4031 39.2787 48.5116L32.0984 41.3114C31.595 40.8065 31.595 39.9878 32.0984 39.483C32.602 38.9784 33.4181 38.9784 33.9216 39.483L35.4521 41.0178C35.5708 41.0781 35.6823 41.1572 35.7816 41.2566L41.1477 46.6377C42.0363 47.5291 43.4827 47.5291 44.3718 46.6377C45.2606 45.7464 45.2606 44.296 44.3717 43.4045L39.0055 38.0236C39.0052 38.0232 39.0048 38.0227 39.0044 38.0223L33.9582 32.9622C33.4548 32.4573 33.4548 31.6386 33.9582 31.1338C34.4618 30.6292 35.278 30.6292 35.7815 31.1338L46.1948 41.5761C46.6253 42.008 47.1978 42.2457 47.8068 42.2457C48.4156 42.2457 48.9882 42.008 49.4187 41.5761C50.3077 40.6848 50.3077 39.2346 49.4187 38.343L39.0054 27.9009C38.502 27.3961 38.502 26.5774 39.0054 26.0726C39.5091 25.5678 40.3252 25.5678 40.8287 26.0726L45.8754 31.1334C45.8756 31.1337 45.8757 31.1338 45.876 31.1341L51.242 36.5151C51.6725 36.947 52.245 37.1847 52.854 37.1847C53.4628 37.1847 54.0354 36.947 54.4659 36.5151Z" fill="white"/>
</svg>
