<svg width="42" height="60" viewBox="0 0 42 60" fill="none" xmlns="http://www.w3.org/2000/svg">
<path d="M0 58.9844C0 59.545 0.447 60 1 60H41C41.553 60 42 59.545 42 58.9844V51.8755C42 47.9554 38.859 44.7665 35 44.7665H28H27V40.0705C27.345 39.8674 27.678 39.647 28 39.4104V39.6886H32C32.403 39.6886 32.768 39.4419 32.923 39.0641L36.174 31.1406C37.386 28.1863 38 25.0665 38 21.8675V21.4084C38 16.9511 36.33 12.769 33.313 9.54558L34.965 3.3953C35.036 3.1282 34.998 2.84384 34.858 2.60722C34.718 2.37059 34.49 2.20099 34.224 2.13904L29.05 0.925436C23.784 -0.308479 18.216 -0.308479 12.95 0.925436L7.775 2.13802C7.509 2.20099 7.281 2.36957 7.141 2.6062C7.001 2.84283 6.964 3.1282 7.035 3.3953L8.723 9.68166C5.724 12.9823 4 17.3797 4 21.8675C4 25.0665 4.614 28.1863 5.826 31.1406L9.077 39.0641C9.232 39.4419 9.597 39.6886 10 39.6886H14V39.4114C14.322 39.647 14.655 39.8674 15 40.0715V44.7665H14H7C3.141 44.7665 0 47.9554 0 51.8755V58.9844ZM40 51.8755V57.9689H22V51.6338L25.231 55.5721C25.515 55.9184 25.989 56.0322 26.393 55.8555L27.878 55.2085C31.286 53.7258 33.564 50.4892 33.925 46.7976H35C37.757 46.7976 40 49.0755 40 51.8755ZM13.265 47.1988C13.289 47.2627 13.305 47.3308 13.332 47.3938C13.428 47.6172 13.541 47.8315 13.674 48.0325C13.703 48.0772 13.74 48.1158 13.771 48.1595C13.88 48.3128 13.996 48.4591 14.125 48.5952C14.184 48.6571 14.248 48.7109 14.31 48.7688C14.425 48.8755 14.542 48.977 14.668 49.0694C14.742 49.1243 14.818 49.174 14.897 49.2228C15.026 49.304 15.159 49.3772 15.297 49.4432C15.379 49.4828 15.461 49.5224 15.546 49.5569C15.699 49.6178 15.857 49.6646 16.019 49.7062C16.097 49.7265 16.171 49.7519 16.251 49.7671C16.494 49.8149 16.743 49.8443 17 49.8443H18.865L15.709 53.6903L14.908 53.3419C12.238 52.1801 10.425 49.6747 10.074 46.7976H13.127C13.162 46.9367 13.216 47.0667 13.265 47.1988ZM25.75 49.7671C25.829 49.7519 25.904 49.7255 25.982 49.7062C26.143 49.6646 26.302 49.6178 26.455 49.5569C26.54 49.5224 26.622 49.4828 26.704 49.4432C26.842 49.3761 26.975 49.304 27.104 49.2228C27.182 49.173 27.258 49.1233 27.333 49.0694C27.459 48.977 27.577 48.8755 27.691 48.7688C27.753 48.7109 27.818 48.6571 27.876 48.5952C28.005 48.4591 28.121 48.3118 28.23 48.1595C28.261 48.1158 28.298 48.0772 28.327 48.0325C28.459 47.8315 28.573 47.6182 28.669 47.3938C28.696 47.3308 28.712 47.2638 28.736 47.1988C28.785 47.0667 28.839 46.9357 28.874 46.7976H31.927C31.576 49.6747 29.763 52.1801 27.093 53.3419L26.292 53.6903L23.135 49.8443H25C25.257 49.8443 25.506 49.8149 25.75 49.7671ZM24.53 39.0234C24.475 39.0448 24.419 39.0651 24.363 39.0854C24.052 39.1981 23.737 39.2956 23.419 39.3759C23.368 39.389 23.318 39.4033 23.267 39.4155C22.913 39.4997 22.556 39.5647 22.197 39.6084C22.185 39.6104 22.173 39.6125 22.16 39.6145C21.39 39.7059 20.611 39.7059 19.841 39.6145C19.829 39.6135 19.817 39.6104 19.804 39.6084C19.445 39.5647 19.088 39.4987 18.734 39.4155C18.683 39.4033 18.633 39.389 18.582 39.3759C18.264 39.2946 17.949 39.1981 17.638 39.0854C17.582 39.0651 17.526 39.0448 17.471 39.0234C17.148 38.8995 16.83 38.7584 16.518 38.5989C13.251 36.9253 11 33.4947 11 29.533V24.4551H18.096C20.818 24.4551 23.185 22.6068 23.89 19.947L24.965 17.7057L26.296 20.7016C26.874 22.8749 28.786 24.3891 31 24.445V29.533C31 33.4947 28.749 36.9253 25.483 38.5979C25.171 38.7574 24.853 38.8985 24.53 39.0234ZM13.399 2.90478C18.37 1.73891 23.626 1.73891 28.6 2.90478L32.761 3.87972L30.3 13.0412C29.537 12.832 28.769 12.6491 27.998 12.4928C23.372 11.5523 18.626 11.5523 14 12.4928C13.229 12.6491 12.461 12.832 11.698 13.0412L10.795 9.6776L9.237 3.87871L13.399 2.90478ZM7.672 30.3596C6.563 27.6542 6 24.7964 6 21.8675C6 18.3181 7.206 14.8225 9.354 12.0317L10.035 14.5665C10.106 14.8306 10.279 15.054 10.514 15.1871C10.751 15.3191 11.03 15.3495 11.286 15.2713C17.641 13.3357 24.356 13.3357 30.712 15.2713C30.807 15.3008 30.903 15.315 31 15.315C31.024 15.315 31.048 15.3079 31.073 15.3059C31.098 15.3038 31.121 15.2998 31.146 15.2967C31.263 15.2795 31.379 15.248 31.486 15.1881C31.721 15.055 31.894 14.8316 31.965 14.5676L32.689 11.8722C34.835 14.5696 36 17.8956 36 21.4084V21.8675C36 24.7974 35.437 27.6542 34.328 30.3596L31.333 37.6575H29.919C31.828 35.4984 33 32.6558 33 29.533V24.4551H34V22.424H31.123C29.744 22.424 28.547 21.4744 28.212 20.1166C28.198 20.0577 28.179 20.0008 28.153 19.946L25.911 14.8986C25.752 14.5391 25.402 14.3066 25.015 14.3005C24.609 14.3015 24.271 14.5168 24.101 14.8712L22.048 19.1498C22.018 19.2138 21.994 19.2798 21.978 19.3478C21.531 21.1586 19.935 22.424 18.096 22.424H8V24.4551H9V29.533C9 32.6558 10.172 35.4984 12.081 37.6575H10.667L7.672 30.3596ZM17.733 41.2486C17.911 41.3003 18.089 41.3461 18.269 41.3887C18.444 41.4303 18.619 41.471 18.797 41.5045C18.997 41.5421 19.199 41.5705 19.401 41.5979C19.567 41.6203 19.731 41.6467 19.899 41.6629C20.179 41.6893 20.459 41.7005 20.74 41.7066C20.827 41.7086 20.912 41.7198 21 41.7198C21.088 41.7198 21.173 41.7086 21.26 41.7066C21.541 41.7005 21.821 41.6893 22.101 41.6629C22.269 41.6477 22.433 41.6213 22.599 41.5979C22.801 41.5705 23.002 41.5421 23.203 41.5045C23.381 41.471 23.556 41.4303 23.731 41.3887C23.911 41.3461 24.089 41.2993 24.267 41.2486C24.455 41.1947 24.641 41.1368 24.825 41.0739C24.883 41.0536 24.942 41.0404 24.999 41.019V45.782C24.999 46.3426 25.446 46.7976 25.999 46.7976H26.721C26.713 46.8118 26.706 46.8271 26.697 46.8423C26.62 46.9692 26.533 47.0881 26.431 47.1947C26.425 47.2008 26.421 47.2089 26.414 47.215C26.306 47.3257 26.182 47.4191 26.051 47.5014C26.013 47.5258 25.972 47.5461 25.932 47.5674C25.831 47.6223 25.724 47.668 25.614 47.7045C25.569 47.7198 25.525 47.735 25.479 47.7472C25.326 47.7858 25.167 47.8132 25 47.8132H17C16.833 47.8132 16.674 47.7858 16.519 47.7472C16.473 47.736 16.429 47.7198 16.384 47.7045C16.273 47.668 16.167 47.6223 16.066 47.5674C16.026 47.5461 15.985 47.5258 15.947 47.5014C15.816 47.4181 15.693 47.3247 15.584 47.215C15.578 47.2089 15.573 47.2008 15.567 47.1947C15.465 47.0881 15.378 46.9692 15.301 46.8423C15.292 46.8281 15.286 46.8129 15.277 46.7976H16C16.553 46.7976 17 46.3426 17 45.782V41.019C17.057 41.0404 17.117 41.0536 17.174 41.0739C17.359 41.1368 17.545 41.1947 17.733 41.2486ZM2 51.8755C2 49.0755 4.243 46.7976 7 46.7976H8.074C8.435 50.4892 10.713 53.7268 14.121 55.2085L15.606 55.8555C15.733 55.9113 15.867 55.9377 16 55.9377C16.29 55.9377 16.574 55.8098 16.769 55.5721L20 51.6338V57.9689H2V51.8755Z" fill="white"/>
<path d="M20 10.237H22V8.20583H24V6.17469H22V4.14355H20V6.17469H18V8.20583H20V10.237Z" fill="white"/>
</svg>
