<svg width="66" height="66" viewBox="0 0 66 66" fill="none" xmlns="http://www.w3.org/2000/svg">
<path d="M54.5958 66.0002C54.4128 66.0002 54.231 65.9561 54.0663 65.8691L46.2853 61.7252C45.7401 61.4345 45.5361 60.761 45.8277 60.2198C46.1206 59.6799 46.7965 59.4748 47.3444 59.7656L54.1343 63.3825L63.364 46.1412L60.5267 44.6643C59.9788 44.3801 59.7683 43.7078 60.056 43.164C60.3423 42.6202 61.0183 42.4087 61.5675 42.6968L65.4011 44.6928C65.6652 44.8304 65.8626 45.0666 65.9502 45.3482C66.0378 45.6312 66.0091 45.9374 65.8692 46.1983L55.5843 65.411C55.4444 65.6719 55.2064 65.8665 54.9214 65.9522C54.8142 65.9846 54.7056 66.0002 54.5958 66.0002ZM43.8533 50.2526C43.6755 50.2526 43.4951 50.2111 43.3264 50.1216C42.7812 49.8321 42.5759 49.1586 42.8675 48.6174L48.9775 37.2785C49.269 36.7386 49.945 36.5309 50.4929 36.8229L54.3265 38.8579C54.8717 39.1473 55.077 39.8209 54.7854 40.362C54.4951 40.9019 53.8192 41.1096 53.27 40.8176L50.4236 39.3069L44.8418 49.666C44.6404 50.0398 44.2534 50.2526 43.8533 50.2526Z" fill="white"/>
<path d="M60.2882 46.1851C60.1065 46.1851 59.9247 46.141 59.7613 46.0541L52.5125 42.2112C52.2496 42.0724 52.0535 41.8349 51.9672 41.552C51.8809 41.269 51.9123 40.9628 52.0548 40.7032L53.5728 37.9155C53.8631 37.3782 54.5391 37.1784 55.0804 37.4613L62.3292 41.2664C62.5933 41.404 62.7895 41.6415 62.8771 41.9231C62.9634 42.2061 62.9346 42.511 62.7947 42.7719L61.2767 45.5972C61.1368 45.8568 60.8975 46.0515 60.6138 46.1371C60.5079 46.1696 60.398 46.1851 60.2882 46.1851ZM54.5587 40.7772L59.828 43.57L60.2895 42.7096L55.015 39.9414L54.5587 40.7772Z" fill="white"/>
<path d="M57.782 50.7808C57.6054 50.7808 57.425 50.7392 57.2577 50.651L50.1226 46.8835C49.576 46.5954 49.3694 45.9218 49.6597 45.3806C49.95 44.8394 50.6273 44.6331 51.1738 44.9212L58.3089 48.6887C58.8554 48.9768 59.062 49.6504 58.7717 50.1916C58.5704 50.5679 58.1834 50.7808 57.782 50.7808Z" fill="white"/>
<path d="M55.3528 55.3008C55.1762 55.3008 54.9958 55.2593 54.8284 55.171L47.6934 51.4035C47.1468 51.1154 46.9402 50.4418 47.2305 49.9006C47.5208 49.3594 48.1981 49.1531 48.7446 49.4412L55.8797 53.2087C56.4262 53.4968 56.6328 54.1704 56.3425 54.7116C56.1412 55.088 55.7542 55.3008 55.3528 55.3008Z" fill="white"/>
<path d="M52.9246 59.8209C52.7481 59.8209 52.569 59.7794 52.4016 59.6925L46.0249 56.3402C45.4784 56.0521 45.2705 55.3798 45.5594 54.8374C45.8497 54.2962 46.5257 54.0924 47.0735 54.3753L53.4502 57.7276C53.9968 58.0157 54.2047 58.6879 53.9157 59.2304C53.7143 59.6068 53.326 59.8209 52.9246 59.8209Z" fill="white"/>
<path d="M22.4826 40.498C13.855 40.498 11.0294 28.1371 10.7418 21.5773C10.715 20.9647 11.1942 20.4456 11.812 20.419C12.4108 20.395 12.9521 20.8674 12.9789 21.4813C13.264 27.9878 16.0993 38.2749 22.4904 38.2749C22.5113 38.2749 22.5309 38.2749 22.5512 38.2749C29.0724 38.2074 31.8979 27.919 32.147 21.4495C32.1705 20.8362 32.7158 20.3781 33.3081 20.3814C33.9265 20.4047 34.4077 20.9206 34.3842 21.5338C34.0926 29.1111 30.7068 40.4137 22.5747 40.4967C22.544 40.4967 22.5126 40.498 22.4826 40.498Z" fill="white"/>
<path d="M1.11988 66C0.501426 66 0 65.5029 0 64.8891C0 57.7213 1.63177 51.1803 4.47691 46.943C6.10868 44.5135 8.53346 44.1423 10.6725 43.8153C12.4423 43.5441 13.9707 43.3104 15.0873 42.0723C15.981 41.1288 15.8947 39.151 15.7941 36.8616L16.9081 36.7111L18.0266 36.6631C18.1535 39.5572 18.2594 41.9698 16.7368 43.5752C15.1037 45.3856 12.9313 45.7179 11.0145 46.0112C9.0885 46.3071 7.42469 46.5615 6.34011 48.1759C3.73425 52.0564 2.23977 58.1483 2.23977 64.8891C2.23976 65.5029 1.73833 66 1.11988 66Z" fill="white"/>
<path d="M44.0441 66C43.4256 66 42.9249 65.5029 42.9249 64.889C42.9249 58.1846 41.416 52.0927 38.7853 48.1759C37.7 46.5601 36.0434 46.3057 34.1234 46.0111C32.2111 45.7178 30.0439 45.3856 28.3762 43.5596C26.8301 41.9295 26.9798 39.3274 27.138 36.5722C27.1733 35.9596 27.6983 35.4872 28.32 35.5262C28.9371 35.5612 29.4091 36.0868 29.3738 36.6994C29.2431 38.9641 29.1202 41.1028 30.0204 42.0515C31.1697 43.3091 32.6969 43.5427 34.4653 43.8153C36.5991 44.1423 39.0167 44.5135 40.6485 46.943C43.5185 51.2153 45.1633 57.7576 45.1633 64.889C45.1633 65.5029 44.6625 66 44.0441 66Z" fill="white"/>
<path d="M44.0441 66.0002H1.11988C0.501426 66.0002 0 65.5031 0 64.8892C0 64.2754 0.501426 63.7783 1.11988 63.7783H44.0441C44.6625 63.7783 45.1633 64.2754 45.1633 64.8892C45.1633 65.5031 44.6625 66.0002 44.0441 66.0002Z" fill="white"/>
<path d="M33.2277 23.1676C30.1564 23.1676 28.184 21.7043 26.0959 20.1547C25.737 19.8887 25.3689 19.6155 24.9852 19.343C19.3884 15.4184 14.5447 20.0613 12.7214 22.239C12.3265 22.7114 11.6198 22.7757 11.1452 22.3837C10.6693 21.9918 10.6039 21.291 10.9994 20.8192C15.6228 15.2931 21.3366 14.0648 26.2835 17.5319C26.6856 17.818 27.0654 18.0997 27.4361 18.3748C29.3719 19.8108 30.901 20.9444 33.2277 20.9444C33.8462 20.9444 34.3476 21.4422 34.3476 22.056C34.3476 22.6699 33.8462 23.1676 33.2277 23.1676Z" fill="white"/>
<path d="M11.8618 22.6411C11.4394 22.6411 11.0354 22.4029 10.8458 21.9974C8.54069 17.0689 8.43347 12.5467 10.5451 9.26328C12.6835 5.9383 16.9519 4.10645 22.5637 4.10645C23.1822 4.10645 23.6836 4.60415 23.6836 5.21802C23.6836 5.83188 23.1822 6.32959 22.5637 6.32959C17.7429 6.32959 14.1453 7.79611 12.4325 10.4592C10.7471 13.0801 10.9047 16.8457 12.8764 21.0616C13.1372 21.6184 12.8934 22.279 12.3325 22.5372C12.1801 22.608 12.02 22.6411 11.8618 22.6411Z" fill="white"/>
<path d="M33.265 22.6034C33.1075 22.6034 32.948 22.5703 32.7956 22.5003C32.2347 22.2426 31.9902 21.5827 32.2497 21.0253C34.213 16.812 34.3699 13.0568 32.6923 10.4521C30.9802 7.79351 27.3695 6.32959 22.5252 6.32959C21.9067 6.32959 21.4053 5.83188 21.4053 5.21802C21.4053 4.60415 21.9067 4.10645 22.5252 4.10645C28.1599 4.10645 32.4407 5.93505 34.5791 9.25484C36.6829 12.5208 36.577 17.0326 34.2816 21.9584C34.0927 22.3646 33.688 22.6034 33.265 22.6034Z" fill="white"/>
<path d="M16.6796 7.15805C16.1919 7.15805 15.7441 6.83944 15.6036 6.35081C15.5029 5.9991 15.4467 5.59679 15.4467 5.21783C15.4466 2.29193 18.5559 0 22.5248 0C26.5154 0 29.6416 2.29193 29.6416 5.21783C29.6416 5.47869 29.6344 5.73955 29.5815 6.0004C29.4605 6.60323 28.8708 6.99712 28.2642 6.87188C27.6581 6.75183 27.2646 6.16653 27.3862 5.56434C27.409 5.44884 27.4019 5.33334 27.4019 5.21783C27.4019 3.59427 25.1686 2.22314 22.5249 2.22314C19.902 2.22314 17.6864 3.59428 17.6864 5.21783C17.6864 5.39173 17.7126 5.58705 17.757 5.74214C17.9263 6.332 17.5818 6.94715 16.9869 7.11522C16.8849 7.14442 16.7816 7.15805 16.6796 7.15805Z" fill="white"/>
<path d="M22.5625 57.2968C22.4017 57.2968 22.2402 57.2631 22.0886 57.193L15.1052 53.9537C14.5769 53.7084 14.3265 53.1023 14.5298 52.5598L14.9273 51.4956L13.8852 51.3321C13.5754 51.2828 13.3008 51.1076 13.1275 50.848C12.9543 50.5871 12.8987 50.2679 12.9746 49.9655L14.8345 42.5446C14.9483 42.093 15.334 41.7582 15.8014 41.7088C16.2623 41.6491 16.718 41.9035 16.9252 42.3214L23.5667 55.694C23.7772 56.1171 23.6948 56.6258 23.3627 56.9633C23.147 57.1813 22.8567 57.2968 22.5625 57.2968ZM16.988 52.3729L20.1489 53.8394L16.2688 46.028L15.4425 49.327L16.6284 49.5139C16.9599 49.5671 17.2501 49.763 17.4194 50.0512C17.5888 50.3393 17.6188 50.6871 17.5018 50.9986L16.988 52.3729Z" fill="white"/>
<path d="M22.5631 57.2971C22.2689 57.2971 21.9786 57.1816 21.7629 56.9636C21.4308 56.6261 21.3484 56.1174 21.5589 55.6943L28.2011 42.3217C28.4083 41.9038 28.862 41.6482 29.3249 41.7092C29.7923 41.7585 30.178 42.0933 30.2918 42.5449L32.151 49.9658C32.2269 50.2682 32.1713 50.5874 31.9987 50.847C31.8261 51.1066 31.5522 51.2818 31.243 51.3311L30.2159 51.4959L30.6016 52.5757C30.7945 53.1143 30.5428 53.7113 30.0205 53.954L23.0371 57.1933C22.8854 57.2634 22.7239 57.2971 22.5631 57.2971ZM28.8568 46.0283L24.9767 53.8398L28.1514 52.368L27.6565 50.9833C27.5454 50.6731 27.5793 50.3292 27.748 50.0463C27.9173 49.762 28.205 49.5674 28.5332 49.5155L29.6844 49.3299L28.8568 46.0283Z" fill="white"/>
<path d="M22.5629 46.2018C19.9368 46.2018 17.3106 45.3608 15.2167 43.6762C14.7362 43.2908 14.6623 42.5913 15.0513 42.1137C15.4416 41.6361 16.1463 41.5621 16.6262 41.9502C20.0106 44.6704 25.1158 44.6704 28.5003 41.9502C28.9789 41.5608 29.6856 41.6361 30.0752 42.1137C30.4642 42.5913 30.3903 43.2908 29.9098 43.6762C27.8158 45.3595 25.189 46.2018 22.5629 46.2018Z" fill="white"/>
<path d="M22.5632 66.0001C21.9448 66.0001 21.4434 65.5031 21.4434 64.8892V56.1861C21.4434 55.5723 21.9448 55.0752 22.5632 55.0752C23.1817 55.0752 23.6831 55.5723 23.6831 56.1861V64.8892C23.6831 65.5031 23.1817 66.0001 22.5632 66.0001Z" fill="white"/>
<path d="M6.39478 65.9997C5.77633 65.9997 5.2749 65.5027 5.2749 64.8888V60.4049C5.2749 59.791 5.77633 59.2939 6.39478 59.2939C7.01324 59.2939 7.51466 59.791 7.51466 60.4049V64.8888C7.51466 65.5027 7.01324 65.9997 6.39478 65.9997Z" fill="white"/>
<path d="M37.8961 65.9997C37.2776 65.9997 36.7769 65.5027 36.7769 64.8888V60.4049C36.7769 59.791 37.2776 59.2939 37.8961 59.2939C38.5145 59.2939 39.0153 59.791 39.0153 60.4049V64.8888C39.0153 65.5027 38.5145 65.9997 37.8961 65.9997Z" fill="white"/>
<path d="M45.7534 35.2601C44.5688 35.2601 43.4731 34.7682 42.6677 33.9058C42.1734 34.1031 41.6387 34.2056 41.0843 34.2056C39.2734 34.2056 37.6704 33.0233 37.0022 31.2946C35.9405 31.1324 34.9625 30.5646 34.2512 29.6815C33.8655 29.2019 33.944 28.503 34.4264 28.1195C34.9115 27.7354 35.615 27.8159 36.0007 28.2941C36.4165 28.8113 37.0271 29.1195 37.6312 29.1195H37.8587C38.3987 29.1195 38.8602 29.5017 38.9596 30.028C39.1714 31.1609 40.0657 31.9825 41.0843 31.9825C41.5419 31.9825 41.9485 31.8468 42.2911 31.5795C42.55 31.3777 42.8821 31.3011 43.2051 31.3641C43.5254 31.4289 43.8026 31.6301 43.9621 31.9143C44.3557 32.6177 45.0251 33.0376 45.7534 33.0376C46.9563 33.0376 47.9356 31.9312 47.9356 30.5704C47.9356 29.9566 48.4364 29.4589 49.0549 29.4589C49.6733 29.4589 50.1741 29.9566 50.1741 30.5704C50.1741 33.1563 48.1906 35.2601 45.7534 35.2601ZM37.7083 11.0002C37.2977 11.0002 36.9016 10.775 36.7054 10.3857C36.4295 9.83669 36.6531 9.16897 37.2062 8.89448C37.303 8.84646 37.4023 8.80298 37.5017 8.7634C37.6089 6.33002 39.4734 4.37487 41.7773 4.297C42.4885 2.68188 44.0144 1.61963 45.7534 1.61963C48.1906 1.61963 50.1741 3.72402 50.1741 6.3099C50.1741 6.92376 49.6733 7.42147 49.0549 7.42147C48.4364 7.42147 47.9356 6.92376 47.9356 6.3099C47.9356 4.94915 46.9563 3.84277 45.7534 3.84277C44.7584 3.84277 43.8967 4.61237 43.6588 5.71421C43.5345 6.29497 42.9749 6.67718 42.38 6.57725C42.1643 6.54091 42.0518 6.51755 41.9198 6.51755C40.7156 6.51755 39.7362 7.62393 39.7362 8.98468C39.7362 9.14431 39.7323 9.27734 39.7598 9.43696C39.8121 9.7387 39.7362 10.0489 39.5506 10.2935C39.3649 10.5382 39.0864 10.6958 38.7791 10.7296C38.5425 10.7555 38.3712 10.8016 38.2078 10.8827C38.0469 10.9625 37.8757 11.0002 37.7083 11.0002Z" fill="white"/>
<path d="M49.0548 31.6819C48.4363 31.6819 47.9355 31.1842 47.9355 30.5704V6.30981C47.9355 5.69595 48.4363 5.19824 49.0548 5.19824C49.6732 5.19824 50.174 5.69595 50.174 6.30981V30.5704C50.174 31.1842 49.6732 31.6819 49.0548 31.6819Z" fill="white"/>
<path d="M38.8076 15.5965C38.6612 15.5965 38.5121 15.568 38.3683 15.507C38.3016 15.479 38.1721 15.4453 37.9342 15.4453C37.3157 15.4453 36.8149 14.9476 36.8149 14.3337C36.8149 13.7199 37.3157 13.2222 37.9342 13.2222C38.4349 13.2222 38.8651 13.3013 39.2469 13.4629C39.8157 13.7037 40.0798 14.3564 39.8379 14.921C39.6562 15.3434 39.2417 15.5965 38.8076 15.5965Z" fill="white"/>
<path d="M37.8572 31.3428C37.3146 31.3428 36.8386 30.9509 36.7523 30.4026C36.6569 29.7965 37.0753 29.228 37.6859 29.1333C38.5057 29.0061 39.1673 28.4591 39.4118 27.7057C39.6014 27.1211 40.2277 26.8011 40.8213 26.9887C41.4097 27.1769 41.7326 27.8031 41.543 28.3871C41.037 29.9444 39.6916 31.0722 38.0311 31.3292C37.9722 31.3383 37.9147 31.3428 37.8572 31.3428Z" fill="white"/>
<path d="M49.0543 21.1717C48.5849 21.1717 48.1482 20.8771 47.9926 20.4112C47.7219 19.6078 46.9492 19.0349 46.0679 18.9849C45.4508 18.9499 44.9788 18.4249 45.0141 17.8117C45.0494 17.1985 45.5867 16.7403 46.196 16.7656C47.9847 16.8669 49.5603 18.0498 50.116 19.7091C50.3121 20.2911 49.9944 20.9206 49.4086 21.1146C49.2909 21.1535 49.1719 21.1717 49.0543 21.1717Z" fill="white"/>
<path d="M43.1717 24.2607C43.0318 24.2607 42.8893 24.2347 42.752 24.1789C40.8352 23.4093 39.3944 21.8468 38.7968 19.8923C38.6177 19.305 38.9524 18.6847 39.5447 18.5069C40.1396 18.3291 40.7607 18.6619 40.9411 19.2486C41.3399 20.5561 42.3062 21.6021 43.5915 22.1193C44.1654 22.349 44.4413 22.9973 44.2099 23.5664C44.0334 23.9985 43.6137 24.2607 43.1717 24.2607Z" fill="white"/>
<path d="M39.3018 23.5825C38.9082 23.5825 38.5264 23.3761 38.3212 23.0108C38.0217 22.4742 38.2166 21.7974 38.7566 21.4995C39.6627 20.9992 40.7348 20.8376 41.7599 21.0427C42.3666 21.1634 42.7602 21.7487 42.6386 22.3509C42.517 22.9518 41.9168 23.3411 41.3206 23.2217C40.8067 23.1205 40.285 23.1983 39.8444 23.4423C39.6718 23.5371 39.4849 23.5825 39.3018 23.5825Z" fill="white"/>
<path d="M45.2591 29.6854C44.8211 29.6854 44.404 29.4278 44.2248 29.0008C44.0457 28.5725 43.847 28.1864 43.6325 27.8516C43.3004 27.3338 43.4534 26.6472 43.9751 26.3176C44.4981 25.9886 45.1898 26.1411 45.5206 26.6589C45.8043 27.1002 46.0645 27.6011 46.2933 28.1468C46.53 28.7133 46.2606 29.3642 45.6892 29.5997C45.548 29.6581 45.4029 29.6854 45.2591 29.6854Z" fill="white"/>
<path d="M44.7292 8.13742C44.3409 8.13742 43.963 7.93626 43.7564 7.57806C43.4583 7.06219 42.9405 6.69426 42.3365 6.56967C41.7311 6.44443 41.3415 5.85587 41.4683 5.25499C41.5938 4.65411 42.1979 4.27125 42.7915 4.39325C44.0245 4.64762 45.0835 5.40619 45.6994 6.47363C46.0066 7.00638 45.821 7.68514 45.2836 7.99012C45.1084 8.09005 44.9175 8.13742 44.7292 8.13742Z" fill="white"/>
<path d="M45.1827 14.2023C45.035 14.2023 44.8859 14.1731 44.7421 14.1121C43.4999 13.5833 42.4003 12.6255 41.6485 11.414C41.3242 10.891 41.4877 10.2064 42.0146 9.88454C42.5415 9.56139 43.2306 9.72556 43.5549 10.2473C44.0596 11.061 44.814 11.7248 45.6233 12.0694C46.1921 12.3114 46.4549 12.9642 46.2117 13.5288C46.03 13.9499 45.6168 14.2023 45.1827 14.2023Z" fill="white"/>
<path d="M43.2486 14.8431C43.199 14.8431 43.1493 14.8399 43.0996 14.8334C42.4864 14.7523 42.0562 14.1929 42.1373 13.5849C42.2275 12.912 42.4118 12.2722 42.6851 11.6836C42.944 11.1268 43.6056 10.8796 44.1704 11.1398C44.7327 11.3968 44.9785 12.0567 44.7196 12.6141C44.5391 13.0009 44.4175 13.4259 44.3574 13.8782C44.2816 14.4369 43.8017 14.8431 43.2486 14.8431Z" fill="white"/>
<path d="M52.3562 35.2601C49.919 35.2601 47.9355 33.1563 47.9355 30.5704C47.9355 29.9566 48.4363 29.4589 49.0548 29.4589C49.6732 29.4589 50.174 29.9566 50.174 30.5704C50.174 31.9312 51.1533 33.0376 52.3562 33.0376C53.0976 33.0376 53.7984 32.6074 54.1854 31.9143C54.3449 31.6301 54.6221 31.429 54.9425 31.3641C55.272 31.3044 55.6002 31.3796 55.8564 31.5795C56.199 31.8468 56.6056 31.9825 57.062 31.9825C58.0818 31.9825 58.9762 31.161 59.188 30.028C59.2873 29.5017 59.7489 29.1195 60.2889 29.1195H60.5164C61.7193 29.1195 62.6986 28.0131 62.6986 26.6524C62.6986 26.4869 62.6659 26.3221 62.6372 26.1573C62.5757 25.7919 62.7026 25.4201 62.9732 25.1657C63.4675 24.7044 63.7616 23.9925 63.7616 23.2619C63.7616 22.391 63.3302 21.565 62.662 21.1575C62.4018 20.9978 62.2175 20.7389 62.1534 20.4411C62.0907 20.1432 62.1521 19.8324 62.326 19.5813C62.6398 19.129 62.8124 18.5898 62.8124 18.0635C62.8124 17.1129 62.2933 16.2076 61.5206 15.8105C60.9884 15.538 60.7674 14.8981 61.0172 14.3583C61.2015 13.9637 61.2944 13.5621 61.2944 13.1662C61.2944 11.9035 60.4484 10.8555 59.3266 10.7296C59.0219 10.6952 58.7447 10.5375 58.5604 10.2948C58.3747 10.0515 58.2989 9.74325 58.3486 9.44281C58.3852 9.22672 58.41 9.11576 58.41 8.98468C58.41 7.62393 57.4307 6.51755 56.2278 6.51755C56.0774 6.51755 55.9271 6.5461 55.8002 6.57141C55.2001 6.68886 54.6156 6.3073 54.4875 5.71421C54.2534 4.62924 53.3565 3.84277 52.3562 3.84277C51.1533 3.84277 50.174 4.94915 50.174 6.3099C50.174 6.92376 49.6732 7.42147 49.0548 7.42147C48.4363 7.42147 47.9356 6.92376 47.9356 6.3099C47.9356 3.72402 49.919 1.61963 52.3562 1.61963C54.0809 1.61963 55.642 2.7007 56.3638 4.297C58.6754 4.37098 60.5465 6.3378 60.6445 8.78287C62.3482 9.44475 63.5328 11.1669 63.5328 13.1662C63.5328 13.577 63.4805 13.9858 63.3759 14.3894C64.4154 15.2706 65.0509 16.6255 65.0509 18.0635C65.0509 18.6962 64.9188 19.3347 64.6691 19.9297C65.5072 20.7876 66.0001 21.9893 66.0001 23.2618C66.0001 24.4026 65.6131 25.4947 64.9227 26.3409C64.9319 26.4447 64.9371 26.5485 64.9371 26.6524C64.9371 29.0118 63.2857 30.9702 61.1453 31.2953C60.4772 33.024 58.8729 34.2056 57.062 34.2056C56.505 34.2056 55.9689 34.1024 55.4734 33.9032C54.6601 34.7578 53.5382 35.2601 52.3562 35.2601Z" fill="white"/>
<path d="M62.033 15.935C61.829 15.935 61.6237 15.8798 61.4381 15.7637C60.7582 15.3386 59.9423 15.3211 59.2506 15.7131C58.7158 16.018 58.0307 15.8325 57.7234 15.2997C57.4162 14.767 57.6018 14.0882 58.1392 13.7832C59.5592 12.9766 61.238 13.0123 62.6305 13.8831C63.1535 14.2102 63.3117 14.8961 62.9822 15.4152C62.7691 15.7507 62.4056 15.935 62.033 15.935Z" fill="white"/>
<path d="M60.2899 31.3425C60.235 31.3425 60.1801 31.3386 60.1239 31.3302C58.9654 31.1589 57.9468 30.5561 57.2552 29.632C56.5622 28.706 56.2759 27.5633 56.4484 26.4135C56.5387 25.8061 57.1048 25.3889 57.7207 25.4778C58.3326 25.568 58.7549 26.1338 58.6634 26.7405C58.4882 27.9072 59.2753 28.9578 60.4533 29.1317C61.0653 29.2219 61.4876 29.7878 61.3961 30.3945C61.3137 30.9461 60.8351 31.3425 60.2899 31.3425Z" fill="white"/>
<path d="M49.0544 25.504C48.9276 25.504 48.7982 25.4826 48.6726 25.4372C48.0908 25.2276 47.7914 24.5897 48.0019 24.0128C48.6243 22.314 50.1867 21.1836 51.9833 21.1343C52.6174 21.1343 53.1169 21.6015 53.1339 22.2141C53.1509 22.8279 52.6632 23.3392 52.046 23.3561C51.1739 23.3801 50.413 23.9356 50.107 24.772C49.9409 25.2237 49.5121 25.504 49.0544 25.504Z" fill="white"/>
<path d="M56.417 24.2607C55.9869 24.2607 55.575 24.0121 55.392 23.5949C55.1435 23.0323 55.4011 22.3769 55.9686 22.131C57.4434 21.4905 58.4528 20.1083 58.6032 18.5244C58.662 17.9137 59.2204 17.4757 59.8231 17.5225C60.4389 17.5802 60.8913 18.122 60.8338 18.7333C60.6063 21.1206 59.0857 23.203 56.8655 24.1672C56.7204 24.2308 56.5674 24.2607 56.417 24.2607Z" fill="white"/>
<path d="M59.9837 23.6204C59.8072 23.6204 59.6294 23.5789 59.462 23.4913C59.0737 23.2882 58.5677 23.2233 58.0329 23.3057C57.4223 23.4017 56.8496 22.9871 56.7529 22.381C56.6574 21.7743 57.0745 21.2059 57.6851 21.1098C58.7063 20.9508 59.6843 21.0942 60.508 21.5264C61.0546 21.8132 61.2638 22.4855 60.9748 23.028C60.7748 23.405 60.3864 23.6204 59.9837 23.6204Z" fill="white"/>
<path d="M53.3797 8.13742C53.1783 8.13742 52.9757 8.08356 52.7926 7.97065C52.2657 7.64815 52.1035 6.96355 52.4291 6.44119C53.0842 5.38867 54.1511 4.64243 55.3527 4.39325C55.9581 4.27125 56.5517 4.65411 56.6772 5.25499C56.804 5.85587 56.4157 6.44443 55.8103 6.56967C55.2063 6.69426 54.6676 7.07387 54.3329 7.61051C54.121 7.95053 53.7549 8.13742 53.3797 8.13742Z" fill="white"/>
<path d="M53.0381 15.7469C52.8655 15.7469 52.6903 15.7066 52.5256 15.6229C51.9764 15.3406 51.7607 14.6703 52.0444 14.1252C52.4811 13.2862 52.6197 12.2986 52.4327 11.3427C52.3164 10.7399 52.7126 10.1572 53.3192 10.041C53.9312 9.9223 54.5156 10.3188 54.632 10.921C54.9131 12.3648 54.7013 13.865 54.0344 15.1453C53.8357 15.5275 53.4435 15.7469 53.0381 15.7469Z" fill="white"/>
<path d="M53.5691 14.0137C53.0514 14.0137 52.5859 13.6542 52.4747 13.1305C52.3479 12.5303 52.7349 11.9411 53.3403 11.8145C53.9483 11.688 54.5027 11.4706 54.9878 11.1689C55.5121 10.8451 56.2011 11.0021 56.5306 11.5212C56.8588 12.0416 56.6993 12.7275 56.175 13.0533C55.4663 13.4939 54.6674 13.8086 53.8006 13.9897C53.7234 14.0059 53.645 14.0137 53.5691 14.0137Z" fill="white"/>
<path d="M52.9258 29.6856C52.8081 29.6856 52.6892 29.6674 52.5728 29.6285C51.9857 29.4345 51.668 28.8057 51.8641 28.223C52.0589 27.6409 52.3414 27.0958 52.7022 26.602C53.0657 26.1062 53.7652 25.994 54.2673 26.3567C54.7668 26.7175 54.8779 27.4125 54.5144 27.9089C54.2909 28.2139 54.1091 28.5649 53.9875 28.9251C53.8319 29.391 53.3952 29.6856 52.9258 29.6856Z" fill="white"/>
</svg>
