<svg width="57" height="54" viewBox="0 0 57 54" fill="none" xmlns="http://www.w3.org/2000/svg">
<path d="M15.6134 26.5605C13.3603 26.5605 11.1579 27.2177 9.2845 28.449C7.41114 29.6803 5.95104 31.4304 5.08883 33.4779C4.22662 35.5255 4.00102 37.7786 4.44057 39.9522C4.88012 42.1259 5.96508 44.1226 7.55824 45.6897C9.1514 47.2568 11.1812 48.324 13.391 48.7564C15.6008 49.1888 17.8912 48.9669 19.9728 48.1188C22.0544 47.2706 23.8335 45.8344 25.0852 43.9916C26.337 42.1489 27.0051 39.9824 27.0051 37.7661C27.0051 34.7942 25.8049 31.944 23.6685 29.8426C21.5322 27.7411 18.6347 26.5605 15.6134 26.5605ZM15.6134 47.3116C13.6941 47.3116 11.8179 46.7518 10.2221 45.7029C8.62629 44.6541 7.3825 43.1633 6.64802 41.419C5.91354 39.6748 5.72137 37.7556 6.0958 35.9039C6.47024 34.0523 7.39446 32.3514 8.75159 31.0164C10.1087 29.6815 11.8378 28.7724 13.7202 28.404C15.6026 28.0357 17.5538 28.2248 19.327 28.9472C21.1001 29.6697 22.6157 30.8932 23.682 32.4629C24.7483 34.0327 25.3174 35.8782 25.3174 37.7661C25.3174 40.2978 24.295 42.7257 22.4752 44.5158C20.6553 46.306 18.1871 47.3116 15.6134 47.3116Z" fill="white"/>
<path d="M15.6131 34.8613C15.0289 34.8613 14.4579 35.0317 13.9723 35.3509C13.4866 35.6702 13.108 36.1239 12.8845 36.6547C12.6609 37.1856 12.6025 37.7697 12.7164 38.3332C12.8304 38.8968 13.1117 39.4144 13.5247 39.8207C13.9377 40.227 14.464 40.5037 15.0369 40.6158C15.6098 40.7279 16.2036 40.6704 16.7433 40.4505C17.283 40.2306 17.7442 39.8582 18.0687 39.3805C18.3933 38.9027 18.5665 38.3411 18.5665 37.7665C18.5665 36.996 18.2553 36.2571 17.7014 35.7122C17.1476 35.1674 16.3964 34.8613 15.6131 34.8613ZM15.6131 39.0115C15.3627 39.0115 15.118 38.9385 14.9099 38.8017C14.7017 38.6649 14.5395 38.4705 14.4437 38.2429C14.3479 38.0154 14.3228 37.7651 14.3717 37.5236C14.4205 37.2821 14.541 37.0602 14.7181 36.8861C14.8951 36.712 15.1206 36.5934 15.3661 36.5453C15.6117 36.4973 15.8662 36.522 16.0975 36.6162C16.3287 36.7104 16.5264 36.87 16.6655 37.0748C16.8046 37.2795 16.8788 37.5202 16.8788 37.7665C16.8788 38.0967 16.7455 38.4134 16.5081 38.6469C16.2707 38.8804 15.9488 39.0115 15.6131 39.0115Z" fill="white"/>
<path d="M53.8853 38.597C53.7698 38.4091 53.5832 38.2739 53.3666 38.221C53.1499 38.1682 52.9207 38.2019 52.7293 38.3148L49.0375 40.4937L45.1475 37.1403C44.9941 37.0093 44.7979 36.9371 44.5947 36.937H42.194V29.8816C42.194 29.001 41.8384 28.1565 41.2054 27.5339C40.5724 26.9112 39.7139 26.5614 38.8187 26.5614H30.3804C30.1566 26.5614 29.942 26.6489 29.7838 26.8045C29.6255 26.9602 29.5366 27.1713 29.5366 27.3914C29.5366 27.6116 29.6255 27.8227 29.7838 27.9784C29.942 28.134 30.1566 28.2215 30.3804 28.2215H38.8187C39.2663 28.2215 39.6956 28.3964 40.0121 28.7077C40.3286 29.019 40.5064 29.4413 40.5064 29.8816C40.5064 30.3219 40.3286 30.7441 40.0121 31.0554C39.6956 31.3668 39.2663 31.5417 38.8187 31.5417H29.8784C29.1691 29.9744 28.1979 28.5351 27.0051 27.2835V18.261H31.2243C31.4481 18.261 31.6627 18.1735 31.8209 18.0179C31.9792 17.8622 32.0681 17.6511 32.0681 17.4309C32.0641 16.6595 31.8797 15.8993 31.5293 15.2092C31.1788 14.519 30.6717 13.9174 30.0471 13.4509C29.1611 12.7868 27.8489 12.4507 26.1613 12.4507H16.8792C16.6554 12.4507 16.4407 12.5381 16.2825 12.6938C16.1242 12.8494 16.0353 13.0606 16.0353 13.2807C16.0353 13.5008 16.1242 13.712 16.2825 13.8676C16.4407 14.0233 16.6554 14.1107 16.8792 14.1107H26.1613C27.427 14.1107 28.4565 14.3473 29.0261 14.7706C29.6357 15.2282 30.0735 15.872 30.2707 16.6009H14.3477V4.98026C14.3477 3.07946 12.3436 1.66009 10.5504 1.66009H9.98085C9.80651 1.17505 9.48373 0.755032 9.05687 0.457768C8.63001 0.160504 8.12003 0.000587825 7.59703 0L2.53405 0C1.86266 0 1.21876 0.262352 0.744016 0.729343C0.26927 1.19633 0.00256002 1.82971 0.00256002 2.49013C0.00256002 3.15056 0.26927 3.78393 0.744016 4.25092C1.21876 4.71791 1.86266 4.98026 2.53405 4.98026H7.59703C8.12003 4.97968 8.63001 4.81976 9.05687 4.5225C9.48373 4.22523 9.80651 3.80521 9.98085 3.32018H10.5504C11.4786 3.32018 12.66 4.10042 12.66 4.98026V8.30044H10.1285C9.90472 8.30044 9.69009 8.38789 9.53184 8.54355C9.37359 8.69922 9.28469 8.91034 9.28469 9.13048V20.7511C9.28469 20.9712 9.37359 21.1824 9.53184 21.338C9.69009 21.4937 9.90472 21.5811 10.1285 21.5811C10.3523 21.5811 10.5669 21.4937 10.7252 21.338C10.8834 21.1824 10.9723 20.9712 10.9723 20.7511V9.96053H12.66V22.6892C9.78734 23.2332 7.12786 24.5602 4.98478 26.5189C2.84171 28.4777 1.30127 30.9893 0.539113 33.7676C-0.223044 36.5458 -0.176252 39.4788 0.674153 42.2321C1.52456 44.9855 3.14436 47.4483 5.34886 49.34C7.55337 51.2316 10.2539 52.4759 13.1425 52.9309C16.0311 53.3859 18.9915 53.0333 21.6863 51.9134C24.3811 50.7935 26.7017 48.9513 28.3836 46.5969C30.0655 44.2424 31.0411 41.4705 31.1989 38.597H40.5064V40.7344C38.9154 40.9449 37.4653 41.7423 36.4495 42.9651C35.4338 44.1878 34.9284 45.7446 35.0356 47.3201C35.1429 48.8956 35.8548 50.3722 37.0272 51.4508C38.1996 52.5294 39.7449 53.1295 41.3502 53.1295C42.9555 53.1295 44.5008 52.5294 45.6732 51.4508C46.8456 50.3722 47.5575 48.8956 47.6648 47.3201C47.7721 45.7446 47.2666 44.1878 46.2509 42.9651C45.2352 41.7423 43.785 40.9449 42.194 40.7344V38.597H44.2699L48.392 42.1289C48.5266 42.2434 48.6946 42.313 48.8719 42.3279C49.0493 42.3428 49.2268 42.3022 49.3793 42.2119L53.5984 39.7218C53.786 39.6082 53.921 39.427 53.9746 39.2169C54.0282 39.0067 53.9962 38.7843 53.8853 38.597ZM7.59703 3.32018H2.53405C2.31025 3.32018 2.09562 3.23272 1.93737 3.07706C1.77912 2.9214 1.69022 2.71027 1.69022 2.49013C1.69022 2.26999 1.77912 2.05887 1.93737 1.9032C2.09562 1.74754 2.31025 1.66009 2.53405 1.66009H7.59703C7.82083 1.66009 8.03546 1.74754 8.19371 1.9032C8.35195 2.05887 8.44086 2.26999 8.44086 2.49013C8.44086 2.71027 8.35195 2.9214 8.19371 3.07706C8.03546 3.23272 7.82083 3.32018 7.59703 3.32018ZM45.9913 46.8975C45.9913 47.8004 45.7191 48.683 45.2091 49.4338C44.6992 50.1845 43.9743 50.7697 43.1263 51.1152C42.2782 51.4607 41.3451 51.5512 40.4448 51.375C39.5445 51.1989 38.7176 50.7641 38.0685 50.1256C37.4194 49.4871 36.9774 48.6737 36.7983 47.7881C36.6193 46.9025 36.7112 45.9846 37.0624 45.1504C37.4137 44.3162 38.0086 43.6033 38.7718 43.1016C39.535 42.6 40.4323 42.3322 41.3502 42.3322C42.5811 42.3322 43.7616 42.8132 44.6319 43.6694C45.5023 44.5255 45.9913 45.6867 45.9913 46.8975ZM14.3477 18.261H25.3175V25.7314C22.5592 23.574 19.1373 22.4032 15.6134 22.4112C15.1915 22.4112 14.7696 22.4112 14.3477 22.4651V18.261ZM15.6134 51.4627C12.8597 51.4627 10.1678 50.6595 7.8781 49.1546C5.58844 47.6497 3.80387 45.5107 2.75006 43.0081C1.69625 40.5056 1.42052 37.7518 1.95775 35.0951C2.49498 32.4384 3.82103 29.998 5.76823 28.0827C7.71542 26.1673 10.1963 24.8629 12.8971 24.3344C15.598 23.806 18.3975 24.0772 20.9416 25.1138C23.4857 26.1504 25.6602 27.9058 27.1901 30.1581C28.72 32.4103 29.5366 35.0582 29.5366 37.767C29.5366 41.3993 28.0697 44.8829 25.4586 47.4513C22.8475 50.0198 19.3061 51.4627 15.6134 51.4627ZM31.1989 36.937C31.1339 35.6687 30.9056 34.4136 30.5197 33.2018H38.8187C39.4115 33.2007 39.9936 33.0461 40.5064 32.7535V36.937H31.1989Z" fill="white"/>
<g clip-path="url(#clip0)">
<path d="M48.2 14.5289C48.1 14.5289 48.1 14.5289 48 14.5289C48 14.5289 40 10.7289 40 4.52891C40 3.72891 40.3 2.82891 40.7 2.12891C41.2 1.42891 41.8 0.828906 42.6 0.528906C43.3 0.228906 43.9 0.128906 44.5 0.128906C44.7 0.128906 45 0.128906 45.2 0.228906C46.1 0.328906 46.9 0.728906 47.5 1.32891L48.2 1.92891L48.9 1.32891C49.6 0.728906 50.4 0.428906 51.2 0.228906C51.4 0.128906 51.6 0.128906 51.9 0.128906C52.5 0.128906 53.2 0.228906 53.7 0.528906C54.5 0.928906 55.2 1.42891 55.6 2.12891C56.1 2.82891 56.3 3.62891 56.3 4.52891C56.3 10.7289 48.3 14.5289 48.2 14.5289C48.2 14.5289 48.3 14.5289 48.2 14.5289ZM44.5 1.72891C43.7 1.72891 43 2.02891 42.5 2.52891C42 3.12891 41.7 3.82891 41.7 4.52891C41.7 8.32891 46.1 12.2289 47.9 12.8289L48.2 12.9289L48.5 12.8289C50.3 12.2289 54.7 8.32891 54.7 4.52891C54.7 3.82891 54.4 3.02891 53.9 2.52891C53.4 2.02891 52.7 1.72891 51.9 1.72891C51.1 1.72891 50.4 2.02891 49.9 2.52891C49.3 3.12891 49 3.82891 49 4.52891C49 4.72891 48.9 4.92891 48.8 5.12891C48.6 5.22891 48.4 5.32891 48.2 5.32891C48 5.32891 47.8 5.22891 47.6 5.12891C47.4 4.92891 47.4 4.72891 47.4 4.52891C47.4 3.82891 47.1 3.02891 46.6 2.52891C46 2.02891 45.3 1.72891 44.5 1.72891Z" fill="white"/>
</g>
<defs>
<clipPath id="clip0">
<rect width="16.4" height="14.4" fill="white" transform="translate(40 0.128906)"/>
</clipPath>
</defs>
</svg>
