<svg width="59" height="59" viewBox="0 0 59 59" fill="none" xmlns="http://www.w3.org/2000/svg">
<path d="M57.007 20.9525L51.3928 6.08409C51.2288 5.64816 50.9802 5.24972 50.6616 4.91215C50.343 4.57458 49.9609 4.30468 49.5376 4.1183C49.1082 3.92538 48.6451 3.821 48.1753 3.81129C47.7055 3.80158 47.2385 3.88674 46.8017 4.06175C46.3663 4.23211 45.9694 4.48949 45.6349 4.81847C45.3004 5.14746 45.035 5.54126 44.8548 5.97629C44.6756 6.40338 44.5836 6.86262 44.5844 7.32648C44.5852 7.79034 44.6787 8.24926 44.8594 8.67574L47.4759 14.8985C47.0114 14.8503 46.5421 14.901 46.0982 15.0474C45.6543 15.1938 45.2458 15.4327 44.899 15.7485C44.5523 16.0644 44.275 16.4502 44.0852 16.881C43.8953 17.3118 43.7971 17.7781 43.7969 18.2496V25.7157C43.7959 26.4708 43.6218 27.2154 43.2883 27.8912C41.7462 31.015 40.9416 34.457 40.9375 37.9474V40.3871C40.6847 40.3871 40.4423 40.4885 40.2635 40.669C40.0848 40.8495 39.9844 41.0943 39.9844 41.3496V58.6746H41.8906V42.3121H53.3281V58.6746H55.2344V41.3496C55.2344 41.0943 55.134 40.8495 54.9552 40.669C54.7765 40.4885 54.534 40.3871 54.2813 40.3871H53.9179L56.8726 33.2012C58.4565 29.2838 58.5045 24.9044 57.007 20.9525ZM55.1098 32.4695L51.8536 40.3871H42.8438V37.9474C42.8475 34.7558 43.5833 31.6084 44.9933 28.752C45.4589 27.8089 45.7018 26.7696 45.7031 25.7157V18.2496C45.7036 17.8722 45.8506 17.51 46.1124 17.2407C46.3742 16.9714 46.7301 16.8164 47.1038 16.8089C47.4775 16.8015 47.8391 16.9422 48.1113 17.2009C48.3834 17.4595 48.5444 17.8156 48.5596 18.1927C48.5607 18.2314 48.5625 18.2701 48.5625 18.3089V29.7996H50.4688V18.3089C50.4688 18.2891 50.4674 18.2695 50.4673 18.2496H50.4688C50.4688 18.1825 50.4663 18.1159 50.4623 18.0496C50.4328 17.334 50.2753 16.6296 49.9977 15.9704L46.6141 7.92415C46.5336 7.73417 46.492 7.52974 46.4917 7.32313C46.4914 7.11651 46.5324 6.91196 46.6123 6.72174C46.6946 6.52409 46.8156 6.34527 46.9681 6.19601C47.1205 6.04674 47.3012 5.9301 47.4994 5.85309C47.7018 5.77199 47.9182 5.73253 48.136 5.73702C48.3537 5.7415 48.5683 5.78984 48.7673 5.87919C48.9596 5.96338 49.1334 6.08549 49.2783 6.23837C49.4233 6.39126 49.5366 6.57183 49.6115 6.76951L55.2258 21.638C56.5505 25.1324 56.509 29.0048 55.1098 32.4695Z" fill="white"/>
<path d="M51.4219 44.2383H49.5156V46.1633H51.4219V44.2383Z" fill="white"/>
<path d="M18.0625 40.3871V37.9474C18.0584 34.457 17.2537 31.015 15.7117 27.8912C15.3781 27.2154 15.204 26.4708 15.2031 25.7157V18.2496C15.2029 17.7781 15.1046 17.3118 14.9148 16.881C14.7249 16.4502 14.4477 16.0644 14.1009 15.7485C13.7542 15.4327 13.3457 15.1938 12.9018 15.0474C12.4579 14.901 11.9885 14.8503 11.524 14.8985L14.141 8.67502C14.3215 8.24862 14.4149 7.78981 14.4156 7.32608C14.4163 6.86235 14.3243 6.40325 14.1451 5.97629C13.9649 5.54126 13.6996 5.14746 13.3651 4.81847C13.0305 4.48949 12.6337 4.23211 12.1982 4.06175C11.7615 3.88674 11.2945 3.80158 10.8247 3.81129C10.3549 3.821 9.89174 3.92538 9.46242 4.1183C9.03915 4.30469 8.65701 4.5746 8.33844 4.91217C8.01987 5.24974 7.77129 5.64817 7.60729 6.08409L1.99302 20.9525C0.494927 24.9068 0.543787 29.2887 2.12968 33.2078L5.0821 40.3871H4.71872C4.46594 40.3871 4.22351 40.4885 4.04476 40.669C3.86601 40.8495 3.7656 41.0943 3.7656 41.3496V58.6746H5.67184V42.3121H17.1093V58.6746H19.0156V41.3496C19.0156 41.0943 18.9152 40.8495 18.7364 40.669C18.5577 40.4885 18.3153 40.3871 18.0625 40.3871ZM3.89272 32.476C2.49134 29.0098 2.44874 25.135 3.77358 21.6383L9.38903 6.76987C9.46394 6.57219 9.5772 6.3916 9.72215 6.23872C9.8671 6.08583 10.0408 5.96372 10.2331 5.87955C10.4321 5.7902 10.6468 5.74186 10.8645 5.73738C11.0822 5.73289 11.2986 5.77236 11.501 5.85345C11.6992 5.93046 11.8799 6.0471 12.0324 6.19637C12.1848 6.34563 12.3058 6.52445 12.3882 6.7221C12.468 6.91219 12.509 7.11661 12.5088 7.3231C12.5085 7.52959 12.467 7.7339 12.3866 7.92379L9.00302 15.9708C8.72535 16.6299 8.56794 17.3343 8.53837 18.05C8.53444 18.1163 8.53193 18.1824 8.53193 18.25H8.53336C8.53336 18.2698 8.53193 18.2894 8.53193 18.3093V29.7996H10.4375V18.3089C10.4375 18.2701 10.4393 18.2314 10.4403 18.1927C10.4556 17.8156 10.6165 17.4595 10.8887 17.2009C11.1608 16.9422 11.5225 16.8015 11.8962 16.8089C12.2698 16.8164 12.6257 16.9714 12.8876 17.2407C13.1494 17.51 13.2963 17.8722 13.2968 18.2496V25.7157C13.2981 26.7696 13.5411 27.8089 14.0067 28.752C15.4167 31.6084 16.1525 34.7558 16.1562 37.9474V40.3871H7.14633L3.89272 32.476Z" fill="white"/>
<path d="M9.48438 44.2383H7.57812V46.1633H9.48438V44.2383Z" fill="white"/>
<path d="M29.5 45.2002C26.5481 45.207 23.6286 44.5795 20.9353 43.3594L20.1558 45.1159C23.0963 46.4405 26.2801 47.125 29.5 47.125C32.7198 47.125 35.9036 46.4405 38.8442 45.1159L38.0646 43.3594C35.3714 44.5795 32.4518 45.207 29.5 45.2002Z" fill="white"/>
<path d="M29.5 2.85077C34.1174 2.83531 38.6083 4.37397 42.2631 7.22365L43.4244 5.69712C39.4292 2.60287 34.5349 0.925781 29.5 0.925781C24.4651 0.925781 19.5708 2.60287 15.5756 5.69712L16.7369 7.22365C20.3917 4.37397 24.8826 2.83531 29.5 2.85077Z" fill="white"/>
<path d="M35.2664 15.3633C34.5214 15.3612 33.7834 15.5084 33.0951 15.7963C32.4068 16.0842 31.7819 16.5071 31.2565 17.0406L29.5 18.8147L27.7433 17.0406C26.6769 15.9805 25.2389 15.3889 23.7425 15.3948C22.2462 15.4007 20.8128 16.0036 19.7547 17.0721C18.6966 18.1406 18.0995 19.5881 18.0937 21.0992C18.0878 22.6103 18.6736 24.0624 19.7233 25.1393L28.8257 34.3312C28.9142 34.4206 29.0193 34.4915 29.1349 34.5398C29.2505 34.5882 29.3745 34.6131 29.4997 34.6131C29.6248 34.6131 29.7488 34.5882 29.8644 34.5398C29.9801 34.4915 30.0851 34.4206 30.1736 34.3312L39.276 25.1393C40.0689 24.3384 40.6089 23.318 40.8277 22.2072C41.0464 21.0965 40.9341 19.9451 40.505 18.8988C40.0758 17.8524 39.3491 16.9581 38.4167 16.3288C37.4842 15.6995 36.3879 15.3635 35.2664 15.3633ZM37.9284 23.7781L29.5 32.2897L21.0714 23.7781C20.7145 23.4267 20.4302 23.0073 20.235 22.5441C20.0399 22.081 19.9377 21.5833 19.9345 21.0799C19.9313 20.5766 20.0272 20.0776 20.2164 19.6119C20.4057 19.1463 20.6847 18.7232 21.0371 18.3673C21.3896 18.0114 21.8085 17.7296 22.2696 17.5385C22.7307 17.3474 23.2249 17.2506 23.7233 17.2538C24.2217 17.257 24.7146 17.3601 25.1733 17.5572C25.6319 17.7543 26.0473 18.0414 26.3952 18.4018L28.8257 20.8562C28.9142 20.9456 29.0193 21.0165 29.1349 21.0648C29.2505 21.1132 29.3745 21.1381 29.4997 21.1381C29.6248 21.1381 29.7488 21.1132 29.8644 21.0648C29.9801 21.0165 30.0851 20.9456 30.1736 20.8562L32.6041 18.4018C32.952 18.0414 33.3674 17.7543 33.826 17.5572C34.2847 17.3601 34.7776 17.257 35.276 17.2538C35.7744 17.2506 36.2686 17.3474 36.7297 17.5385C37.1908 17.7296 37.6097 18.0114 37.9622 18.3673C38.3146 18.7232 38.5936 19.1463 38.7829 19.6119C38.9722 20.0776 39.068 20.5766 39.0648 21.0799C39.0616 21.5833 38.9595 22.081 38.7643 22.5441C38.5691 23.0073 38.2848 23.4267 37.9279 23.7781H37.9284Z" fill="white"/>
<path d="M23.1794 7.91382C23.7694 7.67769 24.3721 7.47494 24.9845 7.30648L24.4841 5.44922C23.8031 5.6365 23.133 5.86196 22.4768 6.12453L23.1794 7.91382Z" fill="white"/>
<path d="M33.5121 42.8477L33.1128 40.9651C28.7749 41.9024 24.2462 41.1123 20.4711 38.7598L19.4663 40.396C23.6603 43.011 28.6922 43.8895 33.5121 42.8481V42.8477Z" fill="white"/>
<path d="M29.5 4.77547C28.4925 4.77543 27.4865 4.85516 26.4913 5.01393L26.7899 6.91486C27.6863 6.77199 28.5925 6.7003 29.5 6.70047C32.1144 6.69302 34.6955 7.29247 37.0441 8.45253C39.3926 9.61259 41.4457 11.3022 43.0447 13.3909L44.5489 12.2083C42.7722 9.8877 40.4911 8.01056 37.8818 6.72179C35.2724 5.43302 32.4047 4.7671 29.5 4.77547Z" fill="white"/>
</svg>
