<svg width="66" height="66" viewBox="0 0 66 66" fill="none" xmlns="http://www.w3.org/2000/svg">
<path d="M3.30957 5.4998H5.51578V3.2998C4.93066 3.2998 4.3695 3.53159 3.95576 3.94417C3.54201 4.35675 3.30957 4.91633 3.30957 5.4998Z" fill="white"/>
<path d="M60.6709 2.2H62.8771V6.6C62.8771 7.47521 62.5284 8.31458 61.9078 8.93345C61.2872 9.55232 60.4455 9.9 59.5678 9.9H57.3616C56.4839 9.9 55.6421 9.55232 55.0215 8.93345C54.4009 8.31458 54.0522 7.47521 54.0522 6.6V2.2H56.2585V0H51.846V6.6C51.8478 8.05816 52.4295 9.45609 53.4634 10.4872C54.4974 11.5182 55.8993 12.0983 57.3616 12.1V23.1C57.3616 23.3917 57.2453 23.6715 57.0385 23.8778C56.8316 24.0841 56.551 24.2 56.2585 24.2H52.9491V22C52.9491 21.1248 52.6005 20.2854 51.9799 19.6665C51.3592 19.0477 50.5175 18.7 49.6398 18.7H40.815V15.4C40.8132 13.9418 40.2316 12.5439 39.1976 11.5128C38.1636 10.4818 36.7617 9.90175 35.2994 9.9H28.6808C27.2185 9.90175 25.8166 10.4818 24.7827 11.5128C23.7487 12.5439 23.167 13.9418 23.1653 15.4V18.7H14.3404C13.4627 18.7 12.621 19.0477 12.0004 19.6665C11.3797 20.2854 11.0311 21.1248 11.0311 22V24.2H7.72176C7.4292 24.2 7.14862 24.0841 6.94175 23.8778C6.73487 23.6715 6.61865 23.3917 6.61865 23.1V10.89C7.95787 10.6174 9.14788 9.85865 9.95798 8.76085C10.7681 7.66305 11.1405 6.30441 11.0032 4.94832C10.8658 3.59224 10.2283 2.33533 9.21443 1.42127C8.20053 0.50721 6.88238 0.00112247 5.51555 0.00112247C4.14871 0.00112247 2.83057 0.50721 1.81666 1.42127C0.802754 2.33533 0.165321 3.59224 0.0279423 4.94832C-0.109437 6.30441 0.263025 7.66305 1.07312 8.76085C1.88321 9.85865 3.07322 10.6174 4.41244 10.89V23.1C4.41244 23.9752 4.7611 24.8146 5.38172 25.4335C6.00234 26.0523 6.84407 26.4 7.72176 26.4H11.0311V44C11.0311 44.8752 11.3797 45.7146 12.0004 46.3335C12.621 46.9523 13.4627 47.3 14.3404 47.3H49.6398C50.5175 47.3 51.3592 46.9523 51.9799 46.3335C52.6005 45.7146 52.9491 44.8752 52.9491 44V42.9H56.2585C56.551 42.9 56.8316 43.0159 57.0385 43.2222C57.2453 43.4285 57.3616 43.7083 57.3616 44V50.6H51.846V62.7C51.846 63.5752 52.1947 64.4146 52.8153 65.0335C53.4359 65.6523 54.2777 66 55.1554 66H61.774C62.6517 66 63.4934 65.6523 64.114 65.0335C64.7347 64.4146 65.0833 63.5752 65.0833 62.7V50.6H59.5678V44C59.5678 43.1248 59.2191 42.2854 58.5985 41.6665C57.9779 41.0477 57.1362 40.7 56.2585 40.7H52.9491V26.4H56.2585C57.1362 26.4 57.9779 26.0523 58.5985 25.4335C59.2191 24.8146 59.5678 23.9752 59.5678 23.1V12.1C61.0301 12.0983 62.4319 11.5182 63.4659 10.4872C64.4999 9.45609 65.0816 8.05816 65.0833 6.6V0H60.6709V2.2ZM2.20623 5.5C2.20623 4.84732 2.40031 4.2093 2.76395 3.66662C3.12758 3.12394 3.64443 2.70097 4.24912 2.4512C4.85382 2.20143 5.51922 2.13608 6.16116 2.26341C6.80311 2.39074 7.39277 2.70503 7.85559 3.16655C8.31841 3.62806 8.63359 4.21606 8.76128 4.8562C8.88897 5.49634 8.82343 6.15986 8.57296 6.76286C8.32249 7.36585 7.89832 7.88124 7.35411 8.24385C6.80989 8.60646 6.17007 8.8 5.51555 8.8C4.63786 8.8 3.79612 8.45232 3.1755 7.83345C2.55489 7.21458 2.20623 6.37521 2.20623 5.5ZM25.3715 15.4C25.3715 14.5248 25.7201 13.6854 26.3407 13.0665C26.9614 12.4477 27.8031 12.1 28.6808 12.1H35.2994C36.1771 12.1 37.0189 12.4477 37.6395 13.0665C38.2601 13.6854 38.6088 14.5248 38.6088 15.4V18.7H36.4025V14.3H27.5777V18.7H25.3715V15.4ZM34.1963 16.5V18.7H29.7839V16.5H34.1963ZM50.7429 44C50.7429 44.2917 50.6267 44.5715 50.4198 44.7778C50.213 44.9841 49.9324 45.1 49.6398 45.1H14.3404C14.0478 45.1 13.7673 44.9841 13.5604 44.7778C13.3535 44.5715 13.2373 44.2917 13.2373 44V34.1H17.6497V36.3H19.8559V34.1H24.2684V37.4H27.5777V40.7H36.4025V37.4H39.7119V34.1H44.1243V36.3H46.3305V34.1H50.7429V44ZM37.5056 30.8V35.2H34.1963V38.5H29.7839V35.2H26.4746V30.8H29.7839V27.5H34.1963V30.8H37.5056ZM50.7429 31.9H46.3305V29.7H44.1243V31.9H39.7119V28.6H36.4025V25.3H27.5777V28.6H24.2684V31.9H19.8559V29.7H17.6497V31.9H13.2373V22C13.2373 21.7083 13.3535 21.4285 13.5604 21.2222C13.7673 21.0159 14.0478 20.9 14.3404 20.9H49.6398C49.9324 20.9 50.213 21.0159 50.4198 21.2222C50.6267 21.4285 50.7429 21.7083 50.7429 22V31.9ZM62.8771 62.7C62.8771 62.9917 62.7609 63.2715 62.554 63.4778C62.3471 63.6841 62.0666 63.8 61.774 63.8H55.1554C54.8628 63.8 54.5822 63.6841 54.3753 63.4778C54.1685 63.2715 54.0522 62.9917 54.0522 62.7V61.6H56.2585V59.4H54.0522V57.2H62.8771V62.7ZM59.5678 52.8H62.8771V55H54.0522V52.8H59.5678Z" fill="white"/>
<path d="M4.41268 46.2002C4.12012 46.2002 3.83954 46.3161 3.63266 46.5224C3.42579 46.7287 3.30957 47.0085 3.30957 47.3002V53.9002C3.30957 54.1919 3.42579 54.4717 3.63266 54.678C3.83954 54.8843 4.12012 55.0002 4.41268 55.0002H11.0313C11.3239 55.0002 11.6045 54.8843 11.8113 54.678C12.0182 54.4717 12.1344 54.1919 12.1344 53.9002C12.1344 53.6085 12.0182 53.3287 11.8113 53.1224C11.6045 52.9161 11.3239 52.8002 11.0313 52.8002H5.51578V47.3002C5.51578 47.0085 5.39956 46.7287 5.19269 46.5224C4.98582 46.3161 4.70524 46.2002 4.41268 46.2002Z" fill="white"/>
</svg>
