<svg width="63" height="59" viewBox="0 0 63 59" fill="none" xmlns="http://www.w3.org/2000/svg">
<g clip-path="url(#clip0)">
<path d="M31.5003 26.0755C26.8946 26.0755 22.6178 24.2601 19.4103 21.042C18.0943 19.7217 16.9429 18.1539 16.1204 16.421C15.9559 16.0909 15.9559 15.7608 16.1204 15.4308C18.9168 9.57203 25.0029 5.77623 31.5003 5.77623C36.0238 5.77623 40.3828 7.59161 43.5904 10.8098C44.9886 12.2126 46.0578 13.7804 46.8802 15.4308C47.0447 15.7608 47.0447 16.0909 46.8802 16.3385C46.0578 18.0713 44.9063 19.6392 43.5904 20.9594C40.3828 24.2601 36.1061 26.0755 31.5003 26.0755ZM18.2588 15.9259C18.999 17.2462 19.9037 18.4839 20.8907 19.5567C23.687 22.3622 27.4703 23.9301 31.5003 23.9301C35.5304 23.9301 39.2314 22.3622 42.11 19.5567C43.1792 18.4839 44.0016 17.3287 44.7419 15.9259C44.0839 14.6056 43.1792 13.4504 42.11 12.2951C39.2314 9.48952 35.5304 7.92168 31.5003 7.92168C25.9899 7.92168 20.8084 11.0573 18.2588 15.9259Z" fill="#1F3862"/>
<path d="M20.0678 59C19.4921 59 18.9986 58.5049 18.9986 57.9273C18.9986 57.3496 19.4921 56.8545 20.0678 56.8545H24.3445V53.3063C24.3445 52.7287 24.838 52.2336 25.4137 52.2336H30.4307V43.0741C30.4307 41.4238 30.0195 39.7734 29.197 38.2881L27.7166 35.6475C26.3184 33.2545 24.0156 31.5217 21.3015 31.0266C19.1631 34.7399 15.2153 36.9678 10.9385 36.9678C7.73096 36.9678 4.68788 35.7301 2.46726 33.4196C1.48031 32.4294 0.740102 31.3566 0.164384 30.1189C-0.000107087 29.7888 -0.000107087 29.4587 0.164384 29.2112C0.740102 27.9734 1.56256 26.9007 2.46726 25.993C4.77013 23.6825 7.73096 22.4447 10.9385 22.4447C14.1461 22.4447 17.1892 23.6825 19.4098 25.993C20.2323 26.8182 20.9725 27.8084 21.5482 28.8811C24.9203 29.5413 27.8811 31.6042 29.6082 34.6573L31.0887 37.2979C31.2532 37.628 31.4176 37.8755 31.5821 38.2056C31.7466 37.8755 31.9111 37.628 32.0756 37.2979L33.556 34.6573C35.2832 31.6042 38.1618 29.5413 41.6161 28.8811C42.1918 27.8084 42.932 26.9007 43.7545 25.993C46.0573 23.6825 49.0182 22.4447 52.2257 22.4447C55.4333 22.4447 58.4764 23.6825 60.697 25.993C61.6017 26.9007 62.4242 28.0559 62.9999 29.2112C63.1644 29.5413 63.1644 29.8713 62.9999 30.1189C61.026 34.2447 56.7492 36.8853 52.2257 36.8853C49.0182 36.8853 45.9751 35.6475 43.7545 33.3371C43.0143 32.5944 42.4385 31.7692 41.8628 30.8615C39.1487 31.4392 36.8458 33.0895 35.4477 35.4825L33.9673 38.1231C33.1448 39.6084 32.7336 41.1762 32.7336 42.9091V52.0685H37.7505C38.3263 52.0685 38.8197 52.5636 38.8197 53.1413V54.9566C38.8197 55.5343 38.3263 56.0294 37.7505 56.0294C37.1748 56.0294 36.6814 55.5343 36.6814 54.9566V54.214H26.4829V56.6895H43.0143C43.59 56.6895 44.0834 57.1846 44.0834 57.7622C44.0834 58.3399 43.59 58.835 43.0143 58.835H20.0678V59ZM44.1657 30.779C44.4947 31.1916 44.8237 31.6042 45.1526 31.9343C47.0443 33.8322 49.5116 34.8224 52.1435 34.8224C55.68 34.8224 59.0521 32.8419 60.7793 29.7063C60.2858 28.8811 59.7923 28.1385 59.1344 27.4783C57.2427 25.5804 54.7753 24.5902 52.1435 24.5902C49.5116 24.5902 47.0443 25.5804 45.1526 27.4783C44.8237 27.8084 44.4947 28.221 44.1657 28.6336H50.9921C51.5678 28.6336 52.0612 29.1287 52.0612 29.7063C52.0612 30.2839 51.5678 30.779 50.9921 30.779H44.1657ZM2.30276 29.7063C2.71399 30.5315 3.28971 31.2741 3.94767 31.9343C5.83932 33.8322 8.30668 34.8224 10.9385 34.8224C14.0639 34.8224 17.0247 33.3371 18.9163 30.779H12.09C11.5143 30.779 11.0208 30.2839 11.0208 29.7063C11.0208 29.1287 11.5143 28.6336 12.09 28.6336H18.9163C18.5874 28.221 18.2584 27.8084 17.9294 27.4783C16.0378 25.5804 13.5704 24.5902 10.9385 24.5902C8.30668 24.5902 5.83932 25.5804 3.94767 27.4783C3.28971 28.1385 2.71399 28.8811 2.30276 29.7063Z" fill="#1F3862"/>
<path d="M17.9296 47.6126C17.0249 47.6126 16.1202 47.4476 15.2977 47.2C14.9687 47.1175 14.722 46.8699 14.6397 46.5399C14.393 45.7147 14.2285 44.807 14.2285 43.9818C14.2285 41.8364 15.051 39.856 16.5314 38.2881C18.0118 36.8028 20.0679 35.9776 22.2063 35.9776C23.111 35.9776 23.9335 36.1427 24.8382 36.3902C25.1672 36.4727 25.4139 36.7203 25.4961 37.0504C26.4831 39.9385 25.7429 43.1567 23.6045 45.3021C22.0418 46.7049 20.0679 47.5301 17.9296 47.6126ZM16.5314 45.2196C16.9426 45.3021 17.4361 45.3846 17.9296 45.3846C19.4922 45.3846 20.9726 44.807 22.0418 43.6518C23.44 42.249 24.098 40.1035 23.6045 38.1231C23.111 38.0406 22.6175 37.9581 22.2063 37.9581C20.6437 37.9581 19.1632 38.5357 18.0941 39.6909C17.0249 40.7636 16.3669 42.249 16.3669 43.8168C16.3669 44.3119 16.3669 44.807 16.5314 45.2196Z" fill="#1F3862"/>
<path d="M45.0708 47.6126C42.9324 47.6126 40.9585 46.7874 39.3959 45.3021C37.2575 43.1567 36.5173 39.856 37.5042 37.0504C37.5865 36.7203 37.8332 36.4727 38.1622 36.3902C38.9846 36.1427 39.8893 35.9776 40.7118 35.9776C42.8502 35.9776 44.8241 36.8028 46.3867 38.2881C47.8671 39.7734 48.6896 41.8364 48.6896 43.9818C48.6896 44.8895 48.5251 45.7147 48.2784 46.6224C48.1961 46.9525 47.9494 47.2 47.6204 47.2825C46.8802 47.4476 45.9755 47.5301 45.0708 47.6126ZM39.3959 38.1231C38.9024 40.1035 39.4781 42.249 40.9585 43.6518C42.0277 44.7245 43.5081 45.3846 45.0708 45.3846C45.5643 45.3846 46.0577 45.3021 46.469 45.2196C46.5512 44.7245 46.6335 44.3119 46.6335 43.8168C46.6335 42.249 46.0577 40.7636 44.9063 39.6909C43.8371 38.6182 42.3567 37.9581 40.794 37.9581C40.3828 37.9581 39.8893 38.0406 39.3959 38.1231Z" fill="#1F3862"/>
<path d="M31.5004 22.1147C28.1284 22.1147 25.332 19.3091 25.332 15.9259C25.332 12.5427 28.1284 9.73706 31.5004 9.73706C34.8725 9.73706 37.6688 12.5427 37.6688 15.9259C37.6688 19.3091 34.8725 22.1147 31.5004 22.1147ZM31.5004 11.8C29.2798 11.8 27.4704 13.6154 27.4704 15.8434C27.4704 18.0713 29.2798 19.8867 31.5004 19.8867C33.7211 19.8867 35.5305 18.0713 35.5305 15.8434C35.5305 13.6979 33.7211 11.8 31.5004 11.8Z" fill="#1F3862"/>
<path d="M19.4101 9.65454C19.1634 9.65454 18.8344 9.57202 18.6699 9.32447L17.1072 7.75664C16.696 7.34405 16.696 6.68391 17.1072 6.27132C17.2717 6.10629 17.6007 5.94125 17.8475 5.94125C18.0942 5.94125 18.4232 6.02377 18.5877 6.27132L20.1503 7.83916C20.5616 8.25174 20.5616 8.91188 20.1503 9.32447C19.9036 9.48951 19.6569 9.65454 19.4101 9.65454Z" fill="#1F3862"/>
<path d="M43.5896 9.65454C43.3429 9.65454 43.0139 9.57202 42.8494 9.32447C42.4382 8.91188 42.4382 8.25174 42.8494 7.83915L44.4121 6.1888C44.5766 6.02377 44.9056 5.85873 45.1523 5.85873C45.399 5.85873 45.728 5.94125 45.8925 6.1888C46.057 6.35384 46.2215 6.68391 46.2215 6.93146C46.2215 7.17901 46.1393 7.50908 45.8925 7.67412L44.4121 9.32447C44.1654 9.4895 43.9186 9.65454 43.5896 9.65454Z" fill="#1F3862"/>
<path d="M31.4999 5.11608C30.9241 5.11608 30.4307 4.62098 30.4307 4.04336V1.07273C30.4307 0.495105 30.9241 0 31.4999 0C32.0756 0 32.569 0.495105 32.569 1.07273V4.04336C32.569 4.62098 32.0756 5.11608 31.4999 5.11608Z" fill="#1F3862"/>
</g>
<defs>
<clipPath id="clip0">
<rect width="63" height="59" fill="white"/>
</clipPath>
</defs>
</svg>
