<svg width="410" height="410" viewBox="0 0 410 410" fill="none" xmlns="http://www.w3.org/2000/svg">
<path d="M205.001 103.503C233.063 103.503 258.392 114.892 276.796 133.205L349.959 60.043C312.876 22.9607 261.581 0.000732422 205.001 0.000732422C148.421 0.000732422 97.1252 22.9607 60.043 60.043L133.205 133.205C151.61 114.892 176.939 103.503 205.001 103.503Z" fill="#203864"/>
<path d="M103.502 205.001C103.502 176.939 114.891 151.61 133.204 133.205L60.0422 60.043C22.96 97.1252 0 148.421 0 205.001C0 261.581 22.96 312.876 60.0422 349.959L133.204 276.796C114.891 258.392 103.502 232.972 103.502 205.001Z" fill="#CD8F2D"/>
<path d="M205.001 306.498C176.939 306.498 151.61 295.109 133.205 276.796L60.043 349.958C97.1252 387.041 148.421 410.001 205.001 410.001C261.581 410.001 312.876 387.041 349.959 349.958L276.796 276.796C258.392 295.109 232.972 306.498 205.001 306.498Z" fill="#39C0C7"/>
<path d="M349.957 60.043L276.795 133.205C295.199 151.61 306.497 176.939 306.497 205.001C306.497 233.063 295.108 258.392 276.795 276.796L349.957 349.959C387.039 312.876 409.999 261.581 409.999 205.001C409.999 148.421 387.039 97.1252 349.957 60.043Z" fill="#812825"/>
<path d="M276.704 133.205C258.3 114.801 232.971 103.503 204.909 103.503C176.847 103.503 151.518 114.892 133.113 133.205C114.709 151.61 103.411 176.938 103.411 205.001C103.411 233.063 114.8 258.392 133.113 276.796C151.518 295.201 176.847 306.498 204.909 306.498C232.971 306.498 258.3 295.11 276.704 276.796C295.109 258.392 306.407 233.063 306.407 205.001C306.407 176.938 295.109 151.61 276.704 133.205Z" fill="white"/>
<path d="M174.344 210.173C173.922 213.782 172.586 216.571 170.336 218.54C168.102 220.493 165.125 221.469 161.406 221.469C157.375 221.469 154.141 220.024 151.703 217.134C149.281 214.243 148.07 210.376 148.07 205.532V202.251C148.07 199.079 148.633 196.29 149.758 193.884C150.898 191.477 152.508 189.634 154.586 188.352C156.664 187.055 159.07 186.407 161.805 186.407C165.43 186.407 168.336 187.423 170.523 189.454C172.711 191.469 173.984 194.266 174.344 197.844H169.82C169.43 195.126 168.578 193.157 167.266 191.938C165.969 190.719 164.148 190.11 161.805 190.11C158.93 190.11 156.672 191.173 155.031 193.298C153.406 195.423 152.594 198.446 152.594 202.368V205.673C152.594 209.376 153.367 212.321 154.914 214.509C156.461 216.696 158.625 217.79 161.406 217.79C163.906 217.79 165.82 217.227 167.148 216.102C168.492 214.962 169.383 212.985 169.82 210.173H174.344ZM199.352 212.094H185.055L181.844 221.001H177.203L190.234 186.876H194.172L207.227 221.001H202.609L199.352 212.094ZM186.414 208.391H198.016L192.203 192.43L186.414 208.391ZM224.336 207.196H216.32V221.001H211.797V186.876H223.094C226.938 186.876 229.891 187.751 231.953 189.501C234.031 191.251 235.07 193.798 235.07 197.141C235.07 199.266 234.492 201.118 233.336 202.696C232.195 204.274 230.602 205.454 228.555 206.235L236.57 220.719V221.001H231.742L224.336 207.196ZM216.32 203.516H223.234C225.469 203.516 227.242 202.938 228.555 201.782C229.883 200.626 230.547 199.079 230.547 197.141C230.547 195.032 229.914 193.415 228.648 192.29C227.398 191.165 225.586 190.594 223.211 190.579H216.32V203.516ZM260.688 205.227H245.898V217.321H263.078V221.001H241.398V186.876H262.844V190.579H245.898V201.548H260.688V205.227Z" fill="#1F3862"/>
<g clip-path="url(#clip0)">
<path d="M140.005 94.8533C140.889 96.3778 141.141 97.7751 140.763 99.1725C140.384 100.57 139.501 101.713 138.113 102.73C136.599 103.873 134.958 104.127 133.192 103.746C131.426 103.238 129.911 102.094 128.65 100.316L127.766 99.0455C126.883 97.7751 126.379 96.6318 126.126 95.3615C125.874 94.0911 126 92.9478 126.505 91.9315C127.009 90.9152 127.64 89.8989 128.776 89.1367C130.164 88.1204 131.552 87.7393 132.94 87.8664C134.328 87.9934 135.589 88.7556 136.725 90.026L134.958 91.2963C134.075 90.4071 133.192 89.7719 132.309 89.6449C131.426 89.5178 130.542 89.7719 129.659 90.4071C128.524 91.1693 128.019 92.1856 127.893 93.4559C127.893 94.7263 128.397 96.1237 129.407 97.6481L130.29 98.9185C131.426 100.57 132.561 101.459 133.823 101.84C134.958 102.221 136.094 102.094 137.23 101.332C138.239 100.697 138.744 99.9348 138.996 99.0455C139.248 98.2833 138.996 97.267 138.365 95.9966L140.005 94.8533Z" fill="white"/>
<path d="M156.156 83.039L146.315 88.3745L145.558 86.8501L155.399 81.5146L156.156 83.039Z" fill="white"/>
<path d="M177.227 76.9414C177.605 78.5928 177.479 80.1173 176.722 81.3876C176.091 82.658 174.83 83.5472 173.189 84.1824C171.423 84.8176 169.783 84.6905 168.142 83.8013C166.628 82.912 165.493 81.3876 164.736 79.228L164.231 77.7036C163.726 76.3062 163.6 74.9088 163.726 73.6384C163.852 72.3681 164.231 71.3518 164.988 70.3355C165.745 69.4462 166.628 68.8111 167.89 68.3029C169.53 67.6677 170.918 67.6677 172.306 68.3029C173.568 68.8111 174.577 69.9544 175.334 71.4788L173.316 72.241C172.685 71.0977 172.054 70.3355 171.297 69.9544C170.54 69.5733 169.656 69.5733 168.521 69.9544C167.259 70.4625 166.376 71.2247 165.997 72.4951C165.619 73.7655 165.745 75.1629 166.376 76.9414L166.881 78.4658C167.511 80.1173 168.268 81.3876 169.278 82.0228C170.287 82.658 171.423 82.912 172.685 82.4039C173.82 82.0228 174.577 81.3876 174.956 80.7524C175.334 80.1173 175.461 78.9739 175.208 77.7036L177.227 76.9414Z" fill="white"/>
<path d="M179.12 75.4169C178.868 74.2736 178.868 73.1303 179.12 72.114C179.372 71.0977 179.877 70.2085 180.508 69.5733C181.139 68.9381 182.022 68.43 183.031 68.1759C184.672 67.7948 186.06 68.0489 187.321 68.9381C188.583 69.8274 189.34 71.2248 189.845 73.0033V73.1303C190.097 74.2736 190.097 75.4169 189.845 76.3062C189.593 77.1954 189.214 78.2117 188.457 78.8469C187.826 79.4821 186.943 79.9902 185.807 80.2443C184.167 80.6254 182.779 80.3713 181.517 79.4821C180.256 78.5928 179.498 77.1954 178.994 75.4169H179.12ZM181.265 75.1629C181.517 76.4332 182.148 77.4495 182.905 78.0847C183.662 78.7199 184.545 78.9739 185.555 78.7199C186.564 78.4658 187.321 77.9577 187.7 76.9414C188.078 76.0521 188.205 74.7818 187.826 73.3844C187.574 72.114 186.943 71.0977 186.186 70.4625C185.429 69.8274 184.545 69.5733 183.536 69.8274C182.527 70.0814 181.896 70.5896 181.391 71.6059C180.886 72.4951 180.886 73.6384 181.265 75.1629Z" fill="white"/>
<path d="M194.135 66.1433L194.261 67.4137C195.018 66.2703 196.154 65.6352 197.668 65.5081C199.308 65.3811 200.57 65.8892 201.201 67.1596C201.579 66.5244 202.084 66.0163 202.589 65.6352C203.093 65.2541 203.977 65 204.86 64.8729C207.51 64.6189 208.898 65.8892 209.15 68.684L209.781 76.6873L207.762 76.8143L207.131 68.8111C207.005 67.9218 206.753 67.2866 206.374 66.9055C205.996 66.5244 205.238 66.3974 204.355 66.3974C203.598 66.5244 202.967 66.7785 202.463 67.2866C201.958 67.7948 201.706 68.4299 201.706 69.1922L202.336 77.1954L200.57 77.7036L199.939 69.8273C199.813 68.0488 198.93 67.2866 197.163 67.4137C195.775 67.5407 194.892 68.1759 194.514 69.3192L195.271 78.0847L193.252 78.2117L192.116 66.2703L194.135 66.1433Z" fill="white"/>
<path d="M222.903 71.9869C222.776 73.7654 222.272 75.2899 221.389 76.3061C220.505 77.3224 219.37 77.8306 217.856 77.8306C216.342 77.7035 215.332 77.1954 214.575 76.1791L214.197 82.0228L212.178 81.8957L213.187 65.254L215.08 65.3811V66.7785C215.963 65.7622 217.225 65.3811 218.613 65.3811C220.001 65.5081 221.136 66.1433 221.893 67.2866C222.65 68.4299 223.029 69.9544 222.903 71.9869ZM220.884 71.6058C221.01 70.2084 220.758 69.1921 220.253 68.3029C219.748 67.5407 218.991 67.0325 217.982 67.0325C216.72 66.9055 215.837 67.4136 215.08 68.557L214.701 74.2736C215.206 75.4169 216.089 76.0521 217.351 76.0521C218.36 76.0521 219.117 75.798 219.748 75.0358C220.379 74.2736 220.884 73.1302 220.884 71.6058Z" fill="white"/>
<path d="M232.113 79.4821C231.987 79.228 231.987 78.8469 232.113 78.2117C230.978 78.9739 229.842 79.3551 228.454 79.101C227.319 78.8469 226.436 78.3388 225.805 77.5765C225.174 76.8143 224.921 75.9251 225.174 74.9088C225.426 73.6384 226.057 72.7492 227.066 72.241C228.076 71.7329 229.464 71.6059 231.23 71.8599L233.249 72.241V71.2248C233.375 70.4625 233.249 69.9544 232.871 69.4463C232.492 68.9381 231.987 68.684 231.104 68.43C230.347 68.3029 229.716 68.43 229.211 68.684C228.707 68.9381 228.328 69.3192 228.202 69.8274L226.183 69.4463C226.309 68.8111 226.562 68.3029 227.066 67.7948C227.571 67.2866 228.202 67.0326 228.959 66.7785C229.716 66.5244 230.599 66.5244 231.356 66.7785C232.744 67.0326 233.754 67.5407 234.385 68.43C235.016 69.1922 235.268 70.2085 235.142 71.4788L234.132 76.9414C233.88 78.0847 233.88 78.9739 234.132 79.6091V79.7362L232.113 79.4821ZM228.959 77.3225C229.59 77.4495 230.221 77.3225 230.852 77.1954C231.483 76.9414 231.987 76.5603 232.366 76.1792L232.744 73.7655L231.104 73.5114C228.581 73.1303 227.319 73.6384 227.066 75.0358C226.94 75.671 227.066 76.1792 227.445 76.6873C227.824 77.1954 228.328 77.1954 228.959 77.3225Z" fill="white"/>
<path d="M244.101 79.228C244.227 78.7199 244.227 78.2117 243.848 77.8306C243.47 77.4495 242.965 76.9414 241.956 76.4332C241.072 75.9251 240.315 75.4169 239.811 74.9088C239.306 74.4007 238.927 73.8925 238.801 73.5114C238.675 73.0033 238.675 72.4951 238.801 71.8599C239.054 70.9707 239.684 70.2085 240.694 69.8274C241.703 69.4463 242.839 69.3192 244.101 69.7003C245.362 70.0814 246.372 70.7166 247.003 71.6059C247.634 72.4951 247.76 73.5114 247.507 74.5277L245.489 73.8925C245.615 73.3844 245.489 72.8762 245.236 72.241C244.984 71.6059 244.353 71.3518 243.722 71.0977C242.965 70.8436 242.46 70.8436 241.956 71.0977C241.451 71.3518 240.946 71.987 240.82 72.4951C240.694 73.0033 240.82 73.3844 241.072 73.7655C241.325 74.1466 241.956 74.5277 242.965 75.0358C243.848 75.544 244.605 76.0521 245.11 76.4332C245.615 76.9414 245.993 77.4495 246.119 77.9577C246.246 78.4658 246.246 79.101 246.119 79.6091C245.867 80.6254 245.236 81.3876 244.227 81.7687C243.217 82.1498 242.082 82.1498 240.694 81.7687C239.811 81.5147 239.054 81.1336 238.423 80.6254C237.792 80.1173 237.413 79.4821 237.161 78.7199C236.909 77.9577 236.909 77.3225 237.161 76.6873L239.18 77.1954C239.054 77.8306 239.18 78.4658 239.558 78.9739C239.937 79.4821 240.568 79.8632 241.325 80.1173C242.082 80.3713 242.713 80.3713 243.217 80.2443C243.596 80.1173 243.974 79.7362 244.101 79.228Z" fill="white"/>
<path d="M255.077 83.2931C255.33 82.785 255.203 82.2768 254.951 81.8957C254.699 81.5146 254.068 80.8794 253.185 80.3713C252.301 79.7361 251.67 79.228 251.166 78.7198C250.661 78.2117 250.409 77.7035 250.283 77.1954C250.156 76.6873 250.283 76.1791 250.409 75.5439C250.787 74.6547 251.418 74.0195 252.428 73.6384C253.437 73.2573 254.573 73.3843 255.708 73.8925C256.97 74.4006 257.853 75.1628 258.358 76.0521C258.862 77.0684 258.989 77.9576 258.61 79.1009L256.717 78.3387C256.97 77.8306 256.844 77.3224 256.591 76.6873C256.339 76.0521 255.834 75.671 255.077 75.4169C254.32 75.1628 253.815 75.0358 253.311 75.1628C252.806 75.2899 252.428 75.671 252.301 76.1791C252.175 76.6873 252.175 77.0684 252.428 77.4495C252.68 77.8306 253.311 78.3387 254.194 78.8469C255.077 79.482 255.708 79.9902 256.213 80.4983C256.717 81.0065 256.97 81.5146 257.096 82.1498C257.222 82.785 257.222 83.2931 256.97 83.8013C256.591 84.8176 255.834 85.4527 254.825 85.7068C253.815 85.9609 252.68 85.8338 251.418 85.3257C250.535 84.9446 249.778 84.4364 249.273 83.9283C248.768 83.2931 248.39 82.6579 248.138 81.8957C248.011 81.1335 248.011 80.4983 248.264 79.8632L250.156 80.6254C249.904 81.2606 250.03 81.8957 250.283 82.4039C250.661 82.912 251.166 83.4202 251.923 83.6742C252.68 83.9283 253.311 84.0553 253.815 83.9283C254.32 83.8013 254.825 83.8013 255.077 83.2931Z" fill="white"/>
<path d="M259.998 89.1367L258.105 88.2475L263.279 77.3224L265.171 78.2117L259.998 89.1367ZM264.414 74.2736C264.54 74.0195 264.793 73.7654 265.045 73.6384C265.297 73.5113 265.676 73.5113 266.055 73.7654C266.433 73.8924 266.685 74.1465 266.685 74.5276C266.685 74.9087 266.685 75.1628 266.559 75.4169C266.433 75.6709 266.181 75.925 265.928 76.0521C265.676 76.1791 265.297 76.1791 264.919 75.925C264.54 75.798 264.288 75.5439 264.288 75.2898C264.288 74.9087 264.288 74.6547 264.414 74.2736Z" fill="white"/>
<path d="M265.297 84.6905C265.928 83.6742 266.559 82.785 267.442 82.2768C268.326 81.6417 269.209 81.3876 270.218 81.2606C271.228 81.2606 272.111 81.5146 272.994 82.0228C274.382 82.785 275.265 83.9283 275.644 85.4527C276.022 86.9772 275.644 88.5016 274.761 90.1531L274.634 90.2801C274.004 91.2964 273.373 92.0586 272.489 92.6938C271.606 93.329 270.723 93.583 269.714 93.7101C268.704 93.8371 267.821 93.456 266.811 92.9478C265.424 92.1856 264.54 91.0423 264.162 89.5179C263.783 87.9935 264.288 86.469 265.297 84.6905ZM266.938 85.9609C266.307 87.1042 266.054 88.2475 266.181 89.2638C266.307 90.2801 266.812 91.0423 267.695 91.5505C268.578 92.0586 269.587 92.0586 270.471 91.6775C271.354 91.2964 272.237 90.4071 272.994 89.1368C273.625 87.9935 273.877 86.8501 273.751 85.8338C273.625 84.8176 273.12 84.0553 272.111 83.5472C271.228 83.0391 270.344 83.0391 269.335 83.4202C268.452 83.8013 267.695 84.6905 266.938 85.9609Z" fill="white"/>
<path d="M282.079 87.7394L281.322 89.0098C282.71 88.5016 284.098 88.7557 285.234 89.645C287.379 91.0424 287.631 92.9479 285.991 95.3616L281.575 101.967L279.934 100.824L284.35 94.2183C284.855 93.456 284.981 92.8209 284.981 92.3127C284.855 91.8046 284.477 91.2964 283.846 90.7883C283.341 90.4072 282.71 90.2801 282.079 90.2801C281.448 90.2801 280.818 90.4072 280.313 90.7883L275.518 97.9023L273.878 96.759L280.565 86.7231L282.079 87.7394Z" fill="white"/>
</g>
<g clip-path="url(#clip1)">
<path d="M65.8147 136.21L61.8147 129.032L55.8888 132.254L60.4814 140.458L58.7036 141.483L52.9258 131.082L69.6666 122L75.4443 132.401L73.6666 133.426L69.074 125.223L63.7406 128.153L67.5925 135.184L65.8147 136.21Z" fill="white"/>
<path d="M75.148 158.623L70.5554 146.61L72.3332 145.878L76.9258 157.89L75.148 158.623Z" fill="white"/>
<path d="M80.6296 180.157L79 172.246L72.4815 173.565L74.4074 182.794L72.3333 183.233L69.963 171.514L88.6296 167.852L91 179.424L88.9259 179.864L87 170.781L81.0741 171.953L82.7037 179.864L80.6296 180.157Z" fill="white"/>
<path d="M81.9634 189.24L87.4449 191.877L87.7412 194.66L80.3338 190.705L73.6671 195.978L73.3708 193.195L78.2597 189.533L72.7783 186.749L72.482 183.966L80.0375 188.068L86.556 183.087L86.8523 185.87L81.9634 189.24Z" fill="white"/>
<path d="M75.2967 203.449C75.2967 204.328 75.593 205.06 76.0374 205.646C76.4818 206.232 77.2226 206.672 77.9633 206.672L77.9633 208.869C77.2226 208.869 76.3337 208.576 75.7411 207.99C75.0004 207.404 74.4078 206.818 73.9633 205.939C73.5189 205.06 73.3707 204.181 73.3707 203.303C73.3707 201.398 74.1115 199.933 75.2967 198.761C76.63 197.589 78.4078 197.15 80.63 197.15L81.0744 197.15C82.4078 197.15 83.593 197.443 84.7781 197.882C85.8152 198.322 86.7041 199.054 87.2967 200.08C87.8893 200.959 88.1855 202.131 88.1855 203.449C88.1855 205.06 87.7411 206.379 86.7041 207.258C85.8152 208.283 84.4818 208.869 83.0004 208.869L83.0004 206.672C83.8893 206.672 84.63 206.232 85.2226 205.646C85.8152 205.06 86.1115 204.328 86.1115 203.449C86.1115 202.277 85.667 201.252 84.7781 200.666C83.7411 199.933 82.5559 199.64 80.7781 199.64L80.3337 199.64C78.7041 199.64 77.5189 199.933 76.63 200.666C75.7411 201.398 75.2967 202.131 75.2967 203.449Z" fill="white"/>
<path d="M72.3336 216.78C72.6299 214.875 73.3706 213.41 74.7039 212.385C76.0373 211.359 77.8151 210.92 79.8891 211.213L80.3336 211.213C81.6669 211.359 83.0002 211.799 83.8891 212.385C84.9262 212.971 85.6669 213.85 86.2595 214.875C86.7039 215.901 87.0002 216.926 86.8521 218.098C86.7039 219.856 85.815 221.174 84.4817 222.053C83.1484 222.932 81.3706 223.225 79.1484 222.932L78.1113 222.786L79.2965 213.41C77.9632 213.264 76.778 213.557 75.741 214.143C74.8521 214.875 74.2595 215.754 74.1113 216.926C73.9632 217.805 74.1113 218.537 74.4076 219.123C74.7039 219.709 75.1484 220.295 75.5928 220.735L74.2595 222.053C72.778 221.028 72.0373 219.123 72.3336 216.78ZM84.9262 217.951C85.0743 216.926 84.778 216.194 84.1854 215.461C83.5928 214.729 82.5558 214.289 81.3706 213.996L80.4817 220.881L80.6299 220.881C81.8151 221.028 82.8521 220.735 83.5928 220.295C84.3336 219.709 84.778 218.977 84.9262 217.951Z" fill="white"/>
<path d="M70.8519 227.181L71.2963 224.837L91 228.646L90.5556 230.99L70.8519 227.181Z" fill="white"/>
<path d="M69.5186 233.187L70.1112 230.843L89.5186 235.677L88.926 238.021L69.5186 233.187Z" fill="white"/>
<path d="M66.5554 241.976C67.148 240.218 68.185 238.9 69.8146 238.167C71.4443 237.435 73.222 237.435 75.148 238.021L75.5924 238.167C76.9257 238.607 77.9628 239.193 78.8517 240.072C79.7405 240.951 80.3331 241.83 80.6294 243.002C80.9257 244.027 80.9257 245.199 80.4813 246.224C79.8887 247.982 78.8517 249.154 77.3702 249.74C75.8887 250.326 74.1109 250.326 72.0368 249.594L71.148 249.301L74.1109 240.365C72.7776 239.925 71.5924 240.072 70.5554 240.511C69.5183 240.951 68.7776 241.83 68.4813 242.855C68.185 243.587 68.185 244.32 68.3331 245.052C68.4813 245.785 68.7776 246.371 69.222 246.957L67.7406 247.982C66.1109 246.078 65.8146 244.173 66.5554 241.976ZM78.7035 245.638C78.9998 244.759 78.9998 243.88 78.4072 243.002C77.9628 242.123 77.0739 241.537 75.8887 240.951L73.6665 247.543L73.8146 247.543C74.9998 247.836 76.0368 247.836 76.7776 247.543C77.5183 247.25 78.4072 246.517 78.7035 245.638Z" fill="white"/>
<path d="M76.1853 257.065L74.5557 256.479C75.2964 257.944 75.4446 259.555 74.7038 261.167C73.5187 263.804 71.2964 264.536 68.3335 263.218L59.7409 259.555L60.7779 257.358L69.3705 261.02C70.2594 261.46 71.1483 261.46 71.7409 261.313C72.3335 261.167 72.9261 260.581 73.2224 259.702C73.5187 258.969 73.6668 258.237 73.5187 257.651C73.3705 256.918 73.0742 256.332 72.6298 255.747L63.4446 251.791L64.1853 249.447L77.0742 255.014L76.1853 257.065Z" fill="white"/>
<path d="M57.0739 268.052C56.6295 268.784 56.4813 269.517 56.6295 270.395C56.7776 271.128 57.2221 271.86 57.8147 272.3L56.7776 274.204C56.0369 273.765 55.5924 273.179 55.148 272.446C54.7036 271.714 54.5554 270.835 54.5554 269.809C54.5554 268.931 54.8517 267.905 55.2962 267.173C56.185 265.561 57.5184 264.536 59.148 264.096C60.7776 263.657 62.5554 264.096 64.6295 265.122L64.9258 265.268C66.111 265.854 67.148 266.733 67.7406 267.612C68.4813 268.491 68.7776 269.517 68.9258 270.688C68.9258 271.86 68.7776 272.886 68.0369 274.058C67.2962 275.376 66.2591 276.402 64.9258 276.841C63.5924 277.281 62.2591 277.134 60.9258 276.548L61.9628 274.644C62.8517 275.083 63.5924 275.083 64.4813 274.79C65.2221 274.497 65.9628 274.058 66.4073 273.179C66.9999 272.153 66.9999 271.128 66.5554 270.102C66.111 269.077 65.2221 268.198 63.7406 267.466L63.4443 267.026C61.9628 266.294 60.7776 266.001 59.7406 266.147C58.7036 266.294 57.6665 266.88 57.0739 268.052Z" fill="white"/>
<path d="M48.1849 278.746C49.222 277.134 50.5553 276.255 52.3331 275.962C54.1109 275.669 55.7405 276.109 57.5183 277.281L57.8146 277.574C58.9997 278.306 59.8886 279.185 60.4812 280.211C61.0738 281.236 61.3701 282.261 61.3701 283.433C61.3701 284.605 61.0738 285.631 60.4812 286.51C59.4442 287.975 58.259 288.854 56.6294 289C54.9997 289.147 53.3701 288.707 51.4442 287.389L50.5553 286.803L55.7405 278.892C54.5553 278.16 53.3701 277.867 52.3331 278.013C51.1479 278.16 50.259 278.746 49.6664 279.771C49.222 280.504 48.9257 281.236 48.9257 281.822C48.9257 282.554 48.9257 283.14 49.222 283.873L47.4442 284.459C46.7035 282.554 46.8516 280.65 48.1849 278.746ZM58.8516 285.338C59.4442 284.605 59.5923 283.726 59.296 282.701C58.9997 281.675 58.4072 280.943 57.5183 280.064L53.6664 285.924L53.8146 286.07C54.8516 286.656 55.8886 286.949 56.7775 286.803C57.6664 286.656 58.4072 286.217 58.8516 285.338Z" fill="white"/>
</g>
<path d="M20.7086 202.5C20.7086 205.076 21.4724 207.593 22.9033 209.735C24.3342 211.876 26.3679 213.545 28.7474 214.531C31.1269 215.517 33.7452 215.774 36.2713 215.272C38.7973 214.769 41.1176 213.529 42.9388 211.708C44.76 209.887 46.0002 207.567 46.5027 205.04C47.0052 202.514 46.7473 199.896 45.7617 197.517C44.7761 195.137 43.107 193.103 40.9655 191.672C38.824 190.242 36.3063 189.478 33.7308 189.478C30.2783 189.482 26.9683 190.855 24.5271 193.296C22.0858 195.738 20.7126 199.048 20.7086 202.5ZM44.7697 202.5C44.7697 204.683 44.1223 206.818 42.9093 208.633C41.6963 210.448 39.9723 211.863 37.9552 212.699C35.9381 213.534 33.7185 213.753 31.5772 213.327C29.4359 212.901 27.4689 211.849 25.9251 210.306C24.3813 208.762 23.3299 206.795 22.904 204.654C22.4781 202.512 22.6967 200.293 23.5322 198.276C24.3677 196.259 25.7826 194.534 27.5979 193.322C29.4132 192.109 31.5475 191.461 33.7308 191.461C36.6575 191.464 39.4633 192.629 41.5328 194.698C43.6022 196.767 44.7663 199.573 44.7697 202.5ZM37.1104 185.908C36.1788 185.014 35.1233 184 33.7308 184C32.3383 184 31.2827 185.014 30.3511 185.908C29.8976 186.419 29.3521 186.84 28.743 187.149C28.0371 187.269 27.315 187.253 26.6151 187.102C25.3601 186.935 23.9377 186.745 22.8546 187.533C21.7616 188.329 21.5033 189.748 21.2761 191C21.2051 191.704 21.0012 192.387 20.6751 193.015C20.1844 193.51 19.6046 193.907 18.9662 194.187C17.8357 194.792 16.5549 195.479 16.132 196.781C15.7253 198.036 16.3386 199.318 16.8816 200.448C17.2486 201.08 17.4906 201.777 17.5943 202.5C17.4903 203.223 17.2481 203.92 16.8809 204.552C16.3388 205.682 15.7253 206.965 16.132 208.218C16.5551 209.52 17.8358 210.207 18.9655 210.813C19.6042 211.092 20.1843 211.49 20.6751 211.985C21.0011 212.612 21.2048 213.296 21.2755 213.999C21.5033 215.252 21.7616 216.671 22.8546 217.467C23.9378 218.255 25.3601 218.065 26.6151 217.898C27.315 217.747 28.0371 217.731 28.743 217.851C29.3519 218.16 29.8972 218.581 30.3505 219.092C31.2821 219.986 32.3383 221 33.7308 221C35.1233 221 36.1795 219.986 37.1111 219.092C37.5644 218.581 38.1097 218.16 38.7186 217.851C39.4244 217.731 40.1466 217.747 40.8465 217.898C42.1015 218.065 43.5239 218.255 44.607 217.467C45.7 216.671 45.9582 215.252 46.1854 214C46.2565 213.296 46.4605 212.613 46.7865 211.985C47.2774 211.49 47.8574 211.093 48.4961 210.813C49.6258 210.207 50.9066 209.52 51.3295 208.218C51.7369 206.965 51.1229 205.683 50.5807 204.552C50.2135 203.92 49.9713 203.223 49.8673 202.5C49.971 201.777 50.213 201.08 50.58 200.448C51.0755 199.587 51.3765 198.627 51.4619 197.637C51.4632 197.347 51.4186 197.058 51.3297 196.782C50.9066 195.479 49.6259 194.792 48.4955 194.187C47.8571 193.907 47.2773 193.51 46.7866 193.015C46.4606 192.388 46.2569 191.705 46.1862 191.001C45.9584 189.748 45.7001 188.329 44.6071 187.533C43.5239 186.745 42.1009 186.935 40.8459 187.102C40.1463 187.253 39.4244 187.269 38.7187 187.149C38.1096 186.84 37.564 186.419 37.1104 185.908ZM35.7373 187.339C36.3915 188.073 37.2008 188.653 38.1066 189.036C39.0926 189.267 40.1178 189.278 41.1086 189.068C42.0375 188.944 42.9988 188.816 43.4398 189.137C43.891 189.465 44.066 190.426 44.2345 191.356C44.3375 192.357 44.6614 193.322 45.1828 194.182C45.8354 194.935 46.6468 195.533 47.5586 195.934C48.3982 196.385 49.2669 196.85 49.4431 197.394C49.6084 197.892 49.1919 198.755 48.7917 199.591C48.2778 200.481 47.9678 201.475 47.884 202.499C47.9677 203.524 48.2777 204.518 48.7917 205.408C49.1913 206.242 49.6032 207.105 49.4431 207.605C49.2669 208.149 48.3986 208.615 47.5586 209.065C46.6468 209.466 45.8354 210.064 45.1828 210.817C44.6614 211.678 44.3375 212.643 44.2345 213.644C44.0654 214.573 43.8908 215.535 43.4398 215.863C42.9988 216.183 42.0383 216.055 41.1086 215.931C40.1178 215.72 39.0926 215.731 38.1066 215.964C37.2009 216.347 36.3916 216.926 35.7373 217.66C35.0433 218.328 34.3254 219.017 33.7308 219.017C33.1362 219.017 32.4183 218.328 31.7243 217.661C31.0699 216.927 30.2607 216.347 29.355 215.964C28.369 215.732 27.3438 215.721 26.353 215.932C25.4234 216.056 24.4627 216.184 24.0218 215.863C23.5705 215.535 23.3956 214.574 23.227 213.644C23.1241 212.644 22.8002 211.678 22.2787 210.818C21.6262 210.065 20.8148 209.466 19.9029 209.065C19.063 208.615 18.1947 208.15 18.0184 207.605C17.8538 207.107 18.2696 206.243 18.6699 205.409C19.1838 204.519 19.4939 203.525 19.5775 202.5C19.4938 201.475 19.1838 200.482 18.6699 199.592C18.2696 198.756 17.8603 197.894 18.0184 197.395C18.1947 196.851 19.0629 196.386 19.9029 195.935C20.8147 195.534 21.6262 194.936 22.2787 194.183C22.8002 193.323 23.1242 192.357 23.227 191.356C23.3962 190.426 23.5708 189.465 24.0218 189.137C24.4627 188.816 25.4233 188.945 26.353 189.069C27.3438 189.279 28.3689 189.268 29.355 189.036C30.2607 188.653 31.07 188.074 31.7243 187.34C32.4184 186.674 33.1362 185.984 33.7308 185.984C34.3254 185.984 35.0433 186.673 35.7373 187.339ZM30.766 195.541L30.1088 199.701L26.3095 201.517C26.1426 201.597 26.0013 201.721 25.9017 201.877C25.8021 202.033 25.7481 202.214 25.7459 202.399C25.7505 202.583 25.8028 202.762 25.8978 202.919C25.9928 203.076 26.1271 203.206 26.2875 203.295L30.0404 205.206L30.5936 209.38C30.6179 209.563 30.6931 209.736 30.8106 209.879C30.928 210.022 31.0832 210.129 31.2584 210.189C31.4336 210.248 31.622 210.257 31.8021 210.215C31.9823 210.173 32.1471 210.081 32.2779 209.951L35.2554 206.972L39.3969 207.735C39.5788 207.769 39.7664 207.751 39.9386 207.683C40.1108 207.615 40.2606 207.501 40.3712 207.353C40.4817 207.204 40.5486 207.028 40.5642 206.844C40.5798 206.659 40.5435 206.474 40.4595 206.309L38.546 202.558L40.5524 198.856C40.6407 198.693 40.6816 198.509 40.6706 198.324C40.6595 198.139 40.597 197.961 40.4901 197.81C40.3831 197.659 40.236 197.541 40.0654 197.469C39.8948 197.397 39.7074 197.374 39.5246 197.404L35.3658 198.063L32.4636 195.012C32.3362 194.878 32.1738 194.782 31.9947 194.736C31.8156 194.689 31.6271 194.693 31.4504 194.748C31.2737 194.803 31.1159 194.907 30.9949 195.047C30.8739 195.187 30.7945 195.358 30.7657 195.54L30.766 195.541ZM34.2877 199.808C34.3984 199.925 34.5358 200.012 34.6881 200.064C34.8404 200.116 35.003 200.129 35.1618 200.104L37.8513 199.678L36.5537 202.072C36.4772 202.213 36.4362 202.371 36.4343 202.532C36.4324 202.693 36.4696 202.852 36.5427 202.995L37.7799 205.421L35.102 204.927C34.944 204.898 34.7813 204.908 34.6279 204.955C34.4745 205.003 34.335 205.087 34.2214 205.201L32.2956 207.128L31.938 204.428C31.9167 204.269 31.8571 204.117 31.7642 203.986C31.6713 203.854 31.5479 203.748 31.4047 203.674L28.9779 202.439L31.435 201.265C31.58 201.195 31.706 201.092 31.802 200.963C31.898 200.834 31.9613 200.684 31.9864 200.525L32.4119 197.835L34.2877 199.808Z" fill="white"/>
<path d="M149.409 346.393L145.663 348.177L148.772 354.575L146.627 355.479L139.073 339.883L144.289 337.359C146.027 336.472 147.654 336.269 148.894 336.626C150.27 336.978 151.259 337.889 152.003 339.489C152.448 340.423 152.626 341.503 152.391 342.464C152.155 343.425 151.784 344.392 150.994 345.104L157.86 349.989L157.866 350.124L155.862 351.158L149.409 346.393ZM144.783 346.582L147.996 345.091C149.063 344.504 149.717 343.797 150.094 342.966C150.47 342.135 150.439 341.321 149.994 340.387C149.549 339.454 148.842 338.803 148.015 338.565C147.189 338.327 146.241 338.502 145.169 338.954L141.956 340.445L144.783 346.582Z" fill="white"/>
<path d="M174.601 336.403L163.161 339.857L162.685 338.112L174.125 334.658L174.601 336.403Z" fill="white"/>
<path d="M191.653 334.093L187.581 334.532L188.399 341.569L186.09 341.8L184.056 324.479L189.756 323.837C191.656 323.624 193.299 323.828 194.42 324.598C195.54 325.368 196.268 326.562 196.472 328.321C196.65 329.402 196.415 330.363 195.902 331.2C195.389 332.037 194.735 332.743 193.668 333.331L198.568 340.201L198.573 340.336L196.129 340.572L191.653 334.093ZM187.376 332.773L190.904 332.356C191.987 332.176 192.929 331.865 193.447 331.164C194.102 330.458 194.342 329.632 194.169 328.687C193.991 327.607 193.687 326.804 192.986 326.288C192.284 325.773 191.326 325.677 190.102 325.727L186.574 326.143L187.376 332.773Z" fill="white"/>
<path d="M205.658 340.743C203.883 340.68 202.502 340.192 201.366 339.015C200.23 337.838 199.763 336.362 199.69 334.461L199.674 334.054C199.627 332.832 199.988 331.594 200.359 330.627C200.866 329.654 201.515 328.812 202.447 328.23C203.378 327.648 204.32 327.337 205.278 327.434C206.916 327.503 208.298 327.99 209.157 329.042C210.151 330.089 210.487 331.707 210.565 333.743L210.602 334.694L201.878 334.643C201.925 335.865 202.239 336.94 202.951 337.727C203.663 338.513 204.631 338.881 205.72 338.837C206.537 338.803 207.212 338.64 207.745 338.346C208.279 338.052 208.808 337.623 209.195 337.063L210.598 338.093C209.441 339.908 207.835 340.654 205.658 340.743ZM205.477 329.057C204.525 329.096 203.855 329.396 203.196 329.967C202.541 330.673 202.165 331.504 202.076 332.732L208.618 332.736L208.613 332.6C208.571 331.514 208.262 330.575 207.697 330.054C207.131 329.533 206.299 329.16 205.477 329.057Z" fill="white"/>
<path d="M220.666 338.105C220.781 337.556 220.624 337.019 220.2 336.628C219.776 336.238 219.079 335.858 217.975 335.496C216.87 335.133 216.038 334.759 215.478 334.374C214.918 333.989 214.352 333.469 214.201 333.067C213.907 332.535 213.886 331.992 213.86 331.313C213.954 330.222 214.467 329.385 215.534 328.797C216.466 328.215 217.68 327.893 219.052 328.109C220.559 328.319 221.669 328.818 222.517 329.599C223.37 330.516 223.679 331.455 223.591 332.682L221.403 332.5C221.518 331.951 221.224 331.419 220.795 330.893C220.366 330.367 219.675 330.123 218.989 330.015C218.167 329.913 217.492 330.077 217.095 330.365C216.561 330.659 216.304 331.077 216.325 331.62C216.21 332.169 216.498 332.565 216.781 332.825C217.2 333.08 217.896 333.459 219 333.822C220.105 334.185 220.937 334.558 221.633 334.938C222.33 335.317 222.759 335.844 223.052 336.375C223.345 336.907 223.366 337.45 223.393 338.129C223.299 339.221 222.655 340.199 221.724 340.781C220.792 341.363 219.436 341.554 218.07 341.474C216.976 341.383 216.149 341.145 215.448 340.63C214.746 340.115 214.181 339.594 213.746 338.932C213.312 338.27 213.28 337.456 213.254 336.777L215.442 336.959C215.332 337.644 215.631 338.311 216.196 338.832C216.761 339.353 217.452 339.596 218.274 339.698C219.096 339.801 219.771 339.637 220.305 339.343C220.294 339.072 220.551 338.653 220.666 338.105Z" fill="white"/>
<path d="M237.015 338.268C236.544 340.191 235.78 341.582 234.728 342.577C233.676 343.572 232.326 343.899 230.813 343.553C229.301 343.207 228.18 342.437 227.458 341.379L226.056 347.419L223.858 346.965L227.68 329.54L229.607 330.005L229.387 331.374C230.444 330.515 231.795 330.188 233.444 330.528C234.956 330.874 236.077 331.644 236.674 332.979C237.27 334.314 237.334 335.943 237.004 337.996L237.015 338.268ZM234.806 337.543C235.161 336.168 235.114 334.947 234.669 334.013C234.224 333.079 233.517 332.429 232.418 332.202C231.047 331.986 229.968 332.302 229.053 333.291L227.787 339.326C228.248 340.667 229.096 341.448 230.331 341.669C231.431 341.896 232.242 341.727 233.032 341.015C233.958 340.297 234.461 339.188 234.806 337.543Z" fill="white"/>
<path d="M242.924 347.018C241.265 346.406 240.14 345.501 239.401 344.036C238.663 342.57 238.736 340.936 239.348 339.143L239.468 338.73C239.829 337.492 240.473 336.514 241.257 335.666C242.042 334.818 242.979 334.372 243.921 334.061C244.999 333.745 245.957 333.842 246.92 334.075C248.573 334.551 249.563 335.462 250.165 336.933C250.762 338.268 250.689 339.902 249.946 341.836L249.705 342.662L241.421 339.874C241.06 341.112 241.102 342.198 241.547 343.132C241.992 344.065 242.698 344.716 243.803 345.079C244.494 345.322 245.179 345.43 245.854 345.267C246.268 345.386 246.801 345.092 247.466 344.657L248.476 346.111C246.755 347.405 244.991 347.613 242.924 347.018ZM246.308 335.867C245.481 335.629 244.664 335.662 243.864 336.103C243.063 336.544 242.409 337.25 241.907 338.359L248.119 340.415L248.114 340.28C248.344 339.183 248.443 338.227 248.009 337.565C247.841 336.756 247.14 336.241 246.308 335.867Z" fill="white"/>
<path d="M255.286 349.794C255.982 350.173 256.798 350.14 257.474 349.976C258.149 349.812 258.813 349.377 259.059 348.687L261.001 349.56C260.619 350.255 260.09 350.684 259.426 351.12C258.761 351.555 257.95 351.724 257.003 351.899C256.187 351.932 255.229 351.835 254.533 351.456C252.869 350.708 251.874 349.662 251.408 348.185C250.942 346.709 251.151 345.069 251.894 343.135L252.019 342.858C252.521 341.75 253.165 340.772 253.955 340.06C254.745 339.348 255.682 338.901 256.629 338.727C257.576 338.552 258.675 338.779 259.779 339.141C261.166 339.764 262.014 340.545 262.605 341.745C263.197 342.944 263.108 344.171 262.611 345.415L260.67 344.543C260.91 343.717 260.884 343.039 260.58 342.235C260.282 341.568 259.717 341.047 259.021 340.668C258.047 340.164 256.959 340.209 256.163 340.785C255.227 341.231 254.583 342.209 253.956 343.595L253.835 344.007C253.208 345.393 253.114 346.484 253.292 347.564C253.47 348.645 254.177 349.295 255.286 349.794Z" fill="white"/>
<path d="M271.308 341.401L269.915 344.178L272.005 345.316L271.246 346.843L269.156 345.705L265.476 352.792C265.22 353.211 265.099 353.623 265.251 354.025C265.262 354.297 265.55 354.693 266.1 354.807C266.377 354.931 266.655 355.056 267.069 355.175L266.179 356.843C265.629 356.73 265.074 356.481 264.519 356.231C263.681 355.722 263.115 355.201 262.947 354.392C262.779 353.582 262.884 352.762 263.392 351.789L267.072 344.702L264.982 343.564L265.741 342.037L267.967 343.17L269.359 340.393L271.308 341.401Z" fill="white"/>
<path d="M219.902 362.013C217.978 360.07 215.453 359.01 212.712 359.009C210.463 359.008 208.315 359.749 206.517 361.09C204.731 359.712 202.626 359.005 200.342 359.004C197.636 359.003 195.065 360.062 193.123 362.003C191.181 363.945 190.115 366.488 190.102 369.243C190.09 371.962 191.132 374.506 192.986 376.414L204.353 387.897C204.878 388.427 205.579 388.71 206.352 388.71C207.125 388.71 207.795 388.428 208.359 387.898L219.799 376.494L219.834 376.459C221.741 374.552 222.772 371.974 222.785 369.29C222.833 366.5 221.791 363.921 219.902 362.013ZM205.659 386.626C205.449 386.414 205.345 386.166 205.346 385.884C205.348 385.637 205.419 385.425 205.56 385.248L205.666 385.142L211.28 379.529C211.457 379.352 211.528 379.14 211.529 378.893C211.53 378.646 211.426 378.434 211.286 378.257C210.971 377.939 210.374 377.939 210.056 378.257L204.407 383.906C204.018 384.294 203.316 384.294 202.931 383.905C202.721 383.693 202.617 383.446 202.618 383.163C202.619 382.881 202.726 382.598 202.938 382.422L208.587 376.773C208.764 376.596 208.835 376.384 208.836 376.137C208.837 375.89 208.733 375.678 208.593 375.501C208.278 375.183 207.681 375.183 207.363 375.501L201.714 381.15C201.325 381.538 200.623 381.538 200.238 381.149C199.818 380.725 199.821 380.054 200.245 379.63L205.894 373.981C206.071 373.805 206.142 373.593 206.143 373.346C206.144 373.099 206.04 372.887 205.9 372.71C205.585 372.392 204.988 372.392 204.67 372.71L199.021 378.359C198.633 378.747 197.93 378.747 197.545 378.358L197.51 378.323C197.125 377.899 197.128 377.263 197.517 376.839L201.366 372.991C202.42 373.027 203.406 372.603 204.218 371.791L206.654 369.355C207.669 370.203 208.756 370.733 209.81 370.875C211.214 371.052 212.552 370.593 213.611 369.499C213.965 369.146 213.967 368.581 213.617 368.263C213.302 367.945 212.705 367.944 212.387 368.262C211.681 368.968 210.907 369.25 210.064 369.144C209.186 369.038 208.204 368.472 207.295 367.519C206.98 367.201 206.383 367.2 206.065 367.518L203.029 370.554C202.57 371.013 202.041 371.26 201.444 371.26C201.374 371.26 201.303 371.26 201.268 371.26C201.233 371.26 201.163 371.225 201.093 371.225C200.636 371.154 200.215 370.942 199.936 370.659C199.656 370.377 199.726 370.306 199.762 370.271C200.715 369.282 206.718 363.28 206.753 363.245C208.342 361.656 210.454 360.774 212.703 360.774C214.953 360.775 217.057 361.659 218.631 363.249C220.205 364.839 221.074 366.958 221.063 369.219C221.052 371.479 220.164 373.598 218.575 375.187L207.17 386.626C206.782 387.015 206.079 387.014 205.659 386.626ZM205.211 362.326C203.975 363.562 199.35 368.187 198.502 369.034C197.69 369.846 197.755 371.012 198.665 371.93C198.874 372.142 199.155 372.354 199.435 372.496L196.293 375.638C196.045 375.885 195.833 376.203 195.691 376.521L194.397 375.249L194.362 375.213C192.788 373.623 191.919 371.504 191.93 369.244C191.94 366.983 192.829 364.864 194.418 363.275C196.007 361.687 198.119 360.804 200.368 360.805L200.37 360.452L200.368 360.805C202.126 360.771 203.775 361.301 205.211 362.326Z" fill="white"/>
<path d="M214.561 38.8087C214.393 38.8087 214.23 38.7604 214.089 38.6683C213.897 38.5417 213.765 38.3479 213.719 38.1233C213.671 37.8976 213.715 37.6677 213.841 37.4756C213.885 37.4093 213.938 37.3292 214.001 37.2353C214.218 36.9098 214.547 36.4181 214.895 35.8447C215.271 35.2246 215.786 34.3117 216.098 33.4842C216.286 32.9942 216.397 32.5206 216.394 32.2184C216.393 31.991 216.344 31.8954 216.314 31.8584L216.311 31.8549C216.278 31.8179 216.223 31.7568 215.962 31.7068C215.494 31.6259 215.179 31.1798 215.26 30.7122C215.331 30.298 215.687 29.9966 216.108 29.9966C216.157 29.9966 216.206 30.0009 216.254 30.0095C216.853 30.1077 217.358 30.3884 217.674 30.8026C217.969 31.1824 218.117 31.6586 218.116 32.2184C218.115 32.6437 218.037 33.0916 217.87 33.6272C217.736 34.056 217.553 34.5107 217.31 35.0187C216.958 35.7507 216.502 36.5499 215.916 37.461C215.726 37.7546 215.556 38.0095 215.431 38.1955C215.371 38.2851 215.32 38.3625 215.282 38.4202C215.122 38.6641 214.853 38.8087 214.561 38.8087Z" fill="white"/>
<path d="M217.868 45.7236H209.28C208.84 45.7236 208.473 45.3947 208.424 44.958C208.394 44.6825 208.388 44.3225 208.387 43.8679C208.387 43.061 208.419 41.9612 208.463 41.1949C208.479 40.9287 208.492 40.766 208.508 40.6342V40.6333C208.563 40.183 208.698 39.6326 208.919 38.9506C209.131 38.3013 209.412 37.5771 209.733 36.8537C210.256 35.679 211.116 33.9697 212.246 32.5023C213.006 31.524 213.701 30.8756 214.434 30.4597C214.873 30.2134 215.314 30.0696 215.744 30.0325C215.285 28.4015 215.018 26.6404 215.014 25.1997C215.014 24.6297 215.055 24.1328 215.138 23.6807C215.138 23.6798 215.138 23.6798 215.138 23.6798C215.225 23.2105 215.413 22.7136 215.682 22.2434C216.013 21.6716 216.395 21.2496 216.851 20.9534C217.121 20.7786 217.558 20.5702 218.103 20.5702H218.109C218.297 20.5702 218.487 20.5943 218.674 20.6434L218.676 20.6442C219.042 20.7441 219.351 20.9431 219.679 21.2893C219.924 21.5519 220.147 21.8697 220.383 22.2882C220.781 23.0004 221.155 23.9063 221.525 25.0594C222.182 27.1167 222.713 29.6502 222.943 31.8358C222.945 31.8642 222.947 31.8935 222.948 31.9236C222.948 32.1355 222.871 32.3395 222.728 32.4989C222.585 32.659 222.389 32.759 222.176 32.7813C222.146 32.7848 222.115 32.7865 222.085 32.7865C221.643 32.7865 221.276 32.4549 221.23 32.015C220.953 29.3377 220.178 26.0851 219.348 24.1062C219.071 23.4396 218.766 22.8799 218.51 22.569C218.373 22.3959 218.256 22.3167 218.235 22.3098C218.235 22.3089 218.234 22.3089 218.234 22.3089C218.189 22.2977 218.149 22.2917 218.107 22.2917C218 22.2934 217.902 22.3262 217.782 22.4028C217.646 22.4889 217.499 22.6327 217.367 22.8084C217.097 23.158 216.884 23.6825 216.833 23.9873L216.832 23.9908C216.769 24.3283 216.737 24.7469 216.737 25.1998C216.73 27.1073 217.309 29.5788 217.858 30.936C217.929 31.1142 217.938 31.3149 217.883 31.5C217.828 31.6852 217.711 31.8488 217.554 31.959C217.408 32.0615 217.237 32.1157 217.059 32.1157C216.848 32.1157 216.644 32.04 216.488 31.9004C216.463 31.8781 216.364 31.8014 216.12 31.7601L216.111 31.7584C216.06 31.7489 216.009 31.7463 215.955 31.7454C215.654 31.7454 215.244 31.9349 214.832 32.2656C214.372 32.6298 213.865 33.1887 213.364 33.8845C212.474 35.116 211.555 36.8469 210.905 38.5167C210.542 39.4372 210.274 40.3492 210.218 40.8383L210.218 40.8426C210.21 40.9013 210.196 41.0683 210.183 41.2957C210.169 41.5204 210.157 41.7883 210.146 42.0716C210.123 42.7002 210.109 43.3547 210.109 43.868C210.109 43.9127 210.109 43.9575 210.109 44.0014H217.041C217.108 43.0877 217.275 42.2817 217.548 41.535C217.898 40.574 218.392 39.8325 218.785 39.2935C218.946 39.0705 219.207 38.9379 219.482 38.9379C219.664 38.9379 219.839 38.9946 219.987 39.1023C220.173 39.2375 220.296 39.4373 220.332 39.6646C220.368 39.8911 220.314 40.1193 220.178 40.3053C219.815 40.8056 219.441 41.3722 219.165 42.1265C218.876 42.9179 218.739 43.7895 218.729 44.8684C218.726 45.3404 218.34 45.7236 217.868 45.7236ZM221.755 37.032C221.652 37.032 221.549 37.0139 221.452 36.9768C221.008 36.8099 220.782 36.312 220.95 35.8677C220.95 35.8668 220.95 35.8668 220.95 35.8668C221.076 35.5336 221.4 35.3096 221.755 35.3096C221.859 35.3096 221.961 35.3286 222.059 35.3648C222.503 35.5327 222.729 36.0296 222.561 36.4748C222.436 36.8081 222.112 37.032 221.755 37.032Z" fill="white"/>
<path d="M219.614 50.8904H208.419C208.192 50.8904 207.97 50.7983 207.81 50.638C207.65 50.4779 207.558 50.2558 207.558 50.0293V44.8624C207.558 44.6359 207.65 44.4137 207.81 44.2535C207.97 44.0934 208.192 44.0012 208.419 44.0012H219.614C219.84 44.0012 220.062 44.0933 220.222 44.2535C220.383 44.4137 220.475 44.6359 220.475 44.8624V50.0293C220.475 50.2558 220.383 50.4779 220.222 50.638C220.062 50.7983 219.84 50.8904 219.614 50.8904ZM209.28 49.1681H218.753V45.7235H209.28V49.1681Z" fill="white"/>
<path d="M217.03 48.3072C216.804 48.3072 216.581 48.2151 216.421 48.0548C216.261 47.8947 216.169 47.6725 216.169 47.4461C216.169 47.2196 216.261 46.9974 216.421 46.8372C216.582 46.677 216.804 46.5849 217.03 46.5849C217.257 46.5849 217.479 46.677 217.639 46.8372C217.799 46.9974 217.891 47.2196 217.891 47.4461C217.891 47.6725 217.799 47.8947 217.639 48.0548C217.479 48.2151 217.257 48.3072 217.03 48.3072Z" fill="white"/>
<path d="M195.388 38.8086H195.387C195.096 38.8086 194.826 38.6639 194.666 38.4201C194.628 38.3616 194.577 38.2841 194.516 38.1945C194.304 37.8776 193.949 37.3463 193.58 36.7375C192.97 35.73 192.531 34.8654 192.239 34.0938C191.96 33.3497 191.835 32.7711 191.832 32.2182C191.83 31.6585 191.979 31.1823 192.273 30.8025C192.59 30.3883 193.094 30.1067 193.693 30.0094C193.694 30.0094 193.694 30.0094 193.695 30.0094C193.743 30.0008 193.792 29.9973 193.84 29.9973C194.26 29.9973 194.617 30.2979 194.688 30.7121C194.769 31.1805 194.453 31.6266 193.985 31.7067C193.724 31.7566 193.669 31.8186 193.636 31.8548L193.634 31.8583C193.604 31.8953 193.555 31.9909 193.554 32.2182C193.553 32.449 193.612 32.7676 193.721 33.1137C193.828 33.4565 193.986 33.8475 194.191 34.2738C194.507 34.9325 194.941 35.6912 195.48 36.5274C195.661 36.8082 195.819 37.045 195.947 37.2353C196.009 37.3283 196.062 37.4084 196.106 37.4756C196.367 37.8725 196.256 38.4073 195.859 38.6674C195.718 38.7604 195.555 38.8086 195.388 38.8086Z" fill="white"/>
<path d="M200.668 45.7238H192.08C191.608 45.7238 191.222 45.3406 191.219 44.8686C191.209 43.7896 191.071 42.9182 190.782 42.1258C190.507 41.3714 190.132 40.8048 189.769 40.3045C189.49 39.9204 189.576 39.3813 189.96 39.1023C190.108 38.9947 190.283 38.9379 190.465 38.9379C190.741 38.9379 191.001 39.0705 191.163 39.2926C191.555 39.8318 192.05 40.5741 192.4 41.5351C192.673 42.2808 192.839 43.0877 192.907 44.0015H199.839C199.839 43.9576 199.839 43.9136 199.839 43.8689C199.839 43.0069 199.801 41.9003 199.765 41.2958C199.752 41.0701 199.738 40.903 199.73 40.8427L199.73 40.8384C199.693 40.5267 199.567 40.0203 199.391 39.4847C199.198 38.8922 198.938 38.2239 198.64 37.5531C197.968 36.0349 197.129 34.5777 196.337 33.5547C195.768 32.8133 195.161 32.2328 194.671 31.9624C194.415 31.8186 194.183 31.7454 193.982 31.7454H193.98C193.931 31.7454 193.883 31.7497 193.837 31.7583L193.828 31.7601C193.584 31.8014 193.485 31.878 193.46 31.9004C193.304 32.0399 193.1 32.1157 192.889 32.1157C192.711 32.1157 192.54 32.0615 192.394 31.9598C192.237 31.8488 192.12 31.686 192.065 31.5C192.01 31.3148 192.019 31.1142 192.09 30.9359C192.639 29.5779 193.218 27.1064 193.211 25.1998C193.211 24.746 193.179 24.3283 193.116 23.9907L193.115 23.9873C193.078 23.7763 192.958 23.4198 192.773 23.1012C192.6 22.7955 192.368 22.5276 192.166 22.4028C192.045 22.3261 191.947 22.2926 191.841 22.2917C191.799 22.2917 191.759 22.2977 191.714 22.3089C191.714 22.3089 191.713 22.3089 191.713 22.3098C191.71 22.3106 191.698 22.3167 191.679 22.3296C191.658 22.3434 191.602 22.3847 191.526 22.4665C191.387 22.6146 191.223 22.8506 191.066 23.1313C190.734 23.7221 190.387 24.5703 190.063 25.5839C189.447 27.5051 188.932 29.9697 188.718 32.015V32.0158C188.672 32.455 188.304 32.7857 187.862 32.7857C187.832 32.7857 187.802 32.7848 187.772 32.7814C187.33 32.7349 186.998 32.3663 187 31.9228C187 31.8935 187.002 31.8643 187.005 31.835C187.154 30.4347 187.431 28.8459 187.786 27.3596C188.169 25.757 188.625 24.3249 189.106 23.2192C189.5 22.3287 189.858 21.7337 190.269 21.2893C190.597 20.9431 190.906 20.7442 191.272 20.6443L191.274 20.6434C191.461 20.5944 191.65 20.5703 191.838 20.5703H191.845C192.39 20.5703 192.827 20.7787 193.097 20.9535C193.413 21.1576 193.694 21.4245 193.956 21.7716C194.382 22.3442 194.685 23.022 194.81 23.6799C194.81 23.6799 194.81 23.6799 194.81 23.6807C194.892 24.1311 194.934 24.628 194.934 25.1998C194.929 26.6396 194.663 28.4016 194.204 30.0334C194.859 30.0903 195.508 30.3796 196.188 30.9178C196.785 31.3932 197.371 32.0339 197.98 32.877C198.501 33.5996 199.009 34.4323 199.489 35.3519C199.916 36.1666 200.316 37.0441 200.648 37.8898C201.087 39.0221 201.353 39.9437 201.439 40.6283C201.439 40.6291 201.439 40.6291 201.439 40.63C201.455 40.761 201.468 40.9245 201.485 41.195C201.498 41.4284 201.511 41.7091 201.522 42.0071C201.547 42.6555 201.561 43.3341 201.561 43.8689C201.56 44.3218 201.553 44.6801 201.524 44.9574C201.476 45.394 201.107 45.7238 200.668 45.7238ZM188.193 37.0321C187.836 37.0321 187.512 36.8082 187.386 36.4742C187.219 36.0298 187.444 35.5321 187.889 35.365C187.986 35.328 188.089 35.309 188.192 35.309C188.548 35.309 188.872 35.5338 188.998 35.8671C189.165 36.3114 188.94 36.8091 188.496 36.9771C188.398 37.0132 188.296 37.0321 188.193 37.0321Z" fill="white"/>
<path d="M201.53 50.8906H190.335C190.108 50.8906 189.886 50.7984 189.726 50.6382C189.566 50.4781 189.474 50.2559 189.474 50.0294V44.8625C189.474 44.636 189.566 44.4138 189.726 44.2537C189.886 44.0935 190.108 44.0013 190.335 44.0013H201.53C201.756 44.0013 201.978 44.0934 202.139 44.2537C202.299 44.4139 202.391 44.636 202.391 44.8625V50.0294C202.391 50.2559 202.299 50.4781 202.139 50.6382C201.978 50.7984 201.756 50.8906 201.53 50.8906ZM191.196 49.1683H200.669V45.7236H191.196V49.1683Z" fill="white"/>
<path d="M192.918 48.3072C192.691 48.3072 192.469 48.2151 192.309 48.0548C192.149 47.8947 192.057 47.6725 192.057 47.4461C192.057 47.2196 192.149 46.9974 192.309 46.8372C192.469 46.677 192.691 46.5849 192.918 46.5849C193.144 46.5849 193.366 46.677 193.527 46.8372C193.687 46.9975 193.779 47.2196 193.779 47.4461C193.779 47.6725 193.687 47.8947 193.527 48.0548C193.366 48.2151 193.144 48.3072 192.918 48.3072Z" fill="white"/>
<path d="M205.514 27.6111H205.513C205.218 27.6111 204.939 27.4561 204.782 27.2064C204.256 26.3598 203.522 25.4711 202.746 24.5316C202.677 24.4481 202.609 24.3654 202.54 24.2827C201.644 23.1891 200.857 22.1979 200.311 21.1447C199.881 20.3103 199.672 19.5507 199.671 18.8222C199.671 18.036 199.825 17.2738 200.128 16.5556C200.422 15.8624 200.841 15.2398 201.376 14.705C201.911 14.1711 202.533 13.7509 203.227 13.4581C203.945 13.1541 204.707 12.9999 205.493 12.9999C206.278 12.9999 207.04 13.1541 207.757 13.4581C208.449 13.7509 209.071 14.1711 209.606 14.7059C210.14 15.2407 210.559 15.8633 210.853 16.5565C211.156 17.2738 211.31 18.036 211.31 18.8222C211.308 19.5507 211.106 20.2844 210.673 21.1327C210.351 21.7613 209.919 22.4166 209.275 23.258C208.919 23.7221 208.541 24.1872 208.175 24.6367C207.438 25.5435 206.742 26.3995 206.244 27.2046C206.088 27.4552 205.808 27.6111 205.514 27.6111ZM205.493 14.7222C204.399 14.7222 203.369 15.1494 202.594 15.9235C201.819 16.6986 201.393 17.7285 201.393 18.8222C201.391 19.2614 201.542 19.7772 201.842 20.3559C202.107 20.8726 202.512 21.4771 203.078 22.2039C203.405 22.625 203.751 23.0435 204.117 23.487C204.585 24.0528 205.068 24.6384 205.51 25.2326C205.924 24.6754 206.375 24.12 206.812 23.5835C206.916 23.456 207.019 23.3286 207.122 23.202C208.028 22.0868 208.719 21.174 209.14 20.3473C209.439 19.766 209.59 19.2528 209.588 18.8222C209.588 17.7285 209.162 16.6986 208.387 15.9227C207.612 15.1494 206.585 14.7222 205.493 14.7222Z" fill="white"/>
<path d="M202.299 31.7575V31.7532V31.7575C202.108 31.7575 201.927 31.6963 201.775 31.5801C201.398 31.2907 201.327 30.7491 201.616 30.3727C202.002 29.8716 202.415 29.3686 202.815 28.883C203.564 27.9736 204.271 27.115 204.783 26.2935C204.939 26.0437 205.218 25.8887 205.513 25.8887H205.514C205.808 25.8896 206.088 26.0446 206.244 26.2952C206.735 27.0892 207.423 27.9348 208.151 28.8304C208.547 29.3161 208.956 29.819 209.338 30.3219C209.625 30.7 209.551 31.2408 209.173 31.5284C209.022 31.6429 208.842 31.7032 208.653 31.7032C208.381 31.7032 208.131 31.5792 207.966 31.3631C207.615 30.8981 207.239 30.4365 206.84 29.9482C206.394 29.4005 205.932 28.8347 205.511 28.2655C205.069 28.858 204.587 29.4418 204.121 30.0068C203.717 30.4959 203.337 30.9575 202.983 31.4208C202.818 31.6352 202.569 31.7575 202.299 31.7575Z" fill="white"/>
<path d="M364.105 213.008C364.413 212.018 364.387 210.956 364.032 209.981L367.963 207.897C367.966 207.895 367.969 207.897 367.972 207.897L370.801 207.897C371.007 207.897 371.204 207.816 371.35 207.672C371.496 207.528 371.578 207.332 371.578 207.128C371.578 206.924 371.496 206.729 371.35 206.585C371.204 206.441 371.007 206.36 370.801 206.36L364.773 206.36L358.347 203.059C358.584 202.31 358.634 201.516 358.491 200.745C358.348 199.973 358.018 199.248 357.528 198.631C357.039 198.014 356.405 197.525 355.681 197.205C354.957 196.885 354.166 196.744 353.375 196.795L346.726 197.218C346.722 197.218 346.718 197.219 346.713 197.219C346.689 197.221 346.665 197.224 346.641 197.229C346.635 197.23 346.628 197.231 346.622 197.232C346.593 197.238 346.564 197.245 346.536 197.254C346.53 197.256 346.524 197.259 346.517 197.261C346.495 197.269 346.474 197.278 346.452 197.287C346.444 197.291 346.436 197.295 346.428 197.299C346.407 197.309 346.387 197.32 346.367 197.333C346.362 197.336 346.356 197.339 346.35 197.342C346.325 197.359 346.3 197.377 346.276 197.396L346.276 197.397C346.253 197.416 346.232 197.436 346.212 197.458C346.206 197.463 346.202 197.469 346.196 197.474C346.181 197.491 346.167 197.509 346.153 197.527C346.148 197.535 346.142 197.541 346.137 197.549C346.123 197.569 346.11 197.59 346.098 197.612C346.095 197.616 346.093 197.62 346.09 197.624C346.09 197.625 346.089 197.626 346.089 197.627C346.088 197.628 346.087 197.63 346.087 197.631C346.073 197.657 346.061 197.683 346.051 197.71C346.049 197.716 346.047 197.722 346.045 197.728C346.037 197.751 346.029 197.774 346.024 197.798C346.022 197.805 346.02 197.813 346.018 197.821C346.013 197.844 346.008 197.868 346.006 197.891C346.005 197.897 346.004 197.904 346.004 197.91C345.998 197.969 345.999 198.029 346.007 198.088C346.008 198.097 346.01 198.105 346.011 198.114C346.015 198.134 346.019 198.155 346.025 198.176C346.027 198.185 346.029 198.194 346.032 198.203C346.039 198.228 346.048 198.253 346.058 198.277C346.059 198.28 346.06 198.283 346.062 198.286C346.073 198.313 346.087 198.339 346.102 198.365C346.103 198.368 346.104 198.371 346.106 198.374L349.479 204.074C350.037 205.011 350.898 205.734 351.923 206.127C352.947 206.519 354.076 206.559 355.126 206.238L355.13 206.237C356.148 205.923 357.034 205.288 357.653 204.429L364.226 207.805C364.336 207.864 364.459 207.895 364.583 207.897L364.69 207.897L363.284 208.639C362.798 208.013 362.163 207.516 361.436 207.19C360.71 206.864 359.914 206.72 359.117 206.77C358.321 206.82 357.55 207.062 356.871 207.476C356.191 207.89 355.625 208.463 355.222 209.144L351.852 214.84C351.85 214.844 351.848 214.847 351.846 214.85C351.834 214.872 351.822 214.895 351.812 214.918C351.81 214.923 351.807 214.927 351.806 214.932C351.794 214.959 351.784 214.987 351.776 215.015C351.774 215.022 351.772 215.029 351.771 215.036C351.765 215.058 351.76 215.08 351.756 215.103C351.755 215.112 351.754 215.12 351.752 215.128C351.749 215.152 351.747 215.176 351.746 215.201C351.746 215.206 351.746 215.211 351.745 215.216C351.745 215.247 351.746 215.277 351.749 215.308C351.749 215.31 351.75 215.313 351.751 215.316C351.754 215.342 351.758 215.369 351.764 215.395C351.766 215.403 351.768 215.41 351.77 215.418C351.776 215.44 351.782 215.462 351.79 215.483C351.793 215.491 351.795 215.499 351.798 215.507C351.808 215.532 351.82 215.557 351.832 215.581C351.834 215.584 351.835 215.587 351.836 215.589L351.837 215.59L351.838 215.592C351.852 215.618 351.868 215.644 351.885 215.668C351.89 215.674 351.894 215.68 351.899 215.686C351.913 215.705 351.928 215.723 351.943 215.74C351.949 215.746 351.954 215.752 351.96 215.758C351.977 215.776 351.994 215.792 352.013 215.808C352.017 215.812 352.021 215.816 352.026 215.819C352.049 215.839 352.074 215.857 352.1 215.873C352.102 215.874 352.104 215.875 352.105 215.877C352.128 215.891 352.152 215.904 352.176 215.916C352.184 215.92 352.192 215.923 352.2 215.927C352.22 215.936 352.24 215.944 352.261 215.951C352.269 215.954 352.277 215.957 352.286 215.96C352.314 215.969 352.343 215.976 352.372 215.982C352.374 215.982 352.376 215.982 352.378 215.983C352.406 215.988 352.434 215.992 352.462 215.994C352.466 215.994 352.469 215.995 352.472 215.995L359.118 216.419C360.218 216.497 361.311 216.202 362.218 215.582C363.125 214.961 363.791 214.053 364.105 213.008ZM356.873 200.655C357.042 201.198 357.064 201.775 356.937 202.33L349.614 198.574L353.477 198.328C354.227 198.275 354.972 198.476 355.589 198.9C356.207 199.323 356.66 199.942 356.873 200.655ZM354.668 204.769C353.952 204.987 353.183 204.96 352.484 204.692C351.785 204.424 351.198 203.931 350.818 203.293L348.804 199.891L356.254 203.711C355.841 204.209 355.289 204.577 354.668 204.769ZM362.619 212.558L362.618 212.562C362.404 213.274 361.951 213.892 361.333 214.315C360.715 214.737 359.97 214.938 359.221 214.884L355.282 214.633L362.641 210.72C362.813 211.322 362.805 211.96 362.619 212.558ZM360.412 208.443C360.98 208.618 361.489 208.94 361.889 209.375L354.589 213.256L356.561 209.924C356.941 209.284 357.528 208.791 358.227 208.522C358.926 208.253 359.696 208.226 360.412 208.443Z" fill="white"/>
<path d="M371.701 194.751L375.906 200.384C375.207 200.96 374.673 201.711 374.359 202.56C374.044 203.41 373.96 204.328 374.115 205.22L375.12 210.978C375.279 211.896 375.23 212.837 374.977 213.733L374.793 214.377C374.326 216.007 374.262 217.727 374.606 219.387C374.95 221.048 375.692 222.599 376.768 223.908L375.384 224.151C375.183 224.186 375.003 224.3 374.886 224.468C374.768 224.636 374.722 224.844 374.757 225.046L375.86 231.36C375.895 231.562 376.009 231.742 376.177 231.86C376.344 231.977 376.552 232.024 376.753 231.988L390.585 229.565C390.764 229.534 390.926 229.44 391.043 229.301C391.159 229.162 391.224 228.986 391.224 228.804C391.224 228.759 391.22 228.714 391.212 228.67L390.11 222.356C390.074 222.154 389.96 221.974 389.793 221.856C389.625 221.738 389.418 221.692 389.216 221.727L388.535 221.847L387.319 220.378C386.839 219.801 386.602 219.06 386.659 218.311L387.41 208.015C387.411 207.997 387.412 207.98 387.412 207.963L387.412 207.9C387.407 205.628 386.684 203.415 385.347 201.58C385.325 201.551 385.302 201.523 385.276 201.497L373.288 189.232C373.151 189.091 372.965 189.009 372.768 189.001C372.571 188.993 372.379 189.06 372.231 189.189C371.446 189.871 370.953 190.828 370.854 191.864C370.756 192.9 371.059 193.934 371.701 194.751ZM389.558 228.174L377.248 230.332L376.411 225.542L388.722 223.384L389.558 228.174ZM384.147 202.539C385.275 204.099 385.886 205.974 385.895 207.9L385.895 207.929L385.132 218.199C385.044 219.345 385.404 220.481 386.137 221.365L386.786 222.154L378.569 223.594C377.435 222.468 376.625 221.058 376.222 219.511C375.819 217.964 375.839 216.337 376.28 214.801L376.462 214.157C376.779 213.037 376.84 211.859 376.641 210.712L375.636 204.954C375.497 204.153 375.634 203.329 376.026 202.617C376.417 201.904 377.038 201.347 377.788 201.035L379.294 209.655C379.327 209.846 379.43 210.018 379.583 210.136C379.736 210.254 379.928 210.31 380.12 210.294C380.313 210.277 380.492 210.189 380.623 210.046C380.754 209.903 380.826 209.717 380.826 209.523C380.826 209.478 380.822 209.433 380.815 209.389L379.162 199.924C379.126 199.722 379.012 199.542 378.845 199.425C378.677 199.307 378.47 199.26 378.268 199.296C377.916 199.357 377.572 199.456 377.241 199.59L372.932 193.817C372.928 193.812 372.924 193.807 372.92 193.801C372.6 193.394 372.413 192.897 372.387 192.379C372.361 191.861 372.497 191.348 372.775 190.91L384.147 202.539Z" fill="white"/>
<g clip-path="url(#clip2)">
<path d="M339.961 252.049L342.937 259.002L348.04 258.718L349.032 260.989L329.615 261.84L328.765 259.854L342.654 246.231L343.646 248.501L339.961 252.049ZM340.953 259.144L338.402 253.468L331.883 259.712L340.953 259.144Z" fill="white"/>
<path d="M329.331 228.493L332.307 240.697L330.465 241.122L327.488 228.919L329.331 228.493Z" fill="white"/>
<path d="M330.323 207.065L330.749 214.728L335.567 216.147L335.709 218.56L317.284 212.742L317.143 210.613L334.859 202.666L335 205.079L330.323 207.065ZM328.764 214.019L328.481 207.917L320.261 211.464L328.764 214.019Z" fill="white"/>
<path d="M333.725 195.429C333.725 194.578 333.583 193.868 333.158 193.3C332.733 192.591 332.166 192.307 331.315 192.165L331.457 190.037C332.166 190.179 332.874 190.462 333.583 191.03C334.292 191.598 334.717 192.307 335.142 193.158C335.567 194.01 335.709 194.861 335.567 195.855C335.426 197.699 334.717 199.118 333.441 200.112C332.166 201.105 330.465 201.531 328.339 201.389H327.914C326.638 201.247 325.505 200.963 324.512 200.396C323.52 199.828 322.812 199.118 322.245 198.125C321.678 197.132 321.536 196.138 321.536 194.861C321.678 193.3 322.103 192.165 323.095 191.172C324.087 190.179 325.221 189.753 326.78 189.753L326.638 191.881C325.788 191.881 325.079 192.165 324.371 192.733C323.804 193.3 323.379 194.01 323.379 194.861C323.237 195.997 323.662 196.99 324.512 197.699C325.363 198.409 326.497 198.835 328.056 198.835H328.481C330.04 198.977 331.315 198.693 332.166 198.125C333.016 197.558 333.725 196.706 333.725 195.429Z" fill="white"/>
<path d="M319.977 182.516L323.237 182.942L323.662 180.387L325.363 180.671L324.937 183.225L333.158 184.503C333.725 184.644 334.15 184.503 334.433 184.361C334.717 184.219 334.858 183.793 335 183.225C335 182.942 335 182.658 335 182.09L336.843 182.374C336.984 182.942 336.843 183.651 336.843 184.219C336.701 185.212 336.276 185.922 335.567 186.347C334.858 186.773 334.008 186.915 332.874 186.773L324.654 185.496L324.229 187.908L322.528 187.624L322.812 185.212L319.552 184.786L319.977 182.516Z" fill="white"/>
<path d="M320.686 176.556C320.26 176.414 319.977 176.272 319.835 175.988C319.693 175.704 319.552 175.421 319.693 174.853C319.693 174.569 319.977 174.285 320.26 174.002C320.544 173.86 320.827 173.718 321.252 173.86C321.678 174.002 321.961 174.143 322.103 174.427C322.245 174.711 322.386 174.995 322.245 175.563C322.103 175.988 321.961 176.272 321.678 176.414C321.394 176.556 321.111 176.698 320.686 176.556ZM337.835 177.549L337.41 179.82L324.229 177.123L324.654 174.853L337.835 177.549Z" fill="white"/>
<path d="M331.74 173.008C330.465 172.583 329.473 172.015 328.622 171.164C327.772 170.312 327.205 169.461 326.922 168.468C326.638 167.474 326.638 166.339 326.922 165.204C327.488 163.501 328.481 162.224 330.04 161.372C331.599 160.663 333.299 160.521 335.425 161.089H335.567C336.843 161.514 337.835 162.082 338.685 162.791C339.535 163.501 340.102 164.494 340.386 165.488C340.669 166.481 340.669 167.616 340.386 168.893C339.819 170.596 338.827 171.873 337.268 172.583C335.709 173.292 334.008 173.434 331.882 172.867L331.74 173.008ZM332.732 170.738C334.15 171.164 335.425 171.164 336.417 170.738C337.409 170.312 338.118 169.603 338.543 168.468C338.827 167.332 338.685 166.339 337.976 165.346C337.268 164.494 336.134 163.785 334.575 163.217C333.158 162.791 331.882 162.791 330.89 163.217C329.756 163.643 329.048 164.352 328.764 165.488C328.481 166.623 328.622 167.616 329.331 168.468C329.898 169.603 331.032 170.312 332.732 170.738Z" fill="white"/>
<path d="M330.89 153.709L332.449 154.277C331.599 152.858 331.457 151.297 332.166 149.736C333.158 147.04 335.284 146.33 338.26 147.466L346.481 150.729L345.63 152.858L337.41 149.594C336.56 149.31 335.709 149.169 335.142 149.452C334.575 149.736 334.15 150.162 333.725 151.155C333.442 151.865 333.442 152.574 333.583 153.142C333.725 153.851 334.008 154.419 334.575 154.987L343.504 158.534L342.654 160.663L330.04 155.696L330.89 153.709Z" fill="white"/>
</g>
<defs>
<clipPath id="clip0">
<rect width="161" height="39" fill="white" transform="translate(126 65)"/>
</clipPath>
<clipPath id="clip1">
<rect width="167" height="44" fill="white" transform="translate(91 122) rotate(90)"/>
</clipPath>
<clipPath id="clip2">
<rect width="31.8889" height="114.8" fill="white" transform="translate(317.143 147.04)"/>
</clipPath>
</defs>
</svg>
