<svg width="60" height="51" viewBox="0 0 60 51" fill="none" xmlns="http://www.w3.org/2000/svg">
<path d="M0.153886 26.0332C3.23077 30.9419 7.47565 35.012 12.5093 37.8799C17.5429 40.7478 23.2086 42.3242 29.0001 42.4683V50.5004H31.0001V42.4683C36.7916 42.3242 42.4573 40.7478 47.4909 37.8799C52.5246 35.012 56.7695 30.9419 59.8463 26.0332C59.9469 25.8736 60.0002 25.6888 60.0002 25.5002C60.0002 25.3116 59.9469 25.1268 59.8463 24.9672C56.7695 20.0585 52.5246 15.9884 47.4909 13.1205C42.4573 10.2526 36.7916 8.67614 31.0001 8.53206V0.5H29.0001V8.53206C23.2086 8.67614 17.5429 10.2526 12.5093 13.1205C7.47565 15.9884 3.23077 20.0585 0.153886 24.9672C0.0533486 25.1268 0 25.3116 0 25.5002C0 25.6888 0.0533486 25.8736 0.153886 26.0332ZM15.051 24.5002C15.2968 20.8816 16.8453 17.4746 19.41 14.91C21.9746 12.3454 25.3815 10.7969 29.0001 10.5511V16.5001H31.0001V10.5511C34.6187 10.7969 38.0257 12.3454 40.5903 14.91C43.1549 17.4746 44.7034 20.8816 44.9492 24.5002H39.0002V26.5002H44.9492C44.7034 30.1188 43.1549 33.5257 40.5903 36.0904C38.0257 38.655 34.6187 40.2035 31.0001 40.4493V34.5003H29.0001V40.4493C25.3815 40.2035 21.9746 38.655 19.41 36.0904C16.8453 33.5257 15.2968 30.1188 15.051 26.5002H21V24.5002H15.051ZM57.8113 25.5002C53.7287 31.7428 47.6572 36.4235 40.5812 38.7833C42.4461 37.2982 43.977 35.4368 45.0743 33.3204C46.1715 31.204 46.8104 28.8801 46.9492 26.5002H55.0003V24.5002H46.9492C46.8104 22.1203 46.1715 19.7964 45.0743 17.68C43.977 15.5636 42.4461 13.7021 40.5812 12.2171C47.6572 14.5769 53.7287 19.2576 57.8113 25.5002ZM19.419 12.2171C17.5542 13.7021 16.0232 15.5636 14.926 17.68C13.8287 19.7964 13.1898 22.1203 13.051 24.5002H4.99992V26.5002H13.051C13.1898 28.8801 13.8287 31.204 14.926 33.3204C16.0232 35.4368 17.5542 37.2982 19.419 38.7833C12.343 36.4235 6.27155 31.7428 2.1889 25.5002C6.27155 19.2576 12.343 14.5769 19.419 12.2171Z" fill="white"/>
<path d="M30.0001 32.5004C31.3845 32.5004 32.7379 32.0898 33.8891 31.3206C35.0402 30.5515 35.9374 29.4582 36.4673 28.1791C36.9971 26.9 37.1357 25.4925 36.8656 24.1347C36.5955 22.7768 35.9288 21.5295 34.9498 20.5505C33.9709 19.5715 32.7236 18.9049 31.3657 18.6348C30.0078 18.3647 28.6003 18.5033 27.3212 19.0331C26.0422 19.5629 24.9489 20.4601 24.1797 21.6113C23.4105 22.7624 23 24.1158 23 25.5003C23.0021 27.3562 23.7403 29.1354 25.0526 30.4478C26.3649 31.7601 28.1442 32.4982 30.0001 32.5004ZM30.0001 20.5003C30.989 20.5003 31.9557 20.7935 32.7779 21.3429C33.6002 21.8923 34.241 22.6732 34.6195 23.5869C34.9979 24.5005 35.0969 25.5058 34.904 26.4758C34.7111 27.4457 34.2349 28.3366 33.5356 29.0359C32.8363 29.7351 31.9454 30.2113 30.9755 30.4043C30.0056 30.5972 29.0003 30.4982 28.0866 30.1197C27.173 29.7413 26.3921 29.1004 25.8427 28.2782C25.2933 27.4559 25 26.4892 25 25.5003C25.0016 24.1747 25.5289 22.9038 26.4662 21.9665C27.4036 21.0291 28.6744 20.5019 30.0001 20.5003Z" fill="white"/>
<path d="M7.00002 2.50014H14.0001V0.500122H6.00001C5.73479 0.500122 5.48043 0.60548 5.2929 0.793018C5.10536 0.980556 5 1.23491 5 1.50013V9.50019H7.00002V2.50014Z" fill="white"/>
<path d="M55.001 9.50019V1.50013C55.001 1.23491 54.8957 0.980556 54.7082 0.793018C54.5206 0.60548 54.2663 0.500122 54.001 0.500122H46.001V2.50014H53.001V9.50019H55.001Z" fill="white"/>
<path d="M53.001 48.5005H46.001V50.5006H54.001C54.2663 50.5006 54.5206 50.3952 54.7082 50.2077C54.8957 50.0201 55.001 49.7658 55.001 49.5005V41.5005H53.001V48.5005Z" fill="white"/>
<path d="M5 41.5005V49.5005C5 49.7658 5.10536 50.0201 5.2929 50.2077C5.48043 50.3952 5.73479 50.5006 6.00001 50.5006H14.0001V48.5005H7.00002V41.5005H5Z" fill="white"/>
</svg>
