<svg width="54" height="45" viewBox="0 0 54 45" fill="none" xmlns="http://www.w3.org/2000/svg">
<path d="M49.3341 4.72911C49.5302 4.92518 49.642 5.19634 49.642 5.47478C49.642 5.75227 49.5302 6.02438 49.3341 6.22055C49.1368 6.41682 48.8657 6.52957 48.5883 6.52957C48.3097 6.52957 48.0387 6.41672 47.8415 6.22055C47.6454 6.02438 47.5335 5.75216 47.5335 5.47478C47.5335 5.19634 47.6454 4.92518 47.8415 4.72911C48.0388 4.53189 48.3099 4.41998 48.5883 4.41998C48.8658 4.41998 49.1368 4.53189 49.3341 4.72911ZM25.1091 29.5697C25.3053 29.7658 25.4171 30.037 25.417 30.3154C25.417 30.5929 25.3052 30.865 25.1091 31.0612C24.9118 31.2575 24.6407 31.3702 24.3633 31.3702C24.0847 31.3702 23.8137 31.2574 23.6165 31.0612C23.4204 30.8649 23.3085 30.5928 23.3085 30.3154C23.3085 30.037 23.4204 29.7658 23.6165 29.5697C23.8137 29.3725 24.0848 29.2606 24.3633 29.2606C24.6408 29.2606 24.9119 29.3725 25.1091 29.5697ZM51.8888 8.23205C55.4899 14.5645 54.4033 22.5888 49.2458 27.7452L47.2003 29.7907C47.115 29.8759 47.0185 29.9425 46.9159 29.9925C46.7222 30.4625 46.4352 30.903 46.0539 31.2842C45.3032 32.035 44.305 32.4484 43.2433 32.4484C43.1897 32.4484 43.1363 32.4466 43.0829 32.4445C43.1253 33.5146 42.7396 34.5986 41.9245 35.4138C41.1737 36.1645 40.1756 36.5779 39.1139 36.5779C39.0602 36.5779 39.0069 36.5761 38.9535 36.574C38.9959 37.6441 38.6102 38.7281 37.795 39.5433C37.0202 40.3183 36.0022 40.7057 34.9843 40.7057C34.918 40.7057 34.8515 40.7038 34.7853 40.7005C34.8391 41.7837 34.4535 42.8849 33.6281 43.7103C32.8774 44.461 31.8792 44.8744 30.8175 44.8744C29.7559 44.8744 28.7577 44.461 28.007 43.7102L26.0159 41.7192L24.5417 43.1935C23.7911 43.9442 22.793 44.3576 21.7312 44.3576C20.6697 44.3576 19.6715 43.9442 18.9207 43.1935C18.1051 42.3778 17.7194 41.2929 17.7622 40.2223C17.7087 40.2244 17.6553 40.2261 17.6018 40.2261C16.584 40.2261 15.5662 39.8387 14.7913 39.0638C14.0404 38.3131 13.627 37.3149 13.627 36.2533C13.627 36.1996 13.6288 36.1463 13.6309 36.0929C13.578 36.095 13.5251 36.0967 13.4723 36.0967C12.4544 36.0968 11.4368 35.7094 10.6617 34.9344C9.911 34.1837 9.49757 33.1855 9.49757 32.1239C9.49757 32.0702 9.49936 32.0168 9.50147 31.9635C9.44863 31.9656 9.39568 31.9673 9.34284 31.9673C8.32497 31.9673 7.3074 31.58 6.53231 30.805C5.8359 30.1087 5.45358 29.216 5.38302 28.3035C5.30191 28.2576 5.22513 28.2011 5.15595 28.132L4.75843 27.7345C1.68993 24.6659 0 20.5861 0 16.2465C0 11.907 1.68982 7.82694 4.75843 4.75843C7.82705 1.68993 11.9068 0 16.2464 0C20.2521 0 24.0356 1.44081 27.0076 4.07552C29.4268 1.93324 32.3782 0.583137 35.6026 0.153773C39.048 -0.305121 42.6103 0.365977 45.6339 2.04282C46.1433 2.32538 46.3273 2.96747 46.0447 3.47688C45.7622 3.9864 45.1201 4.17002 44.6106 3.88768C39.1289 0.847019 32.2003 1.82303 27.7623 6.26115L20.5002 13.5232C19.5555 14.4678 19.5555 16.0048 20.5002 16.9494C21.4447 17.894 22.9817 17.894 23.9263 16.9494L27.1073 13.7684C27.3052 13.5707 27.5734 13.4595 27.8531 13.4595H32.0083C33.3892 13.4595 34.6874 12.9217 35.6639 11.9453L37.7425 9.8666C38.1546 9.45475 38.8223 9.45475 39.2343 9.8666C39.6461 10.2785 39.6461 10.9464 39.2343 11.3582L37.1557 13.4369C36.5808 14.0118 35.9259 14.4771 35.2172 14.8257L46.0547 25.6632C46.4626 26.0709 46.7619 26.5465 46.9551 27.0535L47.7549 26.2537C52.2424 21.7663 53.1882 14.7843 50.0552 9.27482C49.7671 8.76846 49.9442 8.12447 50.4506 7.83654C50.9567 7.54861 51.6009 7.72558 51.8888 8.23205ZM9.34295 29.8596C9.84129 29.8596 10.3096 29.6655 10.6618 29.3134L12.4795 27.4956C13.2068 26.7684 13.2068 25.5851 12.4795 24.8578C12.1272 24.5055 11.6587 24.3115 11.1606 24.3115C10.6624 24.3115 10.1939 24.5055 9.84161 24.8578L8.02396 26.6755C7.67159 27.0277 7.47763 27.4962 7.47763 27.9944C7.47763 28.4926 7.67169 28.961 8.02396 29.3132C8.37633 29.6656 8.84471 29.8596 9.34295 29.8596ZM12.1537 33.4429C12.8806 34.17 14.0642 34.17 14.7916 33.4428L16.6092 31.625C17.3365 30.8978 17.3365 29.7146 16.6092 28.9872C16.257 28.6349 15.7885 28.4409 15.2903 28.4409C14.7921 28.4409 14.3237 28.635 13.9714 28.9872C13.9714 28.9873 13.9714 28.9873 13.9714 28.9873L12.1537 30.8051C11.8013 31.1574 11.6074 31.6258 11.6074 32.124C11.6074 32.6221 11.8013 33.0906 12.1537 33.4429ZM16.2831 37.5723C17.0104 38.2996 18.1937 38.2996 18.9209 37.5723L20.7386 35.7545C21.4659 35.0273 21.4659 33.8441 20.7386 33.1167C20.3864 32.7643 19.918 32.5703 19.4198 32.5703C18.9215 32.5703 18.4531 32.7644 18.1009 33.1167C18.1009 33.1168 18.1009 33.1168 18.1009 33.1168L16.2831 34.9345C15.9307 35.2868 15.7368 35.7552 15.7368 36.2534C15.7368 36.7515 15.9307 37.22 16.2831 37.5723ZM24.8682 39.8842C25.2205 39.5319 25.4146 39.0636 25.4145 38.5652C25.4145 38.067 25.2205 37.5986 24.8682 37.2463C24.5159 36.8939 24.0474 36.7 23.5493 36.7C23.051 36.7 22.5827 36.894 22.2304 37.2463C22.2304 37.2464 22.2304 37.2464 22.2304 37.2464L20.4126 39.0641C19.6853 39.7914 19.6853 40.9746 20.4126 41.702C20.7649 42.0544 21.2334 42.2484 21.7315 42.2484C22.2298 42.2484 22.6981 42.0543 23.0504 41.702L24.8682 39.8842ZM44.563 29.7926C45.2902 29.0655 45.2902 27.8821 44.5636 27.1545L32.9195 15.5107C32.6196 15.5479 32.3159 15.5689 32.0089 15.5689H28.2908L25.4187 18.441C24.5351 19.3246 23.3744 19.7663 22.2138 19.7663C21.0533 19.7663 19.8926 19.3245 19.0089 18.441C18.153 17.5849 17.6815 16.4468 17.6815 15.2361C17.6815 14.0256 18.153 12.8874 19.0089 12.0313L25.4907 5.54955C22.9234 3.32395 19.6786 2.10938 16.247 2.10938C12.471 2.10938 8.92076 3.57993 6.25071 6.24997C3.58045 8.92002 2.11001 12.4702 2.11001 16.2463C2.11001 19.8767 3.46992 23.2978 5.94749 25.9294C6.10907 25.6638 6.30345 25.4129 6.53273 25.1836L8.35038 23.366C9.90014 21.8163 12.422 21.8162 13.9718 23.366C14.7869 24.1811 15.1726 25.2651 15.1302 26.3352C15.1836 26.3331 15.237 26.3313 15.2906 26.3313C16.3522 26.3313 17.3503 26.7448 18.1012 27.4955C18.9163 28.3107 19.302 29.3947 19.2596 30.4648C19.313 30.4626 19.3664 30.4609 19.4201 30.4609C20.4816 30.4609 21.4798 30.8743 22.2306 31.625C23.0458 32.4402 23.4314 33.5242 23.3891 34.5943C23.4424 34.5922 23.4958 34.5904 23.5495 34.5904C24.611 34.5904 25.6092 35.0038 26.36 35.7545C27.1107 36.5053 27.5242 37.5034 27.5242 38.5651C27.5242 39.0576 27.4341 39.5361 27.2638 39.983L29.4993 42.2184C29.8516 42.5708 30.3199 42.7647 30.8182 42.7647C31.3163 42.7647 31.7848 42.5708 32.1371 42.2184C32.8644 41.4912 32.8644 40.3079 32.1371 39.5805L26.2622 33.7059C25.8504 33.294 25.8504 32.626 26.2622 32.2142C26.6743 31.8024 27.342 31.8024 27.754 32.2142L29.0062 33.4664C29.1034 33.5155 29.1946 33.5801 29.2758 33.6612L33.6663 38.0516C34.3933 38.779 35.5767 38.779 36.3041 38.0516C37.0313 37.3244 37.0313 36.1411 36.304 35.4137L31.9136 31.0234C31.9133 31.0231 31.9129 31.0227 31.9126 31.0224L27.7839 26.8938C27.3721 26.4818 27.3721 25.8139 27.7839 25.402C28.196 24.9903 28.8637 24.9903 29.2757 25.402L37.7957 33.9219C38.1479 34.2743 38.6163 34.4682 39.1146 34.4682C39.6127 34.4682 40.0812 34.2743 40.4334 33.9219C41.1608 33.1947 41.1608 32.0115 40.4334 31.284L31.9135 22.7643C31.5016 22.3524 31.5016 21.6845 31.9135 21.2726C32.3255 20.8608 32.9933 20.8608 33.4052 21.2726L37.5343 25.4017C37.5345 25.4019 37.5346 25.402 37.5349 25.4023L41.9252 29.7926C42.2775 30.145 42.7459 30.3389 43.2441 30.3389C43.7422 30.3389 44.2107 30.145 44.563 29.7926Z" fill="white"/>
</svg>
