<svg width="54" height="60" viewBox="0 0 54 60" fill="none" xmlns="http://www.w3.org/2000/svg">
<path d="M53 4H48V3C48 2.20435 47.6839 1.44129 47.1213 0.87868C46.5587 0.316071 45.7957 0 45 0H3C2.20435 0 1.44129 0.316071 0.87868 0.87868C0.316071 1.44129 0 2.20435 0 3V50C0 50.5304 0.210714 51.0391 0.585786 51.4142C0.960859 51.7893 1.46957 52 2 52H24V50H2V3C2 2.73478 2.10536 2.48043 2.29289 2.29289C2.48043 2.10536 2.73478 2 3 2H40.184C40.0656 2.32026 40.0033 2.65856 40 3V28H42V14H51C51.7957 14 52.5587 13.6839 53.1213 13.1213C53.6839 12.5587 54 11.7956 54 11V5C54 4.73478 53.8946 4.48043 53.7071 4.29289C53.5196 4.10536 53.2652 4 53 4ZM42 3C42 2.73478 42.1054 2.48043 42.2929 2.29289C42.4804 2.10536 42.7348 2 43 2H45C45.2652 2 45.5196 2.10536 45.7071 2.29289C45.8946 2.48043 46 2.73478 46 3V11C46.0033 11.3414 46.0656 11.6797 46.184 12H42V3ZM52 11C52 11.2652 51.8946 11.5196 51.7071 11.7071C51.5196 11.8946 51.2652 12 51 12H49C48.7348 12 48.4804 11.8946 48.2929 11.7071C48.1054 11.5196 48 11.2652 48 11V6H52V11Z" fill="white"/>
<path d="M44.4572 37.921C44.2431 37.755 44.0425 37.5725 43.8572 37.375C43.8997 37.0807 43.9804 36.7933 44.0972 36.52C44.2957 36.1509 44.4097 35.7423 44.431 35.3238C44.4523 34.9053 44.3803 34.4872 44.2202 34.0999C43.9625 33.7645 43.6334 33.4906 43.2566 33.2983C42.8799 33.1059 42.465 32.9999 42.0422 32.9879C41.766 32.9498 41.4934 32.8889 41.2272 32.806C41.1214 32.5343 41.0502 32.2504 41.0152 31.9609C41.003 31.5376 40.8966 31.1222 40.7037 30.7451C40.5109 30.368 40.2364 30.0386 39.9002 29.781C39.5126 29.6203 39.0941 29.5478 38.6751 29.5688C38.256 29.5897 37.8469 29.7035 37.4772 29.902C37.217 30.0175 36.9441 30.1021 36.6642 30.1539C36.444 29.975 36.2466 29.7698 36.0762 29.5429C35.8519 29.1788 35.5491 28.8692 35.1899 28.6369C34.8308 28.4045 34.4243 28.2553 34.0002 28.2C33.5755 28.2549 33.1685 28.4039 32.8088 28.6363C32.4491 28.8686 32.1458 29.1784 31.9212 29.5429C31.7553 29.757 31.5727 29.9576 31.3752 30.143C31.0822 30.095 30.7954 30.0145 30.5202 29.903C30.1511 29.7044 29.7426 29.5904 29.324 29.5691C28.9055 29.5479 28.4875 29.6199 28.1002 29.78C27.7647 30.0376 27.4909 30.3668 27.2985 30.7435C27.1062 31.1203 27.0002 31.5351 26.9882 31.958C26.95 32.2342 26.8892 32.5067 26.8062 32.7729C26.5345 32.8787 26.2506 32.9499 25.9612 32.985C25.5378 32.9971 25.1225 33.1035 24.7453 33.2964C24.3682 33.4893 24.0389 33.7638 23.7812 34.0999C23.6204 34.4869 23.5477 34.9048 23.5683 35.3233C23.5889 35.7419 23.7022 36.1506 23.9002 36.52C24.0076 36.7831 24.0919 37.0552 24.1522 37.333C23.9733 37.5531 23.7681 37.7506 23.5412 37.921C23.177 38.1458 22.8676 38.4492 22.6356 38.8088C22.4036 39.1685 22.2549 39.5754 22.2002 40C22.2551 40.4246 22.4042 40.8317 22.6365 41.1914C22.8689 41.5511 23.1786 41.8543 23.5432 42.0789C23.7573 42.2449 23.9579 42.4274 24.1432 42.625C24.1006 42.9192 24.02 43.2066 23.9032 43.4799C23.7047 43.849 23.5906 44.2576 23.5694 44.6761C23.5481 45.0946 23.6201 45.5127 23.7802 45.9C24.0379 46.2354 24.367 46.5093 24.7438 46.7016C25.1205 46.894 25.5354 47 25.9582 47.012L26.0002 47.02V59C26.0002 59.1654 26.0413 59.3283 26.1198 59.474C26.1982 59.6197 26.3116 59.7437 26.4498 59.8347C26.5879 59.9258 26.7465 59.9812 26.9114 59.9959C27.0762 60.0106 27.2421 59.9841 27.3942 59.9189L34.0002 57.088L40.6062 59.9189C40.7583 59.9841 40.9242 60.0106 41.089 59.9959C41.2538 59.9812 41.4124 59.9258 41.5506 59.8347C41.6888 59.7437 41.8022 59.6197 41.8806 59.474C41.9591 59.3283 42.0002 59.1654 42.0002 59V47.0219L42.0412 47.0149C42.4642 47.0025 42.8792 46.8959 43.2559 46.7031C43.6327 46.5102 43.9617 46.2359 44.2192 45.9C44.38 45.513 44.4527 45.0951 44.4321 44.6766C44.4115 44.258 44.2981 43.8493 44.1002 43.4799C43.9928 43.2168 43.9085 42.9447 43.8482 42.667C44.0271 42.4468 44.2323 42.2493 44.4592 42.0789C44.8234 41.8541 45.1328 41.5507 45.3648 41.1911C45.5968 40.8314 45.7455 40.4245 45.8002 40C45.7453 39.5753 45.5962 39.1682 45.3639 38.8085C45.1315 38.4488 44.8217 38.1456 44.4572 37.921ZM35.0002 55.341V53H33.0002V55.341L28.0002 57.483V55H30.0002V53H28.0002V50.15C28.0332 50.172 28.0612 50.199 28.1002 50.219C28.4871 50.3802 28.905 50.4532 29.3236 50.4326C29.7422 50.412 30.151 50.2984 30.5202 50.0999C30.7779 49.9779 31.0516 49.8931 31.3332 49.8479C31.5534 50.0269 31.7508 50.2321 31.9212 50.459C32.1461 50.8231 32.4494 51.1325 32.8091 51.3645C33.1688 51.5965 33.5757 51.7453 34.0002 51.7999C34.4249 51.7451 34.8319 51.596 35.1916 51.3636C35.5513 51.1313 35.8545 50.8215 36.0792 50.457C36.2451 50.2429 36.4277 50.0423 36.6252 49.8569C36.9189 49.9017 37.2061 49.9823 37.4802 50.097C37.8495 50.2958 38.2585 50.41 38.6774 50.4311C39.0964 50.4522 39.5148 50.3797 39.9022 50.219C39.9382 50.198 39.9662 50.1719 40.0022 50.1489V53H38.0002V55H40.0002V57.483L35.0002 55.341ZM43.1712 40.541C42.6033 40.9266 42.1676 41.4774 41.9232 42.1189C41.8106 42.8117 41.9133 43.5223 42.2172 44.1549C42.3085 44.3893 42.384 44.6295 42.4432 44.874C42.1973 44.9464 41.9467 45.0019 41.6932 45.04C40.9993 45.0936 40.3385 45.3588 39.8002 45.7999C39.3603 46.3411 39.0974 47.0044 39.0472 47.7C39.0087 47.9535 38.9529 48.204 38.8802 48.45C38.6362 48.3899 38.3963 48.3141 38.1622 48.2229C37.5298 47.9184 36.8196 47.8137 36.1262 47.923C35.4848 48.1681 34.934 48.604 34.5482 49.172C34.382 49.3827 34.1994 49.58 34.0022 49.762C33.805 49.58 33.6224 49.3827 33.4562 49.172C33.0706 48.604 32.5197 48.1683 31.8782 47.924C31.7115 47.8794 31.5397 47.8572 31.3672 47.858C30.842 47.8897 30.3261 48.0115 29.8422 48.2179C29.6078 48.3093 29.3676 48.3848 29.1232 48.444C29.0508 48.198 28.9953 47.9475 28.9572 47.694C28.9046 47 28.6404 46.3389 28.2002 45.7999C27.6591 45.36 26.9958 45.0972 26.3002 45.047C26.0467 45.0084 25.7961 44.9526 25.5502 44.88C25.6102 44.6359 25.686 44.3961 25.7772 44.1619C26.081 43.5293 26.1839 42.8188 26.0722 42.1259C25.8271 41.4846 25.3912 40.9338 24.8232 40.548C24.6125 40.3818 24.4152 40.1992 24.2332 40.0019C24.4152 39.8047 24.6125 39.6221 24.8232 39.456C25.3911 39.0703 25.8268 38.5195 26.0712 37.8779C26.1837 37.1852 26.0811 36.4746 25.7772 35.8419C25.6859 35.6076 25.6104 35.3674 25.5512 35.123C25.7971 35.0505 26.0477 34.9951 26.3012 34.957C26.9969 34.9054 27.6598 34.6411 28.2002 34.2C28.6401 33.6588 28.903 32.9955 28.9532 32.2999C28.9917 32.0464 29.0475 31.7959 29.1202 31.5499C29.3642 31.61 29.604 31.6858 29.8382 31.777C30.4702 32.0828 31.1808 32.1875 31.8742 32.077C32.5156 31.8318 33.0663 31.3959 33.4522 30.8279C33.6184 30.6172 33.801 30.4199 33.9982 30.2379C34.1954 30.4199 34.378 30.6172 34.5442 30.8279C34.9298 31.3959 35.4807 31.8316 36.1222 32.076C36.815 32.1884 37.5256 32.0858 38.1582 31.782C38.3925 31.6906 38.6327 31.6151 38.8772 31.556C38.9496 31.8019 39.0051 32.0524 39.0432 32.306C39.0957 32.9999 39.36 33.661 39.8002 34.2C40.3413 34.6399 41.0046 34.9027 41.7002 34.9529C41.9537 34.9915 42.2043 35.0473 42.4502 35.1199C42.3902 35.364 42.3144 35.6038 42.2232 35.838C41.9177 36.4701 41.813 37.1806 41.9232 37.874C42.1683 38.5153 42.6042 39.0661 43.1722 39.452C43.3829 39.6181 43.5802 39.8007 43.7622 39.998C43.58 40.1959 43.3823 40.3792 43.1712 40.546V40.541Z" fill="white"/>
<path d="M34 34C32.8133 34 31.6533 34.3519 30.6666 35.0112C29.6799 35.6705 28.9109 36.6075 28.4567 37.7039C28.0026 38.8003 27.8838 40.0067 28.1153 41.1705C28.3468 42.3344 28.9182 43.4035 29.7574 44.2426C30.5965 45.0818 31.6656 45.6532 32.8295 45.8847C33.9933 46.1162 35.1997 45.9974 36.2961 45.5433C37.3925 45.0892 38.3295 44.3201 38.9888 43.3334C39.6481 42.3467 40 41.1867 40 40C39.9984 38.4092 39.3658 36.884 38.2409 35.7591C37.116 34.6342 35.5908 34.0016 34 34ZM34 44C33.2089 44 32.4355 43.7654 31.7777 43.3259C31.1199 42.8864 30.6072 42.2616 30.3045 41.5307C30.0017 40.7998 29.9225 39.9956 30.0769 39.2196C30.2312 38.4437 30.6122 37.731 31.1716 37.1716C31.731 36.6122 32.4437 36.2312 33.2196 36.0769C33.9956 35.9225 34.7998 36.0017 35.5307 36.3045C36.2616 36.6072 36.8864 37.1199 37.3259 37.7777C37.7654 38.4355 38 39.2089 38 40C38 41.0609 37.5786 42.0783 36.8284 42.8284C36.0783 43.5786 35.0609 44 34 44Z" fill="white"/>
<path d="M26 10C26 9.20888 25.7654 8.43552 25.3259 7.77772C24.8864 7.11993 24.2616 6.60723 23.5307 6.30448C22.7998 6.00173 21.9956 5.92252 21.2196 6.07686C20.4437 6.2312 19.731 6.61216 19.1716 7.17157C18.6122 7.73098 18.2312 8.44372 18.0769 9.21964C17.9225 9.99556 18.0017 10.7998 18.3045 11.5307C18.6072 12.2616 19.1199 12.8864 19.7777 13.3259C20.4355 13.7654 21.2089 14 22 14C23.0609 14 24.0783 13.5786 24.8284 12.8284C25.5786 12.0783 26 11.0609 26 10ZM20 10C20 9.60444 20.1173 9.21776 20.3371 8.88886C20.5568 8.55996 20.8692 8.30362 21.2346 8.15224C21.6001 8.00087 22.0022 7.96126 22.3902 8.03843C22.7781 8.1156 23.1345 8.30608 23.4142 8.58579C23.6939 8.86549 23.8844 9.22186 23.9616 9.60982C24.0387 9.99778 23.9991 10.3999 23.8478 10.7654C23.6964 11.1308 23.44 11.4432 23.1111 11.6629C22.7822 11.8827 22.3956 12 22 12C21.4696 12 20.9609 11.7893 20.5858 11.4142C20.2107 11.0391 20 10.5304 20 10Z" fill="white"/>
<path d="M33 17H11V19H33V17Z" fill="white"/>
<path d="M36 22H8V24H36V22Z" fill="white"/>
<path d="M18 31H8V33H18V31Z" fill="white"/>
<path d="M18 35H8V37H18V35Z" fill="white"/>
</svg>
