<svg width="61" height="64" viewBox="0 0 61 64" fill="none" xmlns="http://www.w3.org/2000/svg">
<mask id="path-1-inside-1" fill="white">
<path d="M2.26537 20.5066L6.49179 23.8877C6.66951 24.0296 6.88369 24.1185 7.10968 24.144C7.33567 24.1695 7.56428 24.1307 7.76919 24.0321C7.9741 23.9334 8.14698 23.7789 8.26793 23.5863C8.38888 23.3937 8.45297 23.1708 8.45284 22.9434V19.3208H13.5849C13.5692 19.3425 13.5511 19.363 13.5354 19.386C11.0204 22.8772 9.66508 27.07 9.66053 31.3728C9.65598 35.6756 11.0025 39.8713 13.51 43.3679C15.7299 46.4586 18.7627 48.8737 22.272 50.3451C22.305 50.3587 22.3376 50.3708 22.3698 50.3813C24.85 51.4025 27.5065 51.9268 30.1887 51.9245C31.4033 51.9231 32.6154 51.8156 33.8113 51.6033V59.1698C33.8113 60.4509 34.3202 61.6794 35.2261 62.5853C36.1319 63.4911 37.3605 64 38.6415 64H55.5472C56.8282 64 58.0568 63.4911 58.9626 62.5853C59.8685 61.6794 60.3774 60.4509 60.3774 59.1698V48.2089C60.3792 47.3031 60.1765 46.4085 59.7842 45.592C59.3919 44.7755 58.8203 44.0581 58.112 43.4934L53.8856 40.1123C53.7079 39.9704 53.4937 39.8815 53.2677 39.856C53.0417 39.8305 52.8131 39.8693 52.6082 39.9679C52.4033 40.0666 52.2304 40.2211 52.1095 40.4137C51.9885 40.6063 51.9244 40.8292 51.9245 41.0566V44.6792H45.8107C46.1464 44.2844 46.4858 43.8931 46.7901 43.4717L46.8045 43.4536L46.8178 43.4391C49.0376 40.3748 50.3672 36.7566 50.6599 32.9842C50.9526 29.2117 50.197 25.4317 48.4764 22.0617C46.7559 18.6917 44.1374 15.8628 40.9101 13.8875C37.6829 11.9121 33.9725 10.8671 30.1887 10.8679C28.9741 10.8693 27.7619 10.9768 26.566 11.1891V4.83019C26.566 3.54914 26.0572 2.32057 25.1513 1.41473C24.2455 0.508893 23.0169 0 21.7359 0H4.8302C3.54916 0 2.32058 0.508893 1.41474 1.41473C0.508906 2.32057 1.26342e-05 3.54914 1.26342e-05 4.83019V15.7911C-0.00184388 16.6969 0.200925 17.5915 0.593185 18.408C0.985445 19.2245 1.55706 19.9419 2.26537 20.5066ZM53.1321 47.0943C53.4524 47.0943 53.7595 46.9671 53.986 46.7407C54.2124 46.5142 54.3396 46.2071 54.3396 45.8868V43.5683L56.6026 45.3796C57.0277 45.7183 57.3708 46.1487 57.6062 46.6387C57.8417 47.1286 57.9634 47.6654 57.9623 48.2089V59.1698C57.9623 59.8103 57.7078 60.4246 57.2549 60.8775C56.802 61.3305 56.1877 61.5849 55.5472 61.5849H38.6415C38.001 61.5849 37.3867 61.3305 36.9338 60.8775C36.4809 60.4246 36.2264 59.8103 36.2264 59.1698V49.5094C36.2264 48.8689 36.4809 48.2546 36.9338 47.8017C37.3867 47.3488 38.001 47.0943 38.6415 47.0943H53.1321ZM40.192 44.6792C40.3892 43.97 40.5688 43.26 40.7306 42.5491C41.7441 42.7826 42.7585 43.0535 43.7736 43.3618C43.366 43.8222 42.9355 44.2619 42.4839 44.6792H40.192ZM45.3338 41.3162C43.9596 40.8727 42.5874 40.4951 41.2172 40.1835C41.6716 37.6809 41.9304 35.1466 41.9913 32.6038H48.2548C48.0528 35.712 47.0462 38.7144 45.3338 41.3162ZM45.3555 21.5125C47.0564 24.1049 48.0554 27.0944 48.2548 30.1887H41.9913C41.9302 27.6551 41.6718 25.1301 41.2184 22.6367C42.6131 22.3203 43.9958 21.946 45.3555 21.51V21.5125ZM43.805 19.4596C42.7915 19.7639 41.7691 20.0336 40.7378 20.2687C40.4037 18.7955 39.9948 17.3295 39.511 15.8708C41.1201 16.8367 42.5688 18.0475 43.805 19.4596ZM31.3962 13.3301C33.1121 13.4453 34.8026 13.806 36.416 14.4012C37.2243 16.4684 37.8782 18.5926 38.3722 20.7565C36.0677 21.1646 33.7359 21.3996 31.3962 21.4593V13.3301ZM31.3962 23.878C33.8973 23.8167 36.3901 23.5648 38.8528 23.1245C39.2753 25.4572 39.5175 27.8189 39.5774 30.1887H31.3962V23.878ZM31.3962 32.6038H39.5762C39.5165 34.9808 39.2743 37.3497 38.8516 39.6897C36.3898 39.2428 33.8974 38.9848 31.3962 38.918V32.6038ZM31.3962 41.3331C33.7344 41.4003 36.0642 41.6425 38.3662 42.0577C38.1561 42.9722 37.9182 43.8815 37.6525 44.7855C36.6345 45.0027 35.714 45.5434 35.0286 46.327C34.3432 47.1105 33.9298 48.0948 33.85 49.1327C33.0406 49.2979 32.2207 49.4068 31.3962 49.4587V41.3331ZM15.0207 21.5112C16.324 21.9291 17.6238 22.2869 18.9199 22.5848C18.4639 25.0966 18.2043 27.6401 18.1434 30.1923H12.1226C12.322 27.0968 13.3206 24.1058 15.0207 21.5112ZM16.5688 19.4584L16.6956 19.3208H19.6118C19.5357 19.6214 19.4681 19.9245 19.3993 20.218C18.4614 19.9982 17.5179 19.7462 16.5688 19.462V19.4584ZM14.999 41.2426C13.3126 38.6585 12.3219 35.6829 12.1226 32.6038H18.1434C18.2053 35.1459 18.4649 37.6793 18.9199 40.1811C17.6205 40.4782 16.3144 40.8332 15.0014 41.2462L14.999 41.2426ZM16.547 43.2954C17.5034 43.012 18.4542 42.7613 19.3993 42.5431C19.7213 43.9559 20.1069 45.3506 20.5561 46.7272C19.0615 45.7856 17.7118 44.6316 16.5494 43.3014L16.547 43.2954ZM28.9848 49.4539C27.1651 49.328 25.3743 48.9316 23.6716 48.2777C22.8873 46.2505 22.2505 44.1694 21.766 42.0504C24.148 41.6168 26.5606 41.3738 28.9811 41.3235L28.9848 49.4539ZM28.9848 38.9084C26.403 38.969 23.8297 39.2286 21.2879 39.6848C20.8656 37.3445 20.6234 34.9751 20.5633 32.5977H28.9811L28.9848 38.9084ZM28.9811 30.1887H20.5585C20.6182 27.8049 20.8605 25.4291 21.283 23.0823C23.8242 23.5491 26.3982 23.8151 28.9811 23.878V30.1887ZM26.566 14.4906V13.6537C27.363 13.4938 28.1699 13.3877 28.9811 13.3362V21.4593C26.5593 21.3983 24.1458 21.1496 21.7624 20.7155C21.8727 20.2381 21.9935 19.7603 22.1247 19.2821C23.3314 19.1869 24.4581 18.6412 25.2809 17.7535C26.1038 16.8658 26.5625 15.701 26.566 14.4906ZM2.41511 4.83019C2.41511 4.18967 2.66955 3.57538 3.12247 3.12246C3.57539 2.66954 4.18968 2.41509 4.8302 2.41509H21.7359C22.3764 2.41509 22.9907 2.66954 23.4436 3.12246C23.8965 3.57538 24.151 4.18967 24.151 4.83019V14.4906C24.151 15.1311 23.8965 15.7454 23.4436 16.1983C22.9907 16.6512 22.3764 16.9057 21.7359 16.9057H7.2453C6.92503 16.9057 6.61789 17.0329 6.39143 17.2593C6.16497 17.4858 6.03775 17.7929 6.03775 18.1132V20.4317L3.77481 18.6204C3.34969 18.2817 3.0066 17.8513 2.77116 17.3613C2.53571 16.8714 2.414 16.3346 2.41511 15.7911V4.83019Z"/>
</mask>
<path d="M2.26537 20.5066L6.49179 23.8877C6.66951 24.0296 6.88369 24.1185 7.10968 24.144C7.33567 24.1695 7.56428 24.1307 7.76919 24.0321C7.9741 23.9334 8.14698 23.7789 8.26793 23.5863C8.38888 23.3937 8.45297 23.1708 8.45284 22.9434V19.3208H13.5849C13.5692 19.3425 13.5511 19.363 13.5354 19.386C11.0204 22.8772 9.66508 27.07 9.66053 31.3728C9.65598 35.6756 11.0025 39.8713 13.51 43.3679C15.7299 46.4586 18.7627 48.8737 22.272 50.3451C22.305 50.3587 22.3376 50.3708 22.3698 50.3813C24.85 51.4025 27.5065 51.9268 30.1887 51.9245C31.4033 51.9231 32.6154 51.8156 33.8113 51.6033V59.1698C33.8113 60.4509 34.3202 61.6794 35.2261 62.5853C36.1319 63.4911 37.3605 64 38.6415 64H55.5472C56.8282 64 58.0568 63.4911 58.9626 62.5853C59.8685 61.6794 60.3774 60.4509 60.3774 59.1698V48.2089C60.3792 47.3031 60.1765 46.4085 59.7842 45.592C59.3919 44.7755 58.8203 44.0581 58.112 43.4934L53.8856 40.1123C53.7079 39.9704 53.4937 39.8815 53.2677 39.856C53.0417 39.8305 52.8131 39.8693 52.6082 39.9679C52.4033 40.0666 52.2304 40.2211 52.1095 40.4137C51.9885 40.6063 51.9244 40.8292 51.9245 41.0566V44.6792H45.8107C46.1464 44.2844 46.4858 43.8931 46.7901 43.4717L46.8045 43.4536L46.8178 43.4391C49.0376 40.3748 50.3672 36.7566 50.6599 32.9842C50.9526 29.2117 50.197 25.4317 48.4764 22.0617C46.7559 18.6917 44.1374 15.8628 40.9101 13.8875C37.6829 11.9121 33.9725 10.8671 30.1887 10.8679C28.9741 10.8693 27.7619 10.9768 26.566 11.1891V4.83019C26.566 3.54914 26.0572 2.32057 25.1513 1.41473C24.2455 0.508893 23.0169 0 21.7359 0H4.8302C3.54916 0 2.32058 0.508893 1.41474 1.41473C0.508906 2.32057 1.26342e-05 3.54914 1.26342e-05 4.83019V15.7911C-0.00184388 16.6969 0.200925 17.5915 0.593185 18.408C0.985445 19.2245 1.55706 19.9419 2.26537 20.5066ZM53.1321 47.0943C53.4524 47.0943 53.7595 46.9671 53.986 46.7407C54.2124 46.5142 54.3396 46.2071 54.3396 45.8868V43.5683L56.6026 45.3796C57.0277 45.7183 57.3708 46.1487 57.6062 46.6387C57.8417 47.1286 57.9634 47.6654 57.9623 48.2089V59.1698C57.9623 59.8103 57.7078 60.4246 57.2549 60.8775C56.802 61.3305 56.1877 61.5849 55.5472 61.5849H38.6415C38.001 61.5849 37.3867 61.3305 36.9338 60.8775C36.4809 60.4246 36.2264 59.8103 36.2264 59.1698V49.5094C36.2264 48.8689 36.4809 48.2546 36.9338 47.8017C37.3867 47.3488 38.001 47.0943 38.6415 47.0943H53.1321ZM40.192 44.6792C40.3892 43.97 40.5688 43.26 40.7306 42.5491C41.7441 42.7826 42.7585 43.0535 43.7736 43.3618C43.366 43.8222 42.9355 44.2619 42.4839 44.6792H40.192ZM45.3338 41.3162C43.9596 40.8727 42.5874 40.4951 41.2172 40.1835C41.6716 37.6809 41.9304 35.1466 41.9913 32.6038H48.2548C48.0528 35.712 47.0462 38.7144 45.3338 41.3162ZM45.3555 21.5125C47.0564 24.1049 48.0554 27.0944 48.2548 30.1887H41.9913C41.9302 27.6551 41.6718 25.1301 41.2184 22.6367C42.6131 22.3203 43.9958 21.946 45.3555 21.51V21.5125ZM43.805 19.4596C42.7915 19.7639 41.7691 20.0336 40.7378 20.2687C40.4037 18.7955 39.9948 17.3295 39.511 15.8708C41.1201 16.8367 42.5688 18.0475 43.805 19.4596ZM31.3962 13.3301C33.1121 13.4453 34.8026 13.806 36.416 14.4012C37.2243 16.4684 37.8782 18.5926 38.3722 20.7565C36.0677 21.1646 33.7359 21.3996 31.3962 21.4593V13.3301ZM31.3962 23.878C33.8973 23.8167 36.3901 23.5648 38.8528 23.1245C39.2753 25.4572 39.5175 27.8189 39.5774 30.1887H31.3962V23.878ZM31.3962 32.6038H39.5762C39.5165 34.9808 39.2743 37.3497 38.8516 39.6897C36.3898 39.2428 33.8974 38.9848 31.3962 38.918V32.6038ZM31.3962 41.3331C33.7344 41.4003 36.0642 41.6425 38.3662 42.0577C38.1561 42.9722 37.9182 43.8815 37.6525 44.7855C36.6345 45.0027 35.714 45.5434 35.0286 46.327C34.3432 47.1105 33.9298 48.0948 33.85 49.1327C33.0406 49.2979 32.2207 49.4068 31.3962 49.4587V41.3331ZM15.0207 21.5112C16.324 21.9291 17.6238 22.2869 18.9199 22.5848C18.4639 25.0966 18.2043 27.6401 18.1434 30.1923H12.1226C12.322 27.0968 13.3206 24.1058 15.0207 21.5112ZM16.5688 19.4584L16.6956 19.3208H19.6118C19.5357 19.6214 19.4681 19.9245 19.3993 20.218C18.4614 19.9982 17.5179 19.7462 16.5688 19.462V19.4584ZM14.999 41.2426C13.3126 38.6585 12.3219 35.6829 12.1226 32.6038H18.1434C18.2053 35.1459 18.4649 37.6793 18.9199 40.1811C17.6205 40.4782 16.3144 40.8332 15.0014 41.2462L14.999 41.2426ZM16.547 43.2954C17.5034 43.012 18.4542 42.7613 19.3993 42.5431C19.7213 43.9559 20.1069 45.3506 20.5561 46.7272C19.0615 45.7856 17.7118 44.6316 16.5494 43.3014L16.547 43.2954ZM28.9848 49.4539C27.1651 49.328 25.3743 48.9316 23.6716 48.2777C22.8873 46.2505 22.2505 44.1694 21.766 42.0504C24.148 41.6168 26.5606 41.3738 28.9811 41.3235L28.9848 49.4539ZM28.9848 38.9084C26.403 38.969 23.8297 39.2286 21.2879 39.6848C20.8656 37.3445 20.6234 34.9751 20.5633 32.5977H28.9811L28.9848 38.9084ZM28.9811 30.1887H20.5585C20.6182 27.8049 20.8605 25.4291 21.283 23.0823C23.8242 23.5491 26.3982 23.8151 28.9811 23.878V30.1887ZM26.566 14.4906V13.6537C27.363 13.4938 28.1699 13.3877 28.9811 13.3362V21.4593C26.5593 21.3983 24.1458 21.1496 21.7624 20.7155C21.8727 20.2381 21.9935 19.7603 22.1247 19.2821C23.3314 19.1869 24.4581 18.6412 25.2809 17.7535C26.1038 16.8658 26.5625 15.701 26.566 14.4906ZM2.41511 4.83019C2.41511 4.18967 2.66955 3.57538 3.12247 3.12246C3.57539 2.66954 4.18968 2.41509 4.8302 2.41509H21.7359C22.3764 2.41509 22.9907 2.66954 23.4436 3.12246C23.8965 3.57538 24.151 4.18967 24.151 4.83019V14.4906C24.151 15.1311 23.8965 15.7454 23.4436 16.1983C22.9907 16.6512 22.3764 16.9057 21.7359 16.9057H7.2453C6.92503 16.9057 6.61789 17.0329 6.39143 17.2593C6.16497 17.4858 6.03775 17.7929 6.03775 18.1132V20.4317L3.77481 18.6204C3.34969 18.2817 3.0066 17.8513 2.77116 17.3613C2.53571 16.8714 2.414 16.3346 2.41511 15.7911V4.83019Z" fill="white" stroke="#1F3862" stroke-width="0.8" mask="url(#path-1-inside-1)"/>
<path d="M14.8943 9.05656C14.8943 9.94647 14.1729 10.6679 13.283 10.6679C12.3931 10.6679 11.6717 9.94647 11.6717 9.05656C11.6717 8.16665 12.3931 7.44524 13.283 7.44524C14.1729 7.44524 14.8943 8.16665 14.8943 9.05656Z" fill="white" stroke="#1F3862" stroke-width="0.4"/>
<path d="M21.5359 9.05656C21.5359 9.94647 20.8145 10.6679 19.9246 10.6679C19.0347 10.6679 18.3133 9.94647 18.3133 9.05656C18.3133 8.16665 19.0347 7.44524 19.9246 7.44524C20.8145 7.44524 21.5359 8.16665 21.5359 9.05656Z" fill="white" stroke="#1F3862" stroke-width="0.4"/>
<path d="M8.25272 9.05656C8.25272 9.94647 7.53131 10.6679 6.6414 10.6679C5.75149 10.6679 5.03008 9.94647 5.03008 9.05656C5.03008 8.16665 5.75149 7.44524 6.6414 7.44524C7.53131 7.44524 8.25272 8.16665 8.25272 9.05656Z" fill="white" stroke="#1F3862" stroke-width="0.4"/>
<path d="M48.7058 54.9434C48.7058 55.8333 47.9844 56.5547 47.0945 56.5547C46.2046 56.5547 45.4832 55.8333 45.4832 54.9434C45.4832 54.0535 46.2046 53.3321 47.0945 53.3321C47.9844 53.3321 48.7058 54.0535 48.7058 54.9434Z" fill="white" stroke="#1F3862" stroke-width="0.4"/>
<path d="M55.3474 54.9434C55.3474 55.8333 54.626 56.5547 53.7361 56.5547C52.8462 56.5547 52.1248 55.8333 52.1248 54.9434C52.1248 54.0535 52.8462 53.3321 53.7361 53.3321C54.626 53.3321 55.3474 54.0535 55.3474 54.9434Z" fill="white" stroke="#1F3862" stroke-width="0.4"/>
<path d="M42.0642 54.9434C42.0642 55.8333 41.3428 56.5547 40.4529 56.5547C39.563 56.5547 38.8416 55.8333 38.8416 54.9434C38.8416 54.0535 39.563 53.3321 40.4529 53.3321C41.3428 53.3321 42.0642 54.0535 42.0642 54.9434Z" fill="white" stroke="#1F3862" stroke-width="0.4"/>
</svg>
