<svg width="65" height="64" viewBox="0 0 65 64" fill="none" xmlns="http://www.w3.org/2000/svg">
<path d="M25.3508 36.447C23.6096 36.0267 21.7815 36.1478 20.111 36.7942C18.4404 37.4405 17.0068 38.5812 16.0018 40.064C14.998 38.5799 13.5646 37.4382 11.8936 36.7917C10.2227 36.1453 8.39404 36.025 6.65281 36.447C4.73142 36.8936 3.02198 37.9872 1.81106 39.5444C0.600141 41.1016 -0.0386384 43.0278 0.00180932 45C0.00180932 53.728 14.8268 63.431 15.4588 63.839C15.6206 63.9436 15.8092 63.9992 16.0018 63.9992C16.1945 63.9992 16.383 63.9436 16.5448 63.839C17.1768 63.431 32.0018 53.728 32.0018 45C32.0423 43.0278 31.4035 41.1016 30.1926 39.5444C28.9816 37.9872 27.2722 36.8936 25.3508 36.447ZM16.0018 61.8C13.3588 59.98 2.00181 51.789 2.00181 45C1.95205 43.4763 2.43513 41.983 3.36786 40.7773C4.30058 39.5715 5.62457 38.7286 7.11181 38.394C7.62223 38.2749 8.14469 38.2152 8.66881 38.216C10.0358 38.2246 11.371 38.6287 12.5134 39.3795C13.6558 40.1302 14.5565 41.1956 15.1068 42.447C15.1992 42.6019 15.3303 42.7303 15.4872 42.8194C15.644 42.9085 15.8214 42.9553 16.0018 42.9553C16.1822 42.9553 16.3596 42.9085 16.5165 42.8194C16.6734 42.7303 16.8044 42.6019 16.8968 42.447C17.5487 40.9448 18.705 39.7176 20.1658 38.9775C21.6266 38.2375 23.3 38.0311 24.8968 38.394C26.3831 38.7297 27.706 39.5729 28.6377 40.7786C29.5694 41.9843 30.0518 43.477 30.0018 45C30.0018 51.789 18.6448 59.98 16.0018 61.8Z" fill="white"/>
<path d="M61.1318 21.4C60.1458 18.689 56.2808 17.436 49.9498 17.755C49.8185 17.7616 49.6898 17.7939 49.5709 17.8502C49.4521 17.9066 49.3456 17.9857 49.2574 18.0832C49.1691 18.1807 49.101 18.2947 49.0568 18.4185C49.0126 18.5423 48.9933 18.6737 48.9998 18.805C49.0064 18.9363 49.0388 19.0651 49.0951 19.1839C49.1514 19.3027 49.2306 19.4092 49.3281 19.4974C49.4256 19.5857 49.5395 19.6538 49.6633 19.698C49.7872 19.7422 49.9185 19.7616 50.0498 19.755C55.1788 19.49 58.6218 20.361 59.2498 22.086C59.9708 24.066 57.2618 27.436 51.9498 31.043C51.8215 28.3267 51.1402 25.6651 49.9478 23.2212C48.7553 20.7773 47.0767 18.6024 45.0147 16.8296C42.9526 15.0569 40.5506 13.7235 37.9554 12.9111C35.3603 12.0987 32.6267 11.8244 29.9218 12.105C27.217 12.3855 24.5979 13.2151 22.2248 14.5428C19.8516 15.8705 17.7743 17.6685 16.1201 19.8268C14.4658 21.9851 13.2693 24.4582 12.6039 27.0948C11.9384 29.7315 11.8179 32.4762 12.2498 35.161C12.2964 35.4181 12.4418 35.6468 12.6548 35.7981C12.8679 35.9494 13.1317 36.0113 13.3898 35.9705C13.648 35.9297 13.8799 35.7895 14.0359 35.5799C14.192 35.3703 14.2598 35.108 14.2248 34.849C14.0761 33.9066 14.0016 32.954 14.0018 32C14.0018 31.539 14.0368 31.087 14.0708 30.635L18.1318 28.1L20.0318 28.733C20.1077 29.9024 20.5296 31.0229 21.2438 31.952C21.5776 32.4042 22.0089 32.7754 22.5058 33.0382C23.0026 33.301 23.5522 33.4485 24.1138 33.47C25.5518 33.468 27.0018 32.4 27.0018 30C27.0018 29 27.2168 28.791 27.2188 28.789C27.4182 28.7432 27.6243 28.7344 27.8268 28.763C28.119 28.8151 28.419 28.8045 28.7068 28.7317C28.9945 28.659 29.2635 28.5258 29.4958 28.341C29.6693 28.1653 29.8039 27.9551 29.8911 27.7242C29.9782 27.4932 30.016 27.2465 30.0018 27C30.0018 24.6 27.7078 22 24.0018 22C23.8214 22.0206 23.6387 22.0034 23.4654 21.9496C23.292 21.8957 23.1317 21.8062 22.9948 21.687C22.808 21.2518 22.7923 20.7622 22.9508 20.316C23.0201 20.1079 23.0191 19.8828 22.9479 19.6754C22.8767 19.4679 22.7393 19.2897 22.5568 19.168L20.7568 17.968C23.5548 15.7178 26.9648 14.361 30.5438 14.074C30.7938 17.48 32.3918 18.628 33.7598 18.974C34.8032 19.2404 35.8652 19.4273 36.9368 19.533C37.3958 19.525 37.8499 19.6279 38.2606 19.833C38.6713 20.0381 39.0264 20.3393 39.2958 20.711C39.8412 21.3743 40.1256 22.2138 40.0958 23.072C40.2228 24.387 40.3958 26.189 42.6908 26.952C43.1916 27.1086 43.7143 27.1835 44.2388 27.174C45.8764 27.1216 47.4788 26.6852 48.9168 25.9C49.6305 27.8548 49.9976 29.919 50.0018 32C50.0018 32.1 49.9878 32.206 49.9858 32.311C49.4758 32.626 48.9428 32.941 48.3958 33.257C47.7481 33.3715 47.0833 33.3447 46.4469 33.1783C45.8105 33.0119 45.2176 32.7099 44.7088 32.293C42.6828 30.267 40.8088 29.331 39.1408 29.493C38.5284 29.5687 37.9418 29.7846 37.4265 30.1241C36.9112 30.4635 36.4811 30.9172 36.1698 31.45C34.9368 33.3 35.9038 34.733 36.6808 35.885C37.2461 36.605 37.6345 37.4476 37.8148 38.345C36.8148 38.745 35.7892 39.1376 34.7378 39.523C34.5174 39.6037 34.3324 39.7594 34.2152 39.9629C34.098 40.1663 34.0562 40.4045 34.0969 40.6357C34.1377 40.8669 34.2585 41.0764 34.4382 41.2274C34.6179 41.3785 34.8451 41.4615 35.0798 41.462C35.1966 41.4623 35.3124 41.4416 35.4218 41.401C36.1218 41.147 36.8218 40.881 37.5148 40.61C37.3974 40.9337 37.2612 41.2502 37.1068 41.558C36.5079 42.7499 36.2175 44.073 36.2622 45.4061C36.307 46.7393 36.6854 48.0399 37.3628 49.189C35.6273 49.7296 33.8196 50.003 32.0018 50C31.7366 50 31.4823 50.1053 31.2947 50.2929C31.1072 50.4804 31.0018 50.7348 31.0018 51C31.0018 51.2652 31.1072 51.5196 31.2947 51.7071C31.4823 51.8946 31.7366 52 32.0018 52C37.0525 51.9921 41.9133 50.0746 45.6092 46.6323C49.3051 43.1899 51.5626 38.4774 51.9288 33.44C58.3318 29.347 62.4168 24.929 61.1318 21.4ZM21.3708 22.853C21.6801 23.2471 22.0824 23.5582 22.5416 23.7584C23.0008 23.9586 23.5026 24.0416 24.0018 24C26.3018 24 27.7878 25.352 27.9768 26.769H27.9408C27.5713 26.7075 27.1929 26.7265 26.8314 26.8245C26.4698 26.9225 26.1337 27.0973 25.8458 27.337C25.5282 27.6981 25.2891 28.1213 25.1438 28.5797C24.9985 29.0382 24.9502 29.5218 25.0018 30C25.0018 30.441 24.9158 31.468 24.1158 31.468C23.2628 31.468 22.0018 30.366 22.0018 28C22.0017 27.7902 21.9355 27.5858 21.8128 27.4156C21.69 27.2455 21.5169 27.1183 21.3178 27.052L18.3178 26.052C18.1783 26.0046 18.0299 25.989 17.8835 26.0063C17.7372 26.0236 17.5965 26.0734 17.4718 26.152L14.4558 28.037C15.198 24.7512 16.848 21.7399 19.2178 19.346L20.8818 20.456C20.7361 21.2881 20.9108 22.1445 21.3708 22.853ZM43.3178 25.053C42.3088 24.716 42.2118 24.23 42.0818 22.877C42.0843 21.5537 41.5949 20.2768 40.7088 19.294C40.2795 18.7605 39.7388 18.3274 39.1246 18.0247C38.5103 17.7221 37.8374 17.5573 37.1528 17.542C36.1719 17.4462 35.1997 17.2754 34.2448 17.031C33.2448 16.783 32.6828 15.769 32.5448 14.031C35.8093 14.1319 38.9849 15.1191 41.7312 16.8869C44.4775 18.6546 46.6911 21.1363 48.1348 24.066C46.6953 24.9515 44.9895 25.3007 43.3178 25.052V25.053ZM38.3388 34.762C37.5338 33.568 37.3898 33.222 37.8338 32.556C37.9849 32.2739 38.1987 32.0302 38.4588 31.8437C38.7188 31.6571 39.0182 31.5327 39.3338 31.48C40.3398 31.374 41.7528 32.17 43.2908 33.708C43.8727 34.2637 44.5744 34.6784 45.3418 34.92C43.5988 35.82 41.7138 36.7 39.7008 37.558C39.4272 36.5481 38.9651 35.5991 38.3388 34.761V34.762ZM39.2558 48.462C38.6772 47.5779 38.3397 46.5579 38.2768 45.5032C38.2138 44.4485 38.4275 43.3956 38.8968 42.449C39.3484 41.5841 39.6526 40.65 39.7968 39.685C42.9614 38.3675 46.0458 36.8649 49.0338 35.185C49.2668 35.146 49.4978 35.085 49.7338 35.026C49.2295 37.9552 48.0091 40.7144 46.181 43.0582C44.353 45.4019 41.9741 47.2575 39.2558 48.46V48.462Z" fill="white"/>
<path d="M1.00195 9C2.59276 9.00159 4.11797 9.63424 5.24284 10.7591C6.36771 11.884 7.00036 13.4092 7.00195 15C7.00195 15.2652 7.10731 15.5196 7.29485 15.7071C7.48238 15.8946 7.73674 16 8.00195 16C8.26717 16 8.52152 15.8946 8.70906 15.7071C8.8966 15.5196 9.00195 15.2652 9.00195 15C9.00354 13.4092 9.63619 11.884 10.7611 10.7591C11.8859 9.63424 13.4111 9.00159 15.002 9C15.2672 9 15.5215 8.89464 15.7091 8.70711C15.8966 8.51957 16.002 8.26522 16.002 8C16.002 7.73478 15.8966 7.48043 15.7091 7.29289C15.5215 7.10536 15.2672 7 15.002 7C13.4111 6.99841 11.8859 6.36576 10.7611 5.24089C9.63619 4.11601 9.00354 2.59081 9.00195 1C9.00195 0.734784 8.8966 0.48043 8.70906 0.292893C8.52152 0.105357 8.26717 0 8.00195 0C7.73674 0 7.48238 0.105357 7.29485 0.292893C7.10731 0.48043 7.00195 0.734784 7.00195 1C7.00036 2.59081 6.36771 4.11601 5.24284 5.24089C4.11797 6.36576 2.59276 6.99841 1.00195 7C0.736737 7 0.482383 7.10536 0.294846 7.29289C0.10731 7.48043 0.00195313 7.73478 0.00195312 8C0.00195313 8.26522 0.10731 8.51957 0.294846 8.70711C0.482383 8.89464 0.736737 9 1.00195 9ZM8.00195 4.87C8.73256 6.18513 9.81683 7.26939 11.132 8C9.81683 8.73061 8.73256 9.81487 8.00195 11.13C7.27135 9.81487 6.18708 8.73061 4.87195 8C6.18708 7.26939 7.27135 6.18513 8.00195 4.87Z" fill="white"/>
<path d="M63.002 55C61.4111 54.9984 59.8859 54.3658 58.7611 53.2409C57.6362 52.116 57.0035 50.5908 57.002 49C57.002 48.7348 56.8966 48.4804 56.7091 48.2929C56.5215 48.1054 56.2672 48 56.002 48C55.7367 48 55.4824 48.1054 55.2948 48.2929C55.1073 48.4804 55.002 48.7348 55.002 49C55.0004 50.5908 54.3677 52.116 53.2428 53.2409C52.118 54.3658 50.5928 54.9984 49.002 55C48.7367 55 48.4824 55.1054 48.2948 55.2929C48.1073 55.4804 48.002 55.7348 48.002 56C48.002 56.2652 48.1073 56.5196 48.2948 56.7071C48.4824 56.8946 48.7367 57 49.002 57C50.5928 57.0016 52.118 57.6342 53.2428 58.7591C54.3677 59.884 55.0004 61.4092 55.002 63C55.002 63.2652 55.1073 63.5196 55.2948 63.7071C55.4824 63.8946 55.7367 64 56.002 64C56.2672 64 56.5215 63.8946 56.7091 63.7071C56.8966 63.5196 57.002 63.2652 57.002 63C57.0035 61.4092 57.6362 59.884 58.7611 58.7591C59.8859 57.6342 61.4111 57.0016 63.002 57C63.2672 57 63.5215 56.8946 63.7091 56.7071C63.8966 56.5196 64.002 56.2652 64.002 56C64.002 55.7348 63.8966 55.4804 63.7091 55.2929C63.5215 55.1054 63.2672 55 63.002 55ZM56.002 59.13C55.2713 57.8149 54.1871 56.7306 52.872 56C54.1871 55.2694 55.2713 54.1851 56.002 52.87C56.7326 54.1851 57.8168 55.2694 59.132 56C57.8168 56.7306 56.7326 57.8149 56.002 59.13Z" fill="white"/>
</svg>
