<svg width="69" height="58" viewBox="0 0 69 58" fill="none" xmlns="http://www.w3.org/2000/svg">
<path d="M68.8011 35.504C68.7966 35.0422 68.4206 34.6707 67.9596 34.6707C67.9572 34.6707 67.9543 34.6707 67.9518 34.6707L56.5589 34.7747L60.3972 31.9294C60.7706 31.6529 60.8491 31.1262 60.5726 30.7527L54.7771 22.9224L60.5652 17.1344C61.3504 16.3545 61.7843 15.3146 61.7859 14.2057C61.788 13.0922 61.3553 12.0453 60.5673 11.2577L55.548 6.23845C55.5462 6.23666 55.5458 6.23414 55.544 6.23234L52.1083 2.79705C52.1069 2.79572 52.105 2.79541 52.1036 2.79407L50.5145 1.20493C48.8952 -0.401985 46.262 -0.401985 44.6419 1.20698L31.3376 14.518L19.5316 2.71159C19.216 2.39604 18.6572 2.39604 18.3417 2.71159L0.246522 20.8067C-0.0821741 21.1354 -0.0821741 21.6679 0.246522 21.9966L15.7881 37.5382L13.5135 39.2277C13.1405 39.5051 13.0624 40.0318 13.3393 40.4049L25.4625 56.7583C25.4702 56.7688 25.4831 56.7725 25.4913 56.7825C25.512 56.8087 25.5227 56.841 25.5467 56.8647C25.6059 56.9235 25.6788 56.9621 25.7512 57.0004C25.7574 57.0036 25.762 57.0087 25.7683 57.0118C25.8837 57.0693 26.0073 57.1084 26.1388 57.1084C26.1412 57.1084 26.1441 57.1084 26.1466 57.1084L68.1663 56.7201C68.3894 56.7181 68.6027 56.6273 68.7592 56.4678C68.9153 56.3084 69.002 56.0935 69 55.8704L68.8011 35.504ZM58.7196 31.0785L53.6969 34.8008L50.6339 34.8287L53.3943 32.7812C53.6387 32.6 53.7661 32.3004 53.7279 31.9989C53.6925 31.7217 53.6763 31.4432 53.6792 31.1651C53.6879 30.331 53.8678 29.5013 54.2111 28.7275C54.2725 28.589 54.2944 28.4394 54.2784 28.2939C54.2704 28.2212 54.2529 28.1496 54.2261 28.0808C54.1994 28.0122 54.1633 27.9464 54.1182 27.8856L52.2879 25.4115L53.5735 24.1259L58.7196 31.0785ZM29.3693 35.0227L29.4648 31.9574L33.2648 31.8408L34.152 32.7272C33.5282 33.3377 33.1323 34.1297 33.0086 34.9895L29.3693 35.0227ZM25.19 44.8131C24.6218 44.1937 23.9507 43.4442 23.2989 42.7039L23.4467 37.9766L25.1254 37.9216L25.19 44.8131ZM29.9521 26.1526L51.5129 4.58311L53.7581 6.82831L32.1993 28.3961L30.1944 26.3949L29.9521 26.1526ZM35.3418 33.9158L36.3856 34.9587L34.7216 34.9739C34.8273 34.5737 35.0392 34.2087 35.3418 33.9158ZM42.7994 34.9002L48.3853 29.3141L51.0845 26.6149L52.485 28.5073C52.1046 29.5345 51.9431 30.6257 52.0109 31.7121L47.7756 34.8532L44.1866 34.8875L42.7994 34.9002ZM60.103 14.2028C60.1017 14.861 59.8449 15.4782 59.3794 15.9404C59.3786 15.9408 59.3782 15.9416 59.3774 15.9424L53.075 22.2447C53.0748 22.2449 53.0744 22.245 53.0742 22.2452L50.5852 24.7343L41.3106 34.0088C40.9494 34.37 40.4786 34.612 39.9711 34.6929C39.1839 34.8322 38.3778 34.5771 37.8157 34.0088L36.0272 32.2203C36.0249 32.2181 36.0219 32.2171 36.0196 32.2148L34.2098 30.4071C34.2047 30.4019 34.202 30.3951 34.1968 30.3899L33.3902 29.5848L54.9483 8.0185L59.3774 12.4476C59.8466 12.9168 60.1042 13.5401 60.103 14.2028ZM45.8297 2.39892C46.3125 1.91984 46.9461 1.68031 47.5801 1.68031C48.2128 1.68031 48.8455 1.91943 49.3267 2.39687L50.3226 3.39276L28.7607 24.9639L27.7486 23.9536C27.7317 23.931 27.7136 23.9096 27.6947 23.8887C26.7925 22.9083 26.8225 21.4087 27.7658 20.4723L45.8297 2.39892ZM18.9366 4.49641L30.1448 15.7054L26.5772 19.2808C25.188 20.6598 24.9787 22.7674 25.9685 24.3779L18.3104 32.0367C17.9818 32.3654 17.9818 32.8978 18.3104 33.2265C18.4748 33.3909 18.6901 33.4731 18.9054 33.4731C19.1207 33.4731 19.336 33.3909 19.5003 33.2265L27.0719 25.6542L31.6264 30.2087L28.6217 30.2991C28.1763 30.3122 27.8184 30.6705 27.8057 31.1159L27.6528 36.1556L22.6028 36.3179C22.1566 36.3311 21.7983 36.6902 21.7864 37.1364L21.6673 41.0376L17.667 37.0374L2.03134 21.4017L18.9366 4.49641ZM16.9916 38.7417L21.8351 43.5852C23.695 45.7112 24.6578 46.7519 25.213 47.2682L25.273 53.6757L15.1924 40.0778L16.9916 38.7417ZM26.9802 55.4176V46.9447C26.9802 46.8134 26.9435 46.6926 26.8897 46.5816L26.8081 37.8681L28.4951 37.811C28.9376 37.7958 29.2926 37.4412 29.3078 36.9987L29.3177 36.7062L33.8081 36.6653C33.8101 36.6653 33.8118 36.6663 33.8138 36.6663C33.8163 36.6663 33.8188 36.6663 33.8216 36.6663L40.1154 36.6092L43.8913 36.5733L49.5245 36.522L53.9785 36.4864C53.9894 36.4863 53.9994 36.4816 54.0103 36.481L67.1264 36.3615L67.3088 55.045L26.9802 55.4176Z" fill="white"/>
<path d="M51.0491 45.8567C51.0418 44.7921 50.6203 43.7967 49.8657 43.0487C49.8619 43.0449 49.8594 43.0403 49.8555 43.0365C49.8555 43.0365 49.8555 43.0365 49.8554 43.0364C49.8538 43.0348 49.8526 43.0328 49.851 43.0312C49.1008 42.2953 48.1143 41.8923 47.0719 41.8923C47.0572 41.8923 47.0427 41.8925 47.0284 41.8926C47.0258 41.8926 47.0235 41.8919 47.0209 41.8918C45.9486 41.8976 44.9444 42.3237 44.1933 43.0912C43.8752 43.4163 43.6343 43.7919 43.447 44.1902C43.1935 44.7279 43.0489 45.3133 43.0564 45.925C43.0651 46.9957 43.4903 47.9978 44.2549 48.7468C44.8186 49.2997 45.5158 49.6643 46.2695 49.8117C46.523 49.8616 46.7831 49.8874 47.0472 49.8874C47.062 49.8874 47.0768 49.8874 47.0916 49.8874C47.3544 49.8846 47.6129 49.8554 47.8648 49.8034C47.867 49.803 47.8692 49.8031 47.8713 49.8027C47.9851 49.779 48.0914 49.733 48.2022 49.6996C48.8384 49.5088 49.4259 49.1773 49.904 48.6897C50.0913 48.4989 50.2569 48.2925 50.4002 48.0738C50.6795 47.6485 50.8692 47.1754 50.9679 46.679C51.0215 46.4108 51.0514 46.1364 51.0491 45.8567ZM47.0686 48.2024C47.0551 48.2028 47.0422 48.1992 47.0287 48.1993C46.4174 48.1668 45.8618 47.9659 45.4325 47.543C44.9916 47.1095 44.7472 46.5289 44.7439 45.8999C44.7377 45.5283 44.8305 45.1732 44.9929 44.8494C45.0986 44.6402 45.2273 44.4416 45.3963 44.2691C45.8306 43.8262 46.4116 43.5801 47.0369 43.5756C47.0389 43.5756 47.0409 43.5755 47.0429 43.5755C47.1456 43.5749 47.2458 43.5896 47.3464 43.6022C47.3954 43.6083 47.4459 43.6074 47.4941 43.6165C47.9361 43.7009 48.3468 43.9125 48.6755 44.2363C49.1164 44.6702 49.3608 45.2503 49.3641 45.8748C49.3707 46.4878 49.1361 47.068 48.7034 47.5089C48.457 47.7602 48.1606 47.9401 47.8397 48.057C47.5953 48.1452 47.3376 48.2005 47.0686 48.2024Z" fill="white"/>
<path d="M64.94 40.9461C63.9556 40.4037 63.1413 39.6042 62.5853 38.6337C62.4341 38.3695 62.1219 38.2023 61.8478 38.2105L32.1213 38.4755C31.8181 38.4784 31.5404 38.644 31.3933 38.909C30.8427 39.9016 30.0395 40.7197 29.0702 41.2748C28.806 41.426 28.6437 41.7086 28.647 42.0135L28.723 49.396V50.0871C28.723 50.3895 28.8853 50.6685 29.1479 50.8185C29.9462 51.2729 30.6134 51.8576 31.1307 52.5556C31.2729 52.7483 31.4077 52.9497 31.5248 53.151C31.6755 53.4098 31.9525 53.5688 32.252 53.5688C32.2545 53.5688 32.2569 53.5688 32.2594 53.5688L61.9859 53.3038C62.2899 53.3009 62.5689 53.1345 62.7156 52.8683C63.2542 51.8904 64.0567 51.0679 65.037 50.4898C65.2959 50.3369 65.4536 50.0575 65.4508 49.7572L65.3752 41.6754C65.3723 41.3713 65.2059 41.0928 64.94 40.9461ZM61.4974 51.625L32.7142 51.8818C32.6399 51.7713 32.563 51.662 32.4833 51.5547C31.9208 50.7951 31.2232 50.1442 30.406 49.6142L30.3349 42.4708C31.2421 41.8697 32.017 41.0804 32.6095 40.1539L61.3885 39.8975C61.9896 40.8051 62.776 41.5772 63.6968 42.1643L63.7633 49.3044C62.8528 49.9191 62.0812 50.7096 61.4974 51.625Z" fill="white"/>
<path d="M20.2426 10.2524C19.9139 9.92369 19.3814 9.92369 19.0527 10.2524L7.78949 21.5156C7.46079 21.8443 7.46079 22.3768 7.78949 22.7055C7.95384 22.8698 8.16914 22.952 8.38443 22.952C8.59973 22.952 8.81502 22.8698 8.97937 22.7055L20.2426 11.4423C20.5713 11.1136 20.5713 10.5811 20.2426 10.2524Z" fill="white"/>
<path d="M25.5028 15.5129C25.1741 15.1842 24.6416 15.1842 24.3129 15.5129L13.0497 26.7761C12.721 27.1048 12.721 27.6373 13.0497 27.966C13.2141 28.1303 13.4294 28.2125 13.6447 28.2125C13.86 28.2125 14.0753 28.1303 14.2396 27.966L25.5028 16.7028C25.8315 16.3741 25.8315 15.8416 25.5028 15.5129Z" fill="white"/>
<path d="M51.8085 18.0788C51.4798 18.4075 51.4798 18.94 51.8085 19.2687C51.9729 19.433 52.1882 19.5152 52.4035 19.5152C52.6188 19.5152 52.8341 19.433 52.9984 19.2687L57.8504 14.4171C58.1791 14.0884 58.1791 13.5559 57.8504 13.2272C57.5217 12.8985 56.9892 12.8985 56.6605 13.2272L51.8085 18.0788Z" fill="white"/>
</svg>
