<svg width="56" height="59" viewBox="0 0 56 59" fill="none" xmlns="http://www.w3.org/2000/svg">
<path d="M26.5521 27.2899C26.5759 27.2899 26.5997 27.2899 26.6354 27.2899C28.7053 27.2661 30.6444 26.4452 32.0838 24.9701C33.5351 23.495 34.3203 21.544 34.2965 19.4741L34.2251 13.0145C34.1894 9.73115 31.5009 7.1021 28.2175 7.12589L20.83 7.19727C19.6404 7.20917 18.6768 8.18465 18.7006 9.37426L18.8077 19.6168C18.8434 23.8638 22.3171 27.2899 26.5521 27.2899ZM22.8762 12.3007C21.8293 12.7409 21.0204 13.3952 20.4137 14.0613L20.3661 9.58839C20.9252 10.326 21.7698 11.3371 22.8762 12.3007ZM30.8942 23.8043C29.7521 24.9582 28.2413 25.6125 26.6116 25.6244C26.5878 25.6244 26.564 25.6244 26.5521 25.6244C23.2331 25.6244 20.5088 22.9359 20.4732 19.605L20.4494 17.0473C20.6516 16.5476 21.8055 14.0613 24.5178 13.5379C26.2666 14.6681 28.0748 15.2391 29.9068 15.2391C30.799 15.2391 31.7031 15.0963 32.5953 14.8227L32.6429 19.486C32.6429 21.1039 32.0243 22.6385 30.8942 23.8043ZM28.2413 8.79135C28.2532 8.79135 28.2651 8.79135 28.2889 8.79135C30.6325 8.79135 32.5477 10.6828 32.5715 13.0264V13.074C29.8711 14.0851 27.1707 13.5736 24.5535 11.5156C23.4115 10.6234 22.5193 9.61219 21.9245 8.85083L28.2413 8.79135Z" fill="white"/>
<path d="M54.0085 27.0043C54.0085 19.7952 51.201 13.0144 46.0976 7.91094C40.9941 2.80749 34.2133 0 27.0043 0C19.7952 0 13.0144 2.80749 7.91094 7.91094C2.80749 13.0144 0 19.7952 0 27.0043C0 34.2133 2.80749 40.9941 7.91094 46.0976C13.0144 51.201 19.7952 54.0085 27.0043 54.0085C31.037 54.0085 35.0223 53.1044 38.6387 51.3795L38.4008 57.0539C38.4008 57.0658 38.4008 57.0777 38.4008 57.0896C38.4008 57.5536 38.6744 57.9937 39.0907 58.1841C39.519 58.3744 39.9948 58.303 40.3636 57.9937L45.5622 53.5089L50.7609 57.9937C50.9869 58.1841 51.2605 58.2911 51.5341 58.2911C51.7007 58.2911 51.8672 58.2554 52.0218 58.1841C52.4382 57.9937 52.7118 57.5655 52.7118 57.0896C52.7118 57.0777 52.7118 57.0658 52.7118 57.0539L52.2241 45.3362C54.4725 43.4328 55.9 40.6016 55.9 37.4253C55.9 35.0223 55.0792 32.8096 53.6992 31.0489C53.9014 29.7166 54.0085 28.3604 54.0085 27.0043ZM1.66546 27.0043C1.66546 13.0382 13.0382 1.66546 27.0043 1.66546C40.9703 1.66546 52.343 13.0382 52.343 27.0043C52.343 27.837 52.2955 28.6816 52.2241 29.5143C50.4278 28.0035 48.0961 27.0875 45.5622 27.0875C43.0165 27.0875 40.6848 28.0154 38.8885 29.5381C37.6989 28.8838 36.3546 28.5508 34.9866 28.5627L33.2378 28.5745C32.8691 28.5745 32.536 28.8244 32.4408 29.1931L30.2995 37.0327L28.5626 33.9992L29.7998 29.9188C29.8712 29.669 29.8236 29.3954 29.669 29.1812C29.5143 28.9671 29.2645 28.8482 28.9909 28.8482L24.5774 28.8957C24.3157 28.8957 24.0659 29.0266 23.9113 29.2407C23.7566 29.4549 23.709 29.7285 23.7923 29.9783L25.1128 34.0468L23.6495 36.9375L21.5677 29.1694C21.4606 28.7768 21.0919 28.5151 20.6874 28.5508L18.7602 28.7292C16.5119 28.7649 14.3705 29.7404 12.8716 31.4296C11.3846 33.107 10.6708 35.3554 10.9088 37.5918L11.0039 46.6329C5.30568 41.9815 1.66546 34.9152 1.66546 27.0043ZM27.0399 33.2735H26.6117L25.7195 30.5374L27.8608 30.5136L27.0399 33.2735ZM27.0043 52.343C21.6867 52.343 16.7498 50.7014 12.6694 47.8939L12.5623 37.5323C12.5623 37.5086 12.5623 37.4729 12.5623 37.4491C12.3601 35.6646 12.9311 33.8802 14.1207 32.536C15.3103 31.1917 17.0234 30.4184 18.8078 30.3947C18.8316 30.3947 18.8554 30.3947 18.8792 30.3947L20.1402 30.2757L22.6027 39.4714C22.686 39.7926 22.9596 40.0305 23.2808 40.0781C23.6139 40.1257 23.935 39.9711 24.1135 39.6856C24.1254 39.6618 24.1373 39.6499 24.1492 39.6261L26.5165 34.939L27.1708 34.9271L29.8474 39.5904C30.014 39.8878 30.3471 40.0424 30.6802 40.0067C31.0133 39.9592 31.2869 39.7212 31.382 39.4L33.8802 30.24L34.9985 30.2281C35.9264 30.2162 36.8186 30.4066 37.6513 30.7753C36.1405 32.5717 35.2245 34.9033 35.2245 37.4253C35.2245 40.5897 36.652 43.4328 38.9004 45.3362L38.722 49.4761C35.1174 51.3557 31.0846 52.343 27.0043 52.343ZM51.0226 56.019L46.3712 52.01C46.1452 51.8077 45.8715 51.6888 45.5622 51.6888C45.2529 51.6888 44.9793 51.8077 44.7533 52.01L40.1019 56.019L40.5064 46.4664C42.0053 47.311 43.7302 47.7868 45.5622 47.7868C47.3942 47.7868 49.1192 47.311 50.6181 46.4664L51.0226 56.019ZM45.5622 46.1214C40.7681 46.1214 36.8781 42.2313 36.8781 37.4372C36.8781 35.0104 37.8773 32.8215 39.4833 31.2393C39.5428 31.2036 39.5904 31.156 39.638 31.0965C41.1964 29.6452 43.2782 28.753 45.5622 28.753C50.3564 28.753 54.2464 32.643 54.2464 37.4372C54.2464 42.2313 50.3564 46.1214 45.5622 46.1214Z" fill="white"/>
<path d="M49.8924 33.3807L44.1822 39.0909L41.2439 36.1168C40.9227 35.7956 40.3874 35.7837 40.0662 36.1168C39.745 36.438 39.7331 36.9733 40.0662 37.2945L43.5993 40.8634C43.754 41.018 43.9681 41.1132 44.1941 41.1132C44.4202 41.1132 44.6224 41.0299 44.789 40.8753L51.082 34.5822C51.4032 34.261 51.4032 33.7257 51.082 33.4045C50.737 33.0595 50.2136 33.0595 49.8924 33.3807Z" fill="white"/>
</svg>
