<svg width="69" height="59" viewBox="0 0 69 59" fill="none" xmlns="http://www.w3.org/2000/svg">
<path d="M54.0577 3.01428L53.1612 2.52404L52.671 1.62762C52.5115 1.33563 52.2763 1.09198 51.9902 0.922228C51.704 0.752479 51.3775 0.662903 51.0448 0.662903C50.7121 0.662903 50.3855 0.752479 50.0994 0.922228C49.8132 1.09198 49.5781 1.33563 49.4186 1.62762L48.9284 2.52391L48.0321 3.01415C47.7401 3.17364 47.4964 3.4088 47.3267 3.69495C47.157 3.98109 47.0674 4.30766 47.0674 4.64036C47.0674 4.97307 47.157 5.29964 47.3267 5.58578C47.4964 5.87192 47.7401 6.10709 48.0321 6.26658L48.9285 6.75682L49.4187 7.65324C49.5782 7.94523 49.8134 8.18889 50.0995 8.35863C50.3856 8.52838 50.7122 8.61796 51.0449 8.61796C51.3776 8.61796 51.7042 8.52838 51.9903 8.35863C52.2764 8.18889 52.5116 7.94523 52.6711 7.65324L53.1613 6.75668L54.0577 6.26644C54.3497 6.10695 54.5934 5.87179 54.7631 5.58565C54.9329 5.2995 55.0224 4.97293 55.0224 4.64023C55.0224 4.30752 54.9329 3.98096 54.7631 3.69481C54.5934 3.40867 54.3497 3.17351 54.0577 3.01402V3.01428ZM53.2845 4.85306L52.0357 5.53571C51.9951 5.55795 51.9617 5.59136 51.9394 5.63199L51.2573 6.87995C51.2366 6.91822 51.2059 6.95018 51.1685 6.97245C51.1311 6.99472 51.0884 7.00647 51.0448 7.00647C51.0013 7.00647 50.9586 6.99472 50.9212 6.97245C50.8838 6.95018 50.8531 6.91822 50.8324 6.87995L50.1497 5.63118C50.1274 5.59055 50.094 5.55714 50.0533 5.53491L48.8052 4.85225C48.767 4.83151 48.735 4.80082 48.7127 4.76341C48.6905 4.72601 48.6787 4.68329 48.6787 4.63976C48.6787 4.59623 48.6905 4.55351 48.7127 4.51611C48.735 4.4787 48.767 4.44801 48.8052 4.42727L50.0533 3.74461C50.094 3.72233 50.1274 3.68888 50.1497 3.6482L50.8324 2.39944C50.8531 2.36117 50.8838 2.32921 50.9212 2.30694C50.9586 2.28467 51.0013 2.27291 51.0448 2.27291C51.0884 2.27291 51.1311 2.28467 51.1685 2.30694C51.2059 2.32921 51.2366 2.36117 51.2573 2.39944L51.94 3.6482C51.9622 3.68887 51.9956 3.72232 52.0363 3.74461L53.285 4.42727C53.3234 4.44799 53.3555 4.47875 53.3779 4.51626C53.4003 4.55378 53.4121 4.59665 53.412 4.64032C53.4119 4.684 53.4001 4.72684 53.3776 4.7643C53.3551 4.80176 53.323 4.83243 53.2845 4.85306Z" fill="white"/>
<path d="M14.9064 16.2059L13.6501 15.519L12.9633 14.2626C12.7971 13.9586 12.5522 13.705 12.2542 13.5283C11.9563 13.3517 11.6162 13.2584 11.2698 13.2584C10.9234 13.2584 10.5834 13.3517 10.2855 13.5283C9.98752 13.705 9.74259 13.9586 9.57639 14.2626L8.88961 15.5184L7.6333 16.2052C7.32942 16.3715 7.07587 16.6164 6.89923 16.9144C6.7226 17.2124 6.62939 17.5525 6.62939 17.8989C6.62939 18.2453 6.7226 18.5853 6.89923 18.8833C7.07587 19.1813 7.32942 19.4263 7.6333 19.5925L8.88961 20.2795L9.57639 21.5353C9.74262 21.8392 9.98756 22.0928 10.2855 22.2695C10.5835 22.4461 10.9235 22.5393 11.2698 22.5393C11.6162 22.5393 11.9562 22.4461 12.2542 22.2695C12.5521 22.0928 12.7971 21.8392 12.9633 21.5353L13.6501 20.2788L14.9064 19.592C15.2103 19.4257 15.4638 19.1808 15.6405 18.8828C15.8171 18.5848 15.9103 18.2448 15.9103 17.8983C15.9103 17.5519 15.8171 17.2119 15.6405 16.9139C15.4638 16.6159 15.2103 16.3709 14.9064 16.2047V16.2059ZM14.1286 18.1708L12.5356 19.0421C12.4838 19.0705 12.4412 19.1131 12.4128 19.1649L11.5416 20.7581C11.515 20.8067 11.4758 20.8473 11.428 20.8756C11.3803 20.9039 11.3259 20.9188 11.2704 20.9188C11.2149 20.9188 11.1604 20.9039 11.1127 20.8756C11.065 20.8473 11.0258 20.8067 10.9991 20.7581L10.128 19.1649C10.0996 19.1131 10.057 19.0705 10.0052 19.0421L8.41222 18.1708C8.36354 18.1442 8.32293 18.105 8.29464 18.0573C8.26635 18.0096 8.25142 17.9551 8.25142 17.8996C8.25142 17.8441 8.26635 17.7897 8.29464 17.742C8.32293 17.6942 8.36354 17.655 8.41222 17.6284L10.0052 16.7577C10.057 16.7293 10.0996 16.6866 10.128 16.6347L10.9991 15.0416C11.0258 14.9929 11.065 14.9523 11.1127 14.924C11.1604 14.8957 11.2149 14.8808 11.2704 14.8808C11.3259 14.8808 11.3803 14.8957 11.428 14.924C11.4758 14.9523 11.515 14.9929 11.5416 15.0416L12.4128 16.6347C12.4411 16.6866 12.4838 16.7293 12.5356 16.7577L14.1286 17.6289C14.1771 17.6556 14.2176 17.6948 14.2458 17.7425C14.274 17.7901 14.2889 17.8445 14.2889 17.8999C14.2889 17.9553 14.274 18.0096 14.2458 18.0573C14.2176 18.105 14.1771 18.1442 14.1286 18.1708Z" fill="white"/>
<path d="M54.3429 59C51.1452 59 47.7508 58.1344 44.7531 54.6363C43.4594 53.1266 41.68 51.7836 39.9591 50.4848C38.636 49.4862 37.3863 48.5431 36.3652 47.5415C36.1137 47.3017 35.9356 46.9944 35.8518 46.6558C35.768 46.3173 35.7821 45.9617 35.8923 45.631C36.2004 44.6313 37.2375 43.7648 38.3583 43.5709C39.9683 43.2927 41.3892 44.3905 42.6425 45.3592C43.408 45.9511 44.1998 46.5632 44.7153 46.5794C45.3003 46.5986 45.5321 46.4078 45.6564 46.2634C46.4367 45.3567 45.9512 42.5702 45.63 40.7262C45.5174 40.0789 45.2242 38.0424 45.1415 37.5212C44.7659 35.1549 44.2982 32.21 45.3901 30.3186C45.6704 29.8762 46.1131 29.5634 46.6215 29.4486C46.9057 29.3779 47.2013 29.366 47.4902 29.4136C47.7792 29.4613 48.0556 29.5675 48.3026 29.7259C48.8825 30.0913 49.6624 31.0195 50.5443 34.9797C50.7653 35.97 50.9616 37.0229 51.1295 38.0387C51.1486 37.8161 51.1675 37.5903 51.1865 37.363C51.494 33.6937 51.8119 29.8996 53.1804 28.4656C53.4548 28.1934 53.7966 28.0004 54.1703 27.9068C54.5439 27.8132 54.9357 27.8223 55.3047 27.9332C55.6929 28.0422 56.0437 28.2573 56.3181 28.5547C56.5925 28.8521 56.7799 29.2202 56.8596 29.6182C57.2462 31.4312 57.1447 34.7688 56.9515 37.7735C56.9739 37.7005 59.1509 30.8244 60.4066 30.1163C60.6535 29.9757 60.9284 29.8922 61.2114 29.8719C61.4944 29.8516 61.7782 29.8951 62.0424 29.9992C62.3283 30.1094 62.5871 30.2806 62.8011 30.5011C63.015 30.7216 63.1791 30.9862 63.282 31.2766C63.8343 32.8735 62.7308 37.8285 61.9213 40.9325L62.0166 40.8192C63.9681 38.4962 65.8119 36.3026 67.4432 36.6772C67.8147 36.7713 68.1512 36.9716 68.4122 37.254C68.6732 37.5365 68.8475 37.889 68.914 38.269C69.136 39.6242 68.0884 41.0837 66.8754 42.7734C65.8434 44.2112 64.6736 45.8407 64.4775 47.2725L64.4337 47.5941C63.7932 52.2922 62.996 58.1394 57.0231 58.8289C56.1336 58.9373 55.2388 58.9944 54.3429 59ZM38.8641 45.197C38.7885 45.1969 38.7131 45.2032 38.6386 45.2159C38.1042 45.3084 37.5832 45.7724 37.4744 46.126C37.4352 46.2534 37.4649 46.2907 37.521 46.3455C38.4652 47.2718 39.6734 48.1836 40.9523 49.149C42.7437 50.501 44.5961 51.899 46.007 53.5447C49.3485 57.4436 53.1851 57.5912 56.834 57.1699C61.5288 56.6274 62.1711 51.9194 62.7918 47.3662L62.8358 47.0438C63.0883 45.1994 64.3868 43.3906 65.5324 41.7946C66.4023 40.5826 67.3885 39.209 67.2789 38.5396C67.2789 38.5383 67.2236 38.3379 67.0738 38.3031C67.0711 38.3031 66.7141 38.2512 65.6741 39.2351C64.9095 39.9585 64.0815 40.9435 63.2807 41.8966C62.629 42.6723 62.0134 43.4049 61.4744 43.9427C61.3011 44.1153 61.0754 44.2244 60.8334 44.2527C60.5914 44.2809 60.3469 44.2267 60.1391 44.0986C59.9312 43.9704 59.772 43.7759 59.6868 43.5459C59.6016 43.3159 59.5953 43.0638 59.669 42.8299C60.8616 39.0434 62.0921 32.9098 61.7168 31.8251C61.6937 31.7649 61.6584 31.7102 61.6133 31.6644C61.5681 31.6186 61.5141 31.5827 61.4545 31.559C61.4165 31.542 61.3751 31.5344 61.3336 31.5366C61.2921 31.5389 61.2517 31.551 61.2157 31.5719C60.4484 32.0045 59.2927 35.7853 58.6022 38.0441C58.067 39.795 57.5614 41.4488 57.0557 42.5985C56.9454 42.8522 56.7504 43.0591 56.5045 43.1831C56.2587 43.3071 55.9775 43.3405 55.7098 43.2775C55.4725 43.2172 55.2648 43.0727 55.1248 42.8705C54.9848 42.6683 54.9219 42.422 54.9477 42.1769L54.9908 41.6643C55.2431 38.6721 55.7679 32.4458 55.2393 29.9678C55.2227 29.8661 55.1772 29.7714 55.1084 29.6951C55.0395 29.6188 54.9503 29.5642 54.8513 29.5379C54.7713 29.5106 54.6858 29.5039 54.6025 29.5185C54.5193 29.5331 54.441 29.5685 54.3748 29.6214C53.4135 30.6288 53.0806 34.6014 52.8376 37.5024C52.6905 39.2578 52.5515 40.9156 52.3011 42.0329C52.2403 42.3053 52.0856 42.5472 51.8644 42.7155C51.6433 42.8837 51.37 42.9676 51.0933 42.952C50.8166 42.9365 50.5543 42.8226 50.3531 42.6306C50.1519 42.4386 50.0248 42.1809 49.9943 41.9034C49.7496 39.7046 49.3944 37.5196 48.9302 35.357C48.0977 31.6125 47.4513 31.1577 47.4241 31.1401C47.3324 31.0777 47.223 31.0473 47.1125 31.0534C47.002 31.0596 46.8965 31.1021 46.8123 31.1744C46.0317 32.5565 46.4628 35.2719 46.7778 37.2565C46.8634 37.7955 46.9435 38.3046 46.9957 38.7473C47.0509 39.2252 47.1538 39.8136 47.2623 40.4366C47.7041 42.9737 48.2051 45.8493 46.9087 47.3559C46.374 47.9772 45.6194 48.2781 44.6636 48.2469C43.6142 48.2138 42.6525 47.47 41.6338 46.6825C40.6872 45.9517 39.7109 45.197 38.8644 45.197H38.8641Z" fill="white"/>
<path d="M14.6009 59C13.705 58.9944 12.8102 58.9373 11.9208 58.8289C5.94785 58.1394 5.15072 52.2922 4.51017 47.5941L4.4664 47.2726C4.27033 45.8406 3.10052 44.2112 2.06851 42.7734C0.855482 41.0836 -0.192127 39.6242 0.0299051 38.2689C0.0965244 37.8888 0.270899 37.5363 0.531985 37.2539C0.793072 36.9714 1.12971 36.7712 1.50128 36.6772C3.13297 36.3016 6.99118 40.8949 7.0228 40.9324C6.21338 37.8279 5.10957 32.8735 5.66217 31.2764C5.76507 30.986 5.92913 30.7215 6.1431 30.5011C6.35706 30.2806 6.61585 30.1094 6.90171 29.9992C7.16587 29.895 7.44977 29.8515 7.73274 29.8717C8.01571 29.892 8.29065 29.9755 8.53753 30.1163C9.79323 30.8243 11.9702 37.7005 11.9926 37.7735C11.7992 34.7688 11.6982 31.4311 12.0845 29.6182C12.1642 29.2201 12.3516 28.8521 12.626 28.5547C12.9004 28.2573 13.2512 28.0422 13.6394 27.9332C14.0084 27.8223 14.4001 27.8132 14.7738 27.9068C15.1474 28.0004 15.4893 28.1934 15.7636 28.4655C17.1322 29.8996 17.7955 37.8159 17.8145 38.0386C17.9824 37.0232 18.1793 35.97 18.3997 34.9797C19.2816 31.0188 20.0611 30.0913 20.6414 29.7258C20.8885 29.5675 21.1649 29.4613 21.4538 29.4137C21.7428 29.366 22.0383 29.3779 22.3226 29.4486C22.8309 29.5634 23.2736 29.8761 23.554 30.3186C24.6455 32.2104 24.1778 35.1548 23.8025 37.5212C23.7196 38.0424 23.4266 40.0789 23.314 40.7261C22.9928 42.5701 22.5073 45.3567 23.2876 46.2634C23.4119 46.4078 23.6449 46.5981 24.2286 46.5794C24.7442 46.5632 25.5359 45.9511 26.3015 45.3592C27.5548 44.3902 28.9747 43.2917 30.5856 43.5709C31.7064 43.7648 32.7436 44.6313 33.0516 45.631C33.1619 45.9617 33.1759 46.3173 33.0921 46.6558C33.0083 46.9943 32.8302 47.3016 32.5787 47.5415C31.5569 48.543 30.308 49.4862 28.9849 50.4848C27.264 51.7836 25.4846 53.1266 24.1909 54.6363C21.1932 58.1341 17.7982 58.9999 14.6009 59ZM1.86995 38.3047C1.71724 38.3104 1.66573 38.5396 1.66532 38.5412C1.55582 39.2089 2.54185 40.5829 3.41189 41.7949C4.55795 43.3909 5.85589 45.1996 6.10844 47.0442L6.15249 47.3665C6.77315 51.9197 7.41509 56.6281 12.1102 57.1702C15.7594 57.5918 19.5959 57.444 22.9372 53.545C24.348 51.8985 26.2004 50.5005 27.9918 49.1493C29.2707 48.1839 30.4789 47.2713 31.4232 46.3457C31.4792 46.2909 31.5088 46.2536 31.4696 46.1262C31.3608 45.7729 30.8399 45.3087 30.3055 45.2162C29.4098 45.0616 28.3425 45.886 27.3107 46.6838C26.2921 47.4712 25.3299 48.215 24.2809 48.2481C23.3282 48.2774 22.5706 47.9784 22.0359 47.3572C20.7395 45.8505 21.2404 42.9753 21.6823 40.4378C21.7908 39.8149 22.0812 37.7967 22.1668 37.2577C22.4818 35.2731 22.9124 32.5577 22.1323 31.1756C22.048 31.1033 21.9425 31.0608 21.832 31.0546C21.7215 31.0484 21.612 31.079 21.5203 31.1415C21.4927 31.1589 20.8469 31.6138 20.0144 35.3582C19.5502 37.5209 19.195 39.7058 18.9502 41.9046C18.9199 42.1822 18.7928 42.44 18.5916 42.6321C18.3903 42.8241 18.128 42.9381 17.8512 42.9536C17.5744 42.9691 17.3011 42.8852 17.08 42.7168C16.8588 42.5485 16.7041 42.3065 16.6434 42.034C16.3932 40.9169 16.2541 39.259 16.107 37.5036C15.864 34.6027 15.5311 30.63 14.5699 29.6226C14.5038 29.5697 14.4254 29.5343 14.3422 29.5197C14.2589 29.5051 14.1733 29.5118 14.0933 29.5391C13.9944 29.5655 13.9051 29.62 13.8363 29.6963C13.7674 29.7726 13.7219 29.8673 13.7053 29.969C13.177 32.447 13.7018 38.6734 13.9538 41.6655L13.9969 42.1781C14.0227 42.4233 13.9599 42.6696 13.8199 42.8718C13.6799 43.074 13.4721 43.2185 13.2349 43.2787C12.9671 43.3417 12.6859 43.3083 12.4401 43.1843C12.1943 43.0603 11.9993 42.8535 11.889 42.5998C11.3829 41.4501 10.8774 39.7962 10.3425 38.0453C9.65211 35.7865 8.49625 32.0058 7.72894 31.5732C7.69298 31.5522 7.6526 31.5401 7.61111 31.5378C7.56962 31.5356 7.52819 31.5433 7.4902 31.5602C7.43064 31.584 7.3766 31.6198 7.33145 31.6656C7.28631 31.7114 7.25104 31.766 7.22785 31.8262C6.85255 32.9112 8.08311 39.0446 9.27571 42.8311C9.34938 43.0651 9.34311 43.3172 9.2579 43.5471C9.17269 43.7771 9.01345 43.9717 8.80561 44.0998C8.59777 44.2279 8.35331 44.2822 8.11128 44.2539C7.86924 44.2257 7.64357 44.1165 7.47032 43.9439C6.93181 43.4062 4.03518 39.9591 3.27063 39.2363C2.33238 38.3501 1.97821 38.3008 1.86926 38.3047H1.86995Z" fill="white"/>
<path d="M60.0481 16.4677C59.2457 15.3046 57.7775 14.5846 56.2143 14.5846C55.449 14.5758 54.6949 14.7688 54.0268 15.1445C53.359 14.7689 52.605 14.5758 51.8399 14.5846C50.2745 14.5846 48.8078 15.3064 48.012 16.4684C47.5505 17.1302 47.2475 17.8904 47.1266 18.6896C47.0058 19.4888 47.0704 20.3053 47.3153 21.0752C47.9931 23.3008 49.9976 25.1624 52.9583 26.317L52.9673 26.3205C53.6496 26.5823 54.4038 26.5823 55.086 26.3205L55.095 26.317C58.0537 25.1632 60.058 23.3027 60.739 21.0781C60.9848 20.3081 61.0503 19.4912 60.9304 18.6915C60.8106 17.8917 60.5086 17.1306 60.0481 16.4677ZM54.4949 24.7608C54.1933 24.8768 53.8598 24.8768 53.5582 24.7608C48.9101 22.9483 47.8655 19.6133 49.3787 17.4166C49.8782 16.6873 50.8727 16.2553 51.8398 16.2553C52.6474 16.2553 53.4352 16.5566 53.8982 17.238C53.9119 17.2597 53.9309 17.2776 53.9533 17.29C53.9757 17.3023 54.0009 17.3088 54.0265 17.3088C54.0521 17.3088 54.0772 17.3023 54.0996 17.29C54.1221 17.2776 54.141 17.2597 54.1548 17.238C54.6179 16.5561 55.4059 16.2553 56.2142 16.2553C57.1817 16.2553 58.1785 16.6867 58.6816 17.4166C60.1876 19.6127 59.1428 22.9478 54.4949 24.7608Z" fill="white"/>
<path d="M23.8392 1.52928C23.2292 0.584294 22.1262 9.68596e-05 20.9575 9.68596e-05C20.4747 -0.00369077 19.9967 0.103647 19.5556 0.314904C19.1147 0.103662 18.6368 -0.0036766 18.154 9.68596e-05C16.984 9.68596e-05 15.8814 0.586134 15.2767 1.52985C14.9396 2.05335 14.7181 2.65263 14.6289 3.28207C14.5397 3.91151 14.5852 4.55454 14.7619 5.16223C15.2438 6.85228 16.6369 8.253 18.6847 9.10659L18.6932 9.11012C19.2486 9.33782 19.8624 9.33782 20.4178 9.11012L20.4263 9.10659C22.4726 8.25371 23.8658 6.85384 24.3493 5.16477C24.5268 4.55695 24.573 3.91363 24.4847 3.28369C24.3963 2.65375 24.1755 2.05376 23.8392 1.52928ZM19.8563 7.52364C19.663 7.60305 19.4493 7.60305 19.256 7.52364C16.2774 6.28223 15.6078 3.99794 16.5775 2.49337C16.8977 1.99392 17.5353 1.69808 18.1547 1.69808C18.6723 1.69808 19.1772 1.90436 19.4739 2.37098C19.4827 2.38592 19.4948 2.39822 19.5092 2.40675C19.5236 2.41528 19.5397 2.41975 19.5562 2.41975C19.5726 2.41975 19.5887 2.41528 19.6031 2.40675C19.6175 2.39822 19.6296 2.38592 19.6384 2.37098C19.9351 1.90408 20.4401 1.69808 20.9582 1.69808C21.5782 1.69808 22.2169 1.99378 22.5394 2.49337C23.5047 3.9978 22.8349 6.28209 19.8563 7.52364Z" fill="white"/>
<path d="M43.8371 13.7517C43.434 13.4779 42.962 13.331 42.4789 13.3291C42.2044 13.3289 41.9316 13.3739 41.6709 13.4625C41.6369 13.4747 41.6004 13.4773 41.5651 13.47C41.5298 13.4627 41.4971 13.4458 41.4704 13.421C41.4437 13.3963 41.4239 13.3646 41.4131 13.3293C41.4024 13.294 41.4011 13.2564 41.4094 13.2204C41.6863 12.0827 41.4838 11.0559 41.1241 10.4118C40.9478 10.0907 40.7088 9.81057 40.4222 9.58885C40.1356 9.36712 39.8076 9.2086 39.4586 9.12322C39.2491 9.06914 39.0339 9.04158 38.8178 9.04116C38.3877 9.03862 37.9644 9.1521 37.5903 9.37026C37.2161 9.58842 36.9042 9.90363 36.6856 10.2844C36.675 10.3033 36.6589 10.3184 36.6396 10.3274C36.6202 10.3364 36.5986 10.339 36.5778 10.3348C36.5569 10.3305 36.5379 10.3197 36.5233 10.3038C36.5087 10.2879 36.4994 10.2677 36.4965 10.2461C36.4026 9.4554 36.1319 8.4399 35.3763 7.85943C35.0924 7.62928 34.7644 7.46332 34.4138 7.37238C34.0632 7.28145 33.6979 7.2676 33.3417 7.33174C32.2147 7.50858 31.168 8.48418 30.774 10.5087C30.7535 10.6143 30.7209 10.7188 30.6961 10.8261C30.6862 10.8703 30.6638 10.9104 30.6317 10.9415C30.5996 10.9726 30.5592 10.9932 30.5158 11.0008C30.4723 11.0083 30.4276 11.0025 30.3873 10.984C30.3471 10.9655 30.313 10.9352 30.2895 10.8969C29.6064 9.75023 28.7562 9.17089 27.7554 9.17089C27.4537 9.17165 27.1546 9.22765 26.8721 9.33627C25.9011 9.70566 24.7773 10.6961 24.9373 13.3173C25.0155 14.5996 25.3618 16.0533 25.6966 17.4591C25.8412 18.0663 26.0279 18.8498 26.1475 19.4984C26.1612 19.5734 26.1555 19.6507 26.1311 19.7227C26.1067 19.7947 26.0643 19.8589 26.0083 19.9088C25.9522 19.9588 25.8844 19.9928 25.8116 20.0075C25.7389 20.0221 25.6636 20.017 25.5933 19.9925C25.4679 19.9486 23.7794 19.3161 22.8691 19.3161C22.5965 19.3159 22.3246 19.3428 22.057 19.3963C21.4019 19.5273 20.7959 19.8454 20.3087 20.3142C19.8214 20.783 19.4726 21.3834 19.3022 22.0467C19.0773 23.0037 19.3481 23.9028 20.0264 24.4517C20.7606 25.0459 24.9516 26.8911 25.8532 27.9338C28.1774 30.6218 30.4617 31.8202 33.2597 31.8202C33.9371 31.8122 34.6135 31.7623 35.2851 31.6705C38.0886 31.3204 40.1216 30.0294 41.3279 27.8328C42.286 26.0878 42.4825 24.1702 42.6124 22.9013L42.6366 22.6662C42.6967 22.0956 44.67 18.2508 44.9157 17.3343C45.5017 15.1476 44.3571 14.1001 43.8371 13.7517ZM40.9945 22.4832C40.7517 24.7911 40.4736 29.3119 35.0859 29.9847C34.4804 30.0683 33.8706 30.1142 33.2597 30.1221C31.3085 30.1221 29.4102 29.4913 27.0879 26.8057C25.2159 24.6411 22.5017 24.2935 21.0482 23.1173C20.5595 22.7212 21.1541 21.3065 22.374 21.062C22.5372 21.0293 22.7032 21.013 22.8695 21.0133C24.0901 21.0133 25.1575 21.8581 26.3131 21.8581C26.7635 21.8855 27.209 21.7494 27.5718 21.4736C29.0606 20.2623 24.8178 11.9278 27.4458 10.928C27.5449 10.8892 27.6498 10.869 27.7558 10.8681C29.5777 10.8681 30.2748 17.4663 31.1055 17.6623C31.1484 17.6716 31.1932 17.6644 31.2312 17.6419C32.0433 17.1416 31.5776 9.09124 33.7603 9.09124C36.1309 9.09124 34.3533 16.8829 35.1188 17.6843C35.1581 17.7145 35.2045 17.7333 35.2533 17.7388C35.302 17.7443 35.3513 17.7362 35.396 17.7155C36.3173 17.1467 36.9308 11.0218 38.8183 11.0218C38.8993 11.0221 38.9799 11.0326 39.0584 11.0532C41.2502 11.6164 38.5614 17.7631 38.8026 18.8313C38.816 18.8666 38.837 18.8983 38.8642 18.9241C38.8913 18.9498 38.9238 18.9688 38.9591 18.9797C38.9945 18.9907 39.0318 18.9931 39.0682 18.987C39.1047 18.9809 39.1393 18.9663 39.1694 18.9444C39.9927 18.461 41.1621 15.0273 42.4792 15.0269C42.6416 15.0281 42.7999 15.079 42.9341 15.173C44.6908 16.3525 41.2372 20.1745 40.9945 22.4827V22.4832Z" fill="white"/>
</svg>
