<svg width="52" height="57" viewBox="0 0 52 57" fill="none" xmlns="http://www.w3.org/2000/svg">
<path d="M42 52V45H40V51H6V2H40V6H42V1C42 0.734784 41.8946 0.48043 41.7071 0.292893C41.5196 0.105357 41.2652 0 41 0H5C4.73478 0 4.48043 0.105357 4.29289 0.292893C4.10536 0.48043 4 0.734784 4 1V52C4 52.2652 4.10536 52.5196 4.29289 52.7071C4.48043 52.8946 4.73478 53 5 53H41C41.2652 53 41.5196 52.8946 41.7071 52.7071C41.8946 52.5196 42 52.2652 42 52Z" fill="white"/>
<path d="M33 45H13V47H33V45Z" fill="white"/>
<path d="M29 27H17V29H29V27Z" fill="white"/>
<path d="M29 31H17V33H29V31Z" fill="white"/>
<path d="M29 35H17V37H29V35Z" fill="white"/>
<path d="M29 39H17V41H29V39Z" fill="white"/>
<path d="M48.249 26.006L46.838 25.3C45.97 22.391 44.282 18 42 18C41.2044 18 40.4413 18.3161 39.8787 18.8787C39.3161 19.4413 39 20.2044 39 21C39.0001 21.0672 39.0068 21.1342 39.02 21.2L39.78 25H36C34.9391 25 33.9217 25.4214 33.1716 26.1716C32.4214 26.9217 32 27.9391 32 29V39C32 40.0609 32.4214 41.0783 33.1716 41.8284C33.9217 42.5786 34.9391 43 36 43H40C40.032 43 40.062 42.992 40.094 42.991V43H44C44.0927 43.0001 44.1849 42.9873 44.274 42.962L51.274 40.962C51.4832 40.9024 51.6672 40.7763 51.7982 40.6027C51.9292 40.4291 52.0001 40.2175 52 40V31C52 27.975 50.6 26.127 48.249 26.006ZM40 31C40.2652 31 40.5196 31.1054 40.7071 31.2929C40.8946 31.4804 41 31.7348 41 32C41 32.2652 40.8946 32.5196 40.7071 32.7071C40.5196 32.8946 40.2652 33 40 33H36V35H40C40.2652 35 40.5196 35.1054 40.7071 35.2929C40.8946 35.4804 41 35.7348 41 36C41 36.2652 40.8946 36.5196 40.7071 36.7071C40.5196 36.8946 40.2652 37 40 37H36V39H40C40.2652 39 40.5196 39.1054 40.7071 39.2929C40.8946 39.4804 41 39.7348 41 40C41 40.2652 40.8946 40.5196 40.7071 40.7071C40.5196 40.8946 40.2652 41 40 41H36C35.4696 41 34.9609 40.7893 34.5858 40.4142C34.2107 40.0391 34 39.5304 34 39V29C34 28.4696 34.2107 27.9609 34.5858 27.5858C34.9609 27.2107 35.4696 27 36 27H40C40.2652 27 40.5196 27.1054 40.7071 27.2929C40.8946 27.4804 41 27.7348 41 28C41 28.2652 40.8946 28.5196 40.7071 28.7071C40.5196 28.8946 40.2652 29 40 29H36V31H40ZM50 39.246L43.86 41H42.816C43.0049 40.4936 43.0487 39.9446 42.9428 39.4146C42.8368 38.8847 42.5851 38.3948 42.216 38C42.7178 37.4549 42.9964 36.741 42.9964 36C42.9964 35.259 42.7178 34.5451 42.216 34C42.7178 33.4549 42.9964 32.741 42.9964 32C42.9964 31.259 42.7178 30.5451 42.216 30C42.4845 29.708 42.6915 29.365 42.8247 28.9914C42.9579 28.6178 43.0146 28.2212 42.9914 27.8252C42.9681 27.4292 42.8655 27.042 42.6895 26.6865C42.5135 26.331 42.2678 26.0146 41.967 25.756L41 20.918C41.0198 20.6708 41.1307 20.4398 41.3113 20.2698C41.4918 20.0998 41.7291 20.0029 41.977 19.998C42.687 20.17 44.145 23.161 45.036 26.275C45.0743 26.4082 45.1398 26.5321 45.2284 26.6386C45.3171 26.7452 45.4269 26.8322 45.551 26.894L47.551 27.894C47.6904 27.9638 47.8441 28.0001 48 28C48.5 28 50 28 50 31V39.246Z" fill="white"/>
<path d="M42.0078 8.87847L41.3516 14.2233L43.3357 14.4669L43.9919 9.12208L42.0078 8.87847Z" fill="white"/>
<path d="M37.6148 9.71312L35.7676 10.4797L38.2217 16.3937L40.069 15.6271L37.6148 9.71312Z" fill="white"/>
<path d="M32.924 14.8715L31.9609 16.6232L36.3424 19.0321L37.3054 17.2804L32.924 14.8715Z" fill="white"/>
<path d="M2 0H0V26H2V0Z" fill="white"/>
<path d="M2 28H0V30H2V28Z" fill="white"/>
<path d="M29.293 6.29297L27.024 8.56197C25.9153 7.56842 24.474 7.02717 22.9854 7.04529C21.4968 7.06342 20.0692 7.63959 18.985 8.65984C17.9008 9.68008 17.239 11.0701 17.1305 12.5549C17.0221 14.0397 17.4748 15.5111 18.3992 16.6781C19.3237 17.845 20.6524 18.6226 22.1226 18.8568C23.5928 19.0911 25.0974 18.765 26.3387 17.9431C27.58 17.1213 28.4676 15.8634 28.826 14.4185C29.1844 12.9735 28.9874 11.4466 28.274 10.14L30.707 7.70697L29.293 6.29297ZM23 17C22.3525 17.0046 21.7137 16.852 21.1382 16.5553C20.5628 16.2585 20.068 15.8266 19.6963 15.2964C19.3246 14.7663 19.0871 14.1539 19.0043 13.5118C18.9215 12.8697 18.9958 12.217 19.2208 11.6099C19.4458 11.0029 19.8148 10.4595 20.2961 10.0264C20.7774 9.5934 21.3566 9.28367 21.984 9.12385C22.6115 8.96403 23.2683 8.9589 23.8981 9.10889C24.5279 9.25888 25.1119 9.55951 25.6 9.98497L23 12.585L21.707 11.292L20.293 12.706L22.293 14.706C22.4805 14.8934 22.7348 14.9988 23 14.9988C23.2651 14.9988 23.5194 14.8934 23.707 14.706L26.753 11.66C26.9122 12.089 26.9958 12.5424 27 13C27 14.0608 26.5785 15.0782 25.8284 15.8284C25.0782 16.5785 24.0608 17 23 17Z" fill="white"/>
<path d="M44 55H36V57H45C45.2652 57 45.5196 56.8946 45.7071 56.7071C45.8946 56.5196 46 56.2652 46 56V50H44V55Z" fill="white"/>
<path d="M34 55H32V57H34V55Z" fill="white"/>
</svg>
