<svg width="18" height="20" viewBox="0 0 18 20" fill="none" xmlns="http://www.w3.org/2000/svg">
<path d="M7.33308 15.5429C7.83884 15.0372 8.34461 14.5314 8.85037 14.0256C9.83241 13.0436 10.8167 12.0593 11.7988 11.0772C12.4565 10.4195 13.1142 9.76179 13.7697 9.10634C13.8763 8.99975 13.9806 8.88861 14.0736 8.76841C14.2958 8.48491 14.4637 8.1946 14.602 7.86121C14.7177 7.57771 14.7767 7.28967 14.8175 6.98576C14.9649 5.84269 14.4727 4.62477 13.5633 3.91489C13.0938 3.54974 12.554 3.28438 11.9621 3.19593C11.3679 3.10748 10.7532 3.13923 10.1885 3.36149C9.72128 3.5452 9.3017 3.80149 8.94336 4.15756C8.89573 4.20519 8.8481 4.25282 8.80047 4.30045C8.11554 4.98538 7.4306 5.67032 6.74566 6.35526C5.75228 7.35091 4.75889 8.34429 3.76551 9.33768C3.10098 10.0022 2.43646 10.6667 1.77194 11.3313C1.36823 11.735 1.00535 12.1772 0.749067 12.6898C0.227426 13.7217 0.0754701 14.8807 0.295466 16.0124C0.50639 17.0942 1.11875 18.1285 1.97152 18.827C2.86965 19.5618 3.96963 19.9837 5.13311 19.9996C6.30567 20.0154 7.42606 19.6072 8.3446 18.8882C8.58501 18.7 8.79594 18.4823 9.00913 18.2691C9.75984 17.5184 10.5105 16.7677 11.2613 16.0169C12.2478 15.0304 13.2322 14.046 14.2187 13.0595C14.8061 12.4721 15.3936 11.8846 15.981 11.2972C17.3032 9.97499 18.0449 8.13337 17.9428 6.25773C17.8838 5.16456 17.5663 4.08952 16.997 3.15284C16.4096 2.19347 15.5727 1.37926 14.593 0.832671C12.6538 -0.249166 10.2543 -0.274114 8.28337 0.741951C7.66194 1.06174 7.10401 1.4972 6.61185 1.98935C6.36918 2.23203 6.12877 2.47244 5.88609 2.71511C4.96075 3.64046 4.0354 4.5658 3.11232 5.48888C2.27316 6.32804 1.43627 7.16493 0.597111 8.00409C0.463298 8.13791 0.329486 8.27172 0.195674 8.40553C-0.0560739 8.65728 -0.0742179 9.11995 0.195674 9.36716C0.467835 9.61664 0.889683 9.63705 1.15731 9.36716C1.4204 9.10407 1.68122 8.84325 1.9443 8.58017C2.5544 7.97007 3.16222 7.36225 3.77231 6.75216C4.46179 6.06268 5.15126 5.37321 5.83846 4.68601C6.33969 4.18478 6.84319 3.68128 7.34442 3.18005C7.44194 3.08253 7.53946 2.985 7.63699 2.88748C7.79575 2.72872 7.96131 2.57903 8.13595 2.43842C8.15182 2.42481 8.17224 2.41347 8.18811 2.39759C8.19718 2.38852 8.05884 2.49738 8.11554 2.45429C8.14956 2.42934 8.18358 2.40213 8.21986 2.37718C8.29471 2.32275 8.36955 2.27058 8.44666 2.22069C8.59862 2.1209 8.75511 2.03018 8.91387 1.94399C9.06356 1.86461 9.21552 1.79204 9.37201 1.72626C9.31758 1.74894 9.26315 1.77162 9.20871 1.7943C9.70087 1.58792 10.2157 1.4473 10.7442 1.37472C10.6829 1.3838 10.6239 1.3906 10.5627 1.39967C11.0889 1.33163 11.6196 1.33163 12.1435 1.39967C12.0823 1.3906 12.0233 1.3838 11.9621 1.37472C12.4905 1.4473 13.0054 1.58565 13.4975 1.7943C13.4431 1.77162 13.3886 1.74894 13.3342 1.72626C13.5973 1.83966 13.8513 1.96894 14.0963 2.11636C14.221 2.1912 14.3412 2.27058 14.4591 2.35677C14.4909 2.37945 14.5204 2.40213 14.5499 2.42254C14.5635 2.43161 14.5748 2.44295 14.5884 2.45202C14.6451 2.49512 14.5068 2.38625 14.5158 2.39532C14.568 2.44749 14.636 2.49058 14.6927 2.54048C14.9127 2.72645 15.1169 2.92604 15.3074 3.1415C15.355 3.19366 15.4004 3.24809 15.4457 3.30479C15.4707 3.33428 15.4933 3.36376 15.5183 3.39324C15.5841 3.47489 15.4185 3.25943 15.5002 3.37057C15.5863 3.48623 15.6703 3.60644 15.7474 3.72891C15.9243 4.00561 16.0762 4.29818 16.2055 4.59982C16.1828 4.54539 16.1601 4.49096 16.1375 4.43653C16.3438 4.92868 16.4845 5.44352 16.557 5.97196C16.548 5.91073 16.5412 5.85176 16.5321 5.79052C16.6001 6.3167 16.6001 6.84741 16.5321 7.37132C16.5412 7.31008 16.548 7.25112 16.557 7.18988C16.4845 7.71832 16.3461 8.23316 16.1375 8.72532C16.1601 8.67089 16.1828 8.61645 16.2055 8.56202C16.0422 8.94305 15.8426 9.30819 15.6022 9.64613C15.5705 9.68922 15.5387 9.73458 15.507 9.77767C15.4933 9.79581 15.4797 9.81169 15.4684 9.82983C15.5954 9.65293 15.5251 9.75726 15.4956 9.79581C15.4276 9.882 15.3573 9.96365 15.2847 10.0453C15.2098 10.1292 15.1327 10.2109 15.0534 10.2902C14.9445 10.3991 14.8379 10.5057 14.729 10.6146C14.128 11.2156 13.527 11.8166 12.9282 12.4154C12.1118 13.2318 11.2953 14.0483 10.4788 14.8648C9.79386 15.5497 9.10665 16.2369 8.42172 16.9219C8.23801 17.1056 8.05657 17.287 7.87286 17.4707C7.84111 17.5025 7.80709 17.5365 7.77534 17.5683C7.68915 17.6544 7.59843 17.7384 7.50544 17.8177C7.46462 17.854 7.42153 17.8858 7.37844 17.9198C7.55307 17.7746 7.41926 17.888 7.3739 17.9198C7.28318 17.9856 7.18792 18.0468 7.09267 18.1058C6.9203 18.2101 6.74113 18.3008 6.55515 18.3802C6.60958 18.3575 6.66402 18.3348 6.71845 18.3122C6.36237 18.4618 5.98815 18.5639 5.60486 18.6183C5.6661 18.6093 5.72506 18.6025 5.7863 18.5934C5.39393 18.6456 4.9993 18.6456 4.60694 18.5934C4.66817 18.6025 4.72714 18.6093 4.78838 18.6183C4.40509 18.5639 4.03087 18.4618 3.67479 18.3122C3.72922 18.3348 3.78365 18.3575 3.83809 18.3802C3.59314 18.2759 3.35954 18.1489 3.13727 18.0014C3.0783 17.9629 3.02161 17.9221 2.96491 17.8812C2.84243 17.7905 3.08284 17.9765 2.98532 17.8994C2.96037 17.879 2.93542 17.8586 2.9082 17.8381C2.80614 17.7542 2.70862 17.6635 2.61563 17.5705C2.52264 17.4775 2.43192 17.38 2.34801 17.278C2.3276 17.253 2.30718 17.2281 2.28677 17.2008C2.20966 17.1033 2.38203 17.3301 2.31399 17.2349C2.27316 17.1782 2.23234 17.1215 2.19152 17.0625C2.03956 16.838 1.91255 16.5976 1.80369 16.3481C1.82637 16.4025 1.84905 16.4569 1.87173 16.5114C1.72204 16.1553 1.61998 15.7811 1.56555 15.3978C1.57462 15.459 1.58142 15.518 1.5905 15.5792C1.53833 15.1869 1.53833 14.7922 1.5905 14.3999C1.58142 14.4611 1.57462 14.5201 1.56555 14.5813C1.61998 14.198 1.72204 13.8238 1.87173 13.4677C1.84905 13.5221 1.82637 13.5766 1.80369 13.631C1.88307 13.445 1.97379 13.2659 2.07812 13.0935C2.12801 13.0118 2.18018 12.9302 2.23688 12.8508C2.26182 12.8145 2.28677 12.7805 2.31172 12.7465C2.3843 12.6467 2.221 12.8622 2.27543 12.7941C2.29584 12.7692 2.31626 12.7419 2.33667 12.717C2.43192 12.6013 2.53625 12.4902 2.64285 12.3836C2.77212 12.2521 2.90367 12.1228 3.03294 11.9935C3.62716 11.3993 4.22138 10.8051 4.81786 10.2086C5.60032 9.42613 6.38052 8.64594 7.16298 7.86348C7.82977 7.19668 8.49656 6.52989 9.16335 5.8631C9.36067 5.66578 9.55572 5.47073 9.75303 5.27342C9.7984 5.22806 9.84602 5.18043 9.89138 5.13507C9.90045 5.126 9.90726 5.11919 9.91633 5.11012C9.94808 5.07837 9.97984 5.04662 10.0139 5.01713C10.0456 4.98765 10.0796 4.95817 10.1136 4.93095C10.1318 4.91507 10.2202 4.84703 10.1227 4.92415C10.0229 5.00126 10.1227 4.92641 10.1454 4.91054C10.3064 4.79714 10.4811 4.70188 10.6625 4.62477C10.6081 4.64745 10.5536 4.67013 10.4992 4.69281C10.7215 4.59982 10.9551 4.53632 11.1932 4.5023C11.132 4.51137 11.073 4.51817 11.0118 4.52725C11.2703 4.49323 11.5311 4.49323 11.7874 4.52725C11.7262 4.51817 11.6672 4.51137 11.606 4.5023C11.8441 4.53632 12.0755 4.59982 12.3 4.69281C12.2456 4.67013 12.1911 4.64745 12.1367 4.62477C12.2932 4.69054 12.4429 4.76992 12.5858 4.86518C12.6221 4.88786 12.6561 4.91507 12.6924 4.94002C12.7672 4.99219 12.6402 4.90147 12.6334 4.89239C12.647 4.90827 12.6697 4.91961 12.6833 4.93322C12.7513 4.98992 12.8171 5.04889 12.8783 5.11012C12.9373 5.16909 12.9917 5.23033 13.0462 5.29383C13.0598 5.30971 13.0734 5.32785 13.087 5.34373C13.1392 5.40496 12.994 5.21672 13.0394 5.28249C13.0643 5.31878 13.0893 5.3528 13.1142 5.38909C13.2117 5.53424 13.2934 5.69073 13.3637 5.85176C13.341 5.79733 13.3183 5.7429 13.2957 5.68846C13.3886 5.91073 13.4521 6.14433 13.4862 6.38247C13.4771 6.32124 13.4703 6.26227 13.4612 6.20103C13.4952 6.45958 13.4952 6.7204 13.4612 6.97669C13.4703 6.91545 13.4771 6.85648 13.4862 6.79525C13.4521 7.03339 13.3886 7.26472 13.2957 7.48926C13.3183 7.43482 13.341 7.38039 13.3637 7.32596C13.2979 7.48245 13.2185 7.63214 13.1233 7.77502C13.1029 7.80678 13.0802 7.83853 13.0598 7.86801C12.9713 7.99049 13.146 7.76142 13.0779 7.8476C13.019 7.92018 12.9577 7.99048 12.8919 8.05626C12.8715 8.07667 12.8534 8.09481 12.833 8.11522C12.7128 8.23543 12.5926 8.35563 12.4724 8.47584C11.9734 8.9748 11.4767 9.47149 10.9778 9.97045C10.3223 10.6259 9.66458 11.2836 9.00913 11.9391C8.42625 12.522 7.84111 13.1071 7.25823 13.69C6.9702 13.978 6.67536 14.2615 6.39186 14.5563C6.38732 14.5609 6.38278 14.5654 6.38052 14.5677C6.12877 14.8194 6.11062 15.2821 6.38052 15.5293C6.6436 15.7924 7.06545 15.8106 7.33308 15.5429Z" fill="white"/>
</svg>
