<svg width="59" height="59" viewBox="0 0 59 59" fill="none" xmlns="http://www.w3.org/2000/svg">
<path d="M57.007 20.9527L51.3928 6.08427C51.2288 5.64835 50.9802 5.24991 50.6616 4.91233C50.343 4.57476 49.9609 4.30486 49.5376 4.11848C49.1082 3.92556 48.6451 3.82119 48.1753 3.81148C47.7055 3.80177 47.2385 3.88692 46.8017 4.06194C46.3663 4.23229 45.9694 4.48968 45.6349 4.81866C45.3004 5.14764 45.035 5.54144 44.8548 5.97647C44.6756 6.40356 44.5836 6.8628 44.5844 7.32666C44.5852 7.79052 44.6787 8.24945 44.8594 8.67592L47.4759 14.8987C47.0114 14.8505 46.5421 14.9012 46.0982 15.0476C45.6543 15.194 45.2458 15.4329 44.899 15.7487C44.5523 16.0645 44.275 16.4503 44.0852 16.8812C43.8953 17.312 43.7971 17.7782 43.7969 18.2498V25.7159C43.7959 26.471 43.6218 27.2156 43.2883 27.8914C41.7462 31.0152 40.9416 34.4572 40.9375 37.9476V40.3873C40.6847 40.3873 40.4423 40.4887 40.2635 40.6692C40.0848 40.8497 39.9844 41.0945 39.9844 41.3498V58.6748H41.8906V42.3123H53.3281V58.6748H55.2344V41.3498C55.2344 41.0945 55.134 40.8497 54.9552 40.6692C54.7765 40.4887 54.534 40.3873 54.2813 40.3873H53.9179L56.8726 33.2014C58.4565 29.284 58.5045 24.9046 57.007 20.9527ZM55.1098 32.4696L51.8536 40.3873H42.8438V37.9476C42.8475 34.756 43.5833 31.6086 44.9933 28.7522C45.4589 27.809 45.7018 26.7698 45.7031 25.7159V18.2498C45.7036 17.8724 45.8506 17.5102 46.1124 17.2409C46.3742 16.9716 46.7301 16.8166 47.1038 16.8091C47.4775 16.8017 47.8391 16.9424 48.1113 17.2011C48.3834 17.4597 48.5444 17.8158 48.5596 18.1929C48.5607 18.2316 48.5625 18.2702 48.5625 18.3091V29.7998H50.4688V18.3091C50.4688 18.2893 50.4674 18.2696 50.4673 18.2498H50.4688C50.4688 18.1827 50.4663 18.1161 50.4623 18.0498C50.4328 17.3341 50.2753 16.6297 49.9977 15.9706L46.6141 7.92433C46.5336 7.73435 46.492 7.52993 46.4917 7.32331C46.4914 7.1167 46.5324 6.91215 46.6123 6.72193C46.6946 6.52428 46.8156 6.34546 46.9681 6.19619C47.1205 6.04692 47.3012 5.93028 47.4994 5.85327C47.7018 5.77218 47.9182 5.73272 48.136 5.7372C48.3537 5.74168 48.5683 5.79002 48.7673 5.87938C48.9596 5.96356 49.1334 6.08568 49.2783 6.23856C49.4233 6.39144 49.5366 6.57201 49.6115 6.76969L55.2258 21.6381C56.5505 25.1325 56.509 29.005 55.1098 32.4696Z" fill="white"/>
<path d="M51.4219 44.2374H49.5156V46.1624H51.4219V44.2374Z" fill="white"/>
<path d="M18.063 40.3873V37.9476C18.0588 34.4572 17.2542 31.0152 15.7122 27.8914C15.3786 27.2156 15.2045 26.471 15.2036 25.7159V18.2498C15.2034 17.7782 15.1051 17.312 14.9153 16.8812C14.7254 16.4503 14.4482 16.0645 14.1014 15.7487C13.7547 15.4329 13.3462 15.194 12.9023 15.0476C12.4584 14.9012 11.989 14.8505 11.5245 14.8987L14.1414 8.6752C14.322 8.2488 14.4154 7.78999 14.4161 7.32626C14.4168 6.86253 14.3248 6.40343 14.1456 5.97647C13.9654 5.54144 13.7001 5.14764 13.3656 4.81866C13.031 4.48968 12.6342 4.23229 12.1987 4.06194C11.762 3.88692 11.295 3.80177 10.8252 3.81148C10.3554 3.82119 9.89223 3.92556 9.46291 4.11848C9.03964 4.30488 8.6575 4.57478 8.33893 4.91235C8.02036 5.24992 7.77178 5.64836 7.60777 6.08427L1.99351 20.9527C0.495415 24.907 0.544276 29.2888 2.13016 33.208L5.08259 40.3873H4.71921C4.46642 40.3873 4.22399 40.4887 4.04525 40.6692C3.8665 40.8497 3.76608 41.0945 3.76608 41.3498V58.6748H5.67233V42.3123H17.1098V58.6748H19.0161V41.3498C19.0161 41.0945 18.9157 40.8497 18.7369 40.6692C18.5582 40.4887 18.3157 40.3873 18.063 40.3873ZM3.89321 32.4761C2.49182 29.01 2.44923 25.1352 3.77407 21.6385L9.38952 6.77005C9.46443 6.57237 9.57768 6.39179 9.72264 6.2389C9.86759 6.08602 10.0413 5.96391 10.2336 5.87974C10.4326 5.79038 10.6473 5.74204 10.865 5.73756C11.0827 5.73308 11.2991 5.77254 11.5015 5.85363C11.6997 5.93064 11.8804 6.04728 12.0329 6.19655C12.1853 6.34582 12.3063 6.52464 12.3886 6.72229C12.4685 6.91238 12.5095 7.1168 12.5093 7.32329C12.509 7.52978 12.4674 7.73409 12.3871 7.92397L9.0035 15.971C8.72584 16.6301 8.56843 17.3345 8.53886 18.0502C8.53492 18.1165 8.53242 18.1825 8.53242 18.2501H8.53385C8.53385 18.27 8.53242 18.2896 8.53242 18.3095V29.7998H10.438V18.3091C10.438 18.2702 10.4397 18.2316 10.4408 18.1929C10.4561 17.8158 10.617 17.4597 10.8892 17.2011C11.1613 16.9424 11.523 16.8017 11.8967 16.8091C12.2703 16.8166 12.6262 16.9716 12.8881 17.2409C13.1499 17.5102 13.2968 17.8724 13.2973 18.2498V25.7159C13.2986 26.7698 13.5416 27.809 14.0072 28.7522C15.4172 31.6086 16.1529 34.756 16.1567 37.9476V40.3873H7.14682L3.89321 32.4761Z" fill="white"/>
<path d="M9.48438 44.2374H7.57812V46.1624H9.48438V44.2374Z" fill="white"/>
<path d="M29.5005 45.1998C26.5486 45.2067 23.6291 44.5792 20.9358 43.3591L20.1562 45.1156C23.0968 46.4402 26.2806 47.1247 29.5005 47.1247C32.7203 47.1247 35.9041 46.4402 38.8447 45.1156L38.0651 43.3591C35.3718 44.5792 32.4523 45.2067 29.5005 45.1998Z" fill="white"/>
<path d="M29.5006 2.85004C34.118 2.83458 38.6089 4.37324 42.2637 7.22291L43.4251 5.69639C39.4299 2.60214 34.5355 0.925049 29.5006 0.925049C24.4657 0.925049 19.5714 2.60214 15.5762 5.69639L16.7376 7.22291C20.3923 4.37324 24.8832 2.83458 29.5006 2.85004Z" fill="white"/>
<path d="M35.2665 15.3623C34.5215 15.3602 33.7835 15.5074 33.0952 15.7953C32.4069 16.0832 31.782 16.5061 31.2566 17.0395L29.5001 18.8137L27.7434 17.0395C26.6771 15.9794 25.239 15.3879 23.7427 15.3938C22.2463 15.3997 20.8129 16.0026 19.7548 17.0711C18.6967 18.1396 18.0997 19.5871 18.0938 21.0981C18.0879 22.6092 18.6737 24.0614 19.7235 25.1383L28.8258 34.3301C28.9143 34.4195 29.0194 34.4904 29.135 34.5388C29.2507 34.5872 29.3746 34.6121 29.4998 34.6121C29.6249 34.6121 29.7489 34.5872 29.8645 34.5388C29.9802 34.4904 30.0852 34.4195 30.1738 34.3301L39.2761 25.1383C40.069 24.3374 40.609 23.317 40.8278 22.2062C41.0466 21.0954 40.9343 19.9441 40.5051 18.8977C40.076 17.8514 39.3492 16.957 38.4168 16.3277C37.4843 15.6984 36.3881 15.3624 35.2665 15.3623ZM37.9285 23.777L29.5001 32.2887L21.0715 23.777C20.7146 23.4257 20.4303 23.0063 20.2351 22.5431C20.04 22.0799 19.9378 21.5822 19.9346 21.0789C19.9315 20.5755 20.0273 20.0766 20.2165 19.6109C20.4058 19.1452 20.6848 18.7222 21.0372 18.3662C21.3897 18.0103 21.8086 17.7286 22.2697 17.5375C22.7309 17.3463 23.225 17.2495 23.7234 17.2527C24.2219 17.256 24.7147 17.3591 25.1734 17.5562C25.632 17.7532 26.0474 18.0403 26.3953 18.4008L28.8258 20.8551C28.9143 20.9445 29.0194 21.0154 29.135 21.0638C29.2507 21.1122 29.3746 21.1371 29.4998 21.1371C29.6249 21.1371 29.7489 21.1122 29.8645 21.0638C29.9802 21.0154 30.0852 20.9445 30.1738 20.8551L32.6042 18.4008C32.9522 18.0403 33.3675 17.7532 33.8262 17.5562C34.2848 17.3591 34.7777 17.256 35.2761 17.2527C35.7746 17.2495 36.2687 17.3463 36.7298 17.5375C37.1909 17.7286 37.6099 18.0103 37.9623 18.3662C38.3148 18.7222 38.5937 19.1452 38.783 19.6109C38.9723 20.0766 39.0681 20.5755 39.0649 21.0789C39.0617 21.5822 38.9596 22.0799 38.7644 22.5431C38.5693 23.0063 38.285 23.4257 37.928 23.777H37.9285Z" fill="white"/>
<path d="M23.1801 7.91358C23.7702 7.67745 24.3728 7.47469 24.9852 7.30624L24.4848 5.44897C23.8038 5.63626 23.1337 5.86171 22.4775 6.12429L23.1801 7.91358Z" fill="white"/>
<path d="M33.5126 42.8479L33.1133 40.9652C28.7754 41.9025 24.2467 41.1124 20.4716 38.7599L19.4668 40.3961C23.6607 43.0112 28.6927 43.8896 33.5126 42.8482V42.8479Z" fill="white"/>
<path d="M29.5008 4.77522C28.4933 4.77518 27.4874 4.85491 26.4922 5.01368L26.7908 6.91462C27.6872 6.77174 28.5933 6.70006 29.5008 6.70022C32.1153 6.69278 34.6964 7.29223 37.0449 8.45228C39.3934 9.61234 41.4465 11.302 43.0456 13.3907L44.5497 12.208C42.773 9.88745 40.4919 8.01031 37.8826 6.72154C35.2733 5.43277 32.4055 4.76686 29.5008 4.77522Z" fill="white"/>
</svg>
