<svg width="46" height="37" viewBox="0 0 46 37" fill="none" xmlns="http://www.w3.org/2000/svg">
<path d="M19.6473 13.9587L22.4692 16.7806C22.5388 16.8503 22.6215 16.9055 22.7125 16.9432C22.8035 16.9809 22.901 17.0003 22.9995 17.0003C23.098 17.0003 23.1955 16.9809 23.2865 16.9432C23.3775 16.9055 23.4602 16.8503 23.5299 16.7806L26.3517 13.9587C26.7378 13.5717 26.9546 13.0474 26.9547 12.5007C26.9548 11.954 26.7382 11.4297 26.3523 11.0425C26.1097 10.7983 25.821 10.6047 25.503 10.4729C25.1851 10.3411 24.8441 10.2737 24.4999 10.2745C23.9632 10.2732 23.4393 10.4379 22.9999 10.7461C22.4952 10.3949 21.8832 10.232 21.2707 10.286C20.6583 10.34 20.0842 10.6073 19.6487 11.0414C19.457 11.2329 19.305 11.4603 19.2012 11.7106C19.0974 11.9608 19.044 12.2291 19.0439 12.5C19.0439 12.771 19.0972 13.0393 19.2009 13.2896C19.3045 13.5399 19.4565 13.7673 19.6481 13.9589L19.6473 13.9587ZM20.7085 12.102C20.9185 11.8926 21.2031 11.7749 21.4997 11.7749C21.7964 11.7749 22.0809 11.8926 22.291 12.102L22.4691 12.2801C22.5387 12.3498 22.6214 12.405 22.7124 12.4427C22.8034 12.4804 22.9009 12.4998 22.9994 12.4998C23.0979 12.4998 23.1955 12.4804 23.2865 12.4427C23.3774 12.405 23.4601 12.3498 23.5298 12.2801L23.7079 12.102C23.8115 11.9977 23.9349 11.915 24.0707 11.8587C24.2065 11.8023 24.3522 11.7735 24.4992 11.7739C24.6463 11.7735 24.792 11.8023 24.9279 11.8587C25.0637 11.915 25.1871 11.9977 25.2908 12.102C25.396 12.2076 25.4551 12.3506 25.4551 12.4997C25.4551 12.6487 25.396 12.7917 25.2908 12.8973L22.9995 15.1896L20.7081 12.898C20.6558 12.8457 20.6143 12.7837 20.586 12.7154C20.5577 12.6471 20.5431 12.5739 20.5431 12.5C20.5431 12.4261 20.5577 12.3529 20.586 12.2846C20.6143 12.2163 20.6558 12.1543 20.7081 12.102H20.7085Z" fill="white"/>
<path d="M44.9563 3.52838L34.4563 0.52838C34.4469 0.525567 34.4368 0.524255 34.4272 0.521911C34.4127 0.518349 34.3982 0.514786 34.3835 0.512536C34.3688 0.510286 34.3568 0.508505 34.3434 0.506817C34.3282 0.504942 34.3131 0.503068 34.2978 0.50213C34.2844 0.501286 34.2712 0.501192 34.2579 0.501099C34.2425 0.501099 34.2273 0.501099 34.212 0.501661C34.1984 0.502317 34.185 0.503724 34.1716 0.50513C34.1566 0.506724 34.1418 0.508411 34.1269 0.510849C34.112 0.513286 34.0993 0.516286 34.0857 0.51938C34.0763 0.521443 34.0669 0.522661 34.0569 0.525286L23.007 3.47138L12.7062 0.52838C12.6969 0.525661 12.6869 0.524255 12.6773 0.521911C12.6627 0.518349 12.6482 0.514786 12.6334 0.512536C12.6201 0.510099 12.6068 0.508505 12.5935 0.506817C12.5782 0.504942 12.563 0.503068 12.5477 0.50213C12.5344 0.501286 12.5211 0.501192 12.5079 0.501099C12.4925 0.501099 12.4773 0.501099 12.462 0.501661C12.4484 0.502317 12.4349 0.503724 12.4214 0.50513C12.4079 0.506536 12.3918 0.508411 12.377 0.510849C12.3622 0.513286 12.3489 0.516286 12.3355 0.51938C12.3261 0.521536 12.3167 0.522755 12.3069 0.525286L1.05688 3.52529C0.897253 3.56782 0.756141 3.66187 0.655446 3.79282C0.554751 3.92378 0.500108 4.08431 0.5 4.24951V35.7495C0.50001 35.8645 0.526449 35.9779 0.577275 36.081C0.628101 36.1841 0.701953 36.2742 0.793126 36.3442C0.884298 36.4143 0.99035 36.4624 1.10309 36.4849C1.21583 36.5074 1.33223 36.5037 1.44331 36.4741L12.493 33.5276L22.7938 36.4706C22.8125 36.476 22.8313 36.4786 22.8495 36.4824C22.8619 36.485 22.874 36.4883 22.8865 36.4902C22.924 36.4962 22.962 36.4993 23 36.4995C23.0368 36.4992 23.0735 36.4963 23.1099 36.4907C23.1217 36.4889 23.1331 36.486 23.1448 36.4838C23.161 36.4806 23.1772 36.4784 23.1933 36.4744L34.243 33.5276L44.5437 36.4706C44.6554 36.5026 44.7729 36.5081 44.8871 36.4869C45.0012 36.4657 45.1089 36.4183 45.2016 36.3484C45.2943 36.2785 45.3695 36.188 45.4213 36.0841C45.4731 35.9801 45.5 35.8656 45.5 35.7495V4.24951C45.5 4.08655 45.4469 3.92803 45.3488 3.79792C45.2507 3.66781 45.1129 3.57319 44.9563 3.52838ZM41 28.9995H38V27.8101L38.8981 26.9121L41 27.963V28.9995ZM42.0854 26.8287L39.0854 25.3287C38.9446 25.2583 38.7852 25.234 38.6298 25.2593C38.4745 25.2845 38.3309 25.358 38.2197 25.4694L36.7197 26.9694C36.5791 27.11 36.5 27.3007 36.5 27.4995V28.9995H35V13.9995H44V28.9995H42.5V27.4995C42.5 27.3602 42.4612 27.2237 42.388 27.1052C42.3148 26.9868 42.21 26.891 42.0854 26.8287ZM28.25 28.9995H26.75V27.8101L27.5 27.0601L28.25 27.8101V28.9995ZM29.5303 26.9692L28.0303 25.4692C27.9607 25.3995 27.878 25.3443 27.787 25.3066C27.696 25.2689 27.5985 25.2495 27.5 25.2495C27.4015 25.2495 27.304 25.2689 27.213 25.3066C27.122 25.3443 27.0393 25.3995 26.9697 25.4692L25.4697 26.9692C25.4 27.0388 25.3448 27.1215 25.3071 27.2125C25.2694 27.3035 25.25 27.401 25.25 27.4995V28.9995H23.75V26.2118L28.0664 19.1976C29.0339 17.6256 29.6032 15.8413 29.7247 13.9995H33.5V28.9995H29.75V27.4995C29.75 27.401 29.7306 27.3035 29.6929 27.2125C29.6552 27.1215 29.6 27.0388 29.5303 26.9692ZM13.25 24.5061L14.0094 24.4995C14.805 24.4995 15.5681 24.1834 16.1307 23.6208C16.6933 23.0582 17.0094 22.2952 17.0094 21.4995C17.0094 20.7039 16.6933 19.9408 16.1307 19.3782C15.5681 18.8156 14.805 18.4995 14.0094 18.4995H13.25V13.9995H16.2753C16.3968 15.8413 16.966 17.6256 17.9336 19.1975L22.25 26.2118V28.9995H13.25V24.5061ZM11.75 28.9995H8.73688C8.44376 28.9996 8.15351 28.9417 7.88278 28.8294C7.61206 28.717 7.36617 28.5523 7.15923 28.3447C6.95228 28.1372 6.78835 27.8908 6.67684 27.6197C6.56532 27.3486 6.50841 27.0582 6.50937 26.7651C6.51338 26.1797 6.7469 25.6192 7.15975 25.2041C7.57259 24.789 8.1318 24.5525 8.71719 24.5454L11.7496 24.5191L11.75 28.9995ZM13.25 23.0061V19.9995H14.0094C14.4072 20.0004 14.7884 20.1592 15.0691 20.4411C15.3498 20.723 15.507 21.1049 15.5062 21.5027C15.5053 21.9005 15.3465 22.2817 15.0646 22.5624C14.7827 22.8431 14.4008 23.0004 14.003 22.9995L13.25 23.0061ZM8 18.4995H6.5V17.3101L7.25 16.5601L8 17.3101V18.4995ZM9.28034 16.4692L7.78034 14.9692C7.7107 14.8995 7.62802 14.8443 7.53702 14.8066C7.44602 14.7689 7.34849 14.7495 7.25 14.7495C7.15151 14.7495 7.05398 14.7689 6.96298 14.8066C6.87198 14.8443 6.7893 14.8995 6.71966 14.9692L5.21966 16.4692C5.15001 16.5388 5.09477 16.6215 5.05708 16.7125C5.01939 16.8035 5 16.901 5 16.9995V18.4995H2V13.9995H11.75V18.4995H9.5V16.9995C9.5 16.901 9.48061 16.8035 9.44292 16.7125C9.40523 16.6215 9.34999 16.5388 9.28034 16.4692ZM23 7.99951C24.0384 7.99951 25.0534 8.30741 25.9167 8.88429C26.7801 9.46117 27.453 10.2811 27.8504 11.2404C28.2477 12.1997 28.3517 13.2553 28.1491 14.2737C27.9466 15.2921 27.4465 16.2276 26.7123 16.9618C25.9781 17.696 25.0426 18.1961 24.0242 18.3986C23.0058 18.6012 21.9502 18.4972 20.9909 18.0999C20.0316 17.7025 19.2117 17.0296 18.6348 16.1663C18.0579 15.3029 17.75 14.2879 17.75 13.2495C17.7516 11.8576 18.3052 10.5231 19.2894 9.53892C20.2736 8.5547 21.6081 8.00107 23 7.99951ZM23 24.5684L19.6321 19.0955C20.6558 19.6877 21.8174 19.9995 23 19.9995C24.1826 19.9995 25.3443 19.6877 26.368 19.0955L23 24.5684ZM44 12.4995H35V2.24372L44 4.81519V12.4995ZM33.5 12.4995H29.7073C29.5351 10.9789 28.852 9.5617 27.7699 8.47958C26.6878 7.39747 25.2706 6.71445 23.75 6.54216V4.82569L33.5 2.22572V12.4995ZM22.25 6.54216C20.7294 6.71445 19.3122 7.39747 18.2301 8.47958C17.148 9.5617 16.4649 10.9789 16.2927 12.4995H13.25V2.24372L22.25 4.81519V6.54216ZM11.75 2.22572V12.4995H2V4.82569L11.75 2.22572ZM2 19.9995H11.75V23.019L8.70463 23.0454C7.7249 23.0572 6.78894 23.453 6.09794 24.1476C5.40694 24.8423 5.01608 25.7803 5.00937 26.7601C5.00775 27.2506 5.10296 27.7366 5.28956 28.1903C5.47616 28.6439 5.75048 29.0563 6.09678 29.4037C6.44308 29.7511 6.85455 30.0267 7.30759 30.2148C7.76064 30.4028 8.24635 30.4996 8.73688 30.4995H11.75V32.1733L2 34.7733V19.9995ZM13.25 30.4995H22.25V34.7558L13.25 32.1843V30.4995ZM23.75 30.4995H33.5V32.1733L23.75 34.7733V30.4995ZM35 32.1838V30.4995H44V34.7558L35 32.1838Z" fill="white"/>
</svg>
