<svg width="58" height="56" viewBox="0 0 58 56" fill="none" xmlns="http://www.w3.org/2000/svg">
<path d="M48 6C48 5.20435 47.6839 4.44129 47.1213 3.87868C46.5587 3.31607 45.7957 3 45 3H42C42 2.20435 41.6839 1.44129 41.1213 0.87868C40.5587 0.316071 39.7957 0 39 0C38.2043 0 37.4413 0.316071 36.8787 0.87868C36.3161 1.44129 36 2.20435 36 3H32C32 2.20435 31.6839 1.44129 31.1213 0.87868C30.5587 0.316071 29.7956 0 29 0C28.2044 0 27.4413 0.316071 26.8787 0.87868C26.3161 1.44129 26 2.20435 26 3H22C22 2.20435 21.6839 1.44129 21.1213 0.87868C20.5587 0.316071 19.7956 0 19 0C18.2044 0 17.4413 0.316071 16.8787 0.87868C16.3161 1.44129 16 2.20435 16 3H12C12 2.20435 11.6839 1.44129 11.1213 0.87868C10.5587 0.316071 9.79565 0 9 0C8.20435 0 7.44129 0.316071 6.87868 0.87868C6.31607 1.44129 6 2.20435 6 3H3C2.20435 3 1.44129 3.31607 0.87868 3.87868C0.316071 4.44129 0 5.20435 0 6V48C0 48.2652 0.105357 48.5196 0.292893 48.7071C0.48043 48.8946 0.734784 49 1 49H4V52C4 52.2652 4.10536 52.5196 4.29289 52.7071C4.48043 52.8946 4.73478 53 5 53H31.333C31.346 53 31.356 52.993 31.368 52.993C33.3102 54.3325 35.5102 55.2527 37.8277 55.695C40.1452 56.1373 42.5295 56.092 44.8285 55.562C47.1275 55.0319 49.2909 54.0288 51.1809 52.6165C53.0708 51.2041 54.6458 49.4136 55.8055 47.3589C56.9652 45.3043 57.6842 43.0306 57.9166 40.6827C58.149 38.3348 57.8898 35.9643 57.1555 33.7221C56.4212 31.48 55.2278 29.4154 53.6515 27.6599C52.0752 25.9044 50.1505 24.4965 48 23.526V6ZM38 3C38 2.73478 38.1054 2.48043 38.2929 2.29289C38.4804 2.10536 38.7348 2 39 2C39.2652 2 39.5196 2.10536 39.7071 2.29289C39.8946 2.48043 40 2.73478 40 3V6H38V3ZM28 3C28 2.73478 28.1054 2.48043 28.2929 2.29289C28.4804 2.10536 28.7348 2 29 2C29.2652 2 29.5196 2.10536 29.7071 2.29289C29.8946 2.48043 30 2.73478 30 3V6H28V3ZM18 3C18 2.73478 18.1054 2.48043 18.2929 2.29289C18.4804 2.10536 18.7348 2 19 2C19.2652 2 19.5196 2.10536 19.7071 2.29289C19.8946 2.48043 20 2.73478 20 3V6H18V3ZM8 3C8 2.73478 8.10536 2.48043 8.29289 2.29289C8.48043 2.10536 8.73478 2 9 2C9.26522 2 9.51957 2.10536 9.70711 2.29289C9.89464 2.48043 10 2.73478 10 3V6H8V3ZM2 6C2 5.73478 2.10536 5.48043 2.29289 5.29289C2.48043 5.10536 2.73478 5 3 5H6V7C6 7.26522 6.10536 7.51957 6.29289 7.70711C6.48043 7.89464 6.73478 8 7 8H11C11.2652 8 11.5196 7.89464 11.7071 7.70711C11.8946 7.51957 12 7.26522 12 7V5H16V7C16 7.26522 16.1054 7.51957 16.2929 7.70711C16.4804 7.89464 16.7348 8 17 8H21C21.2652 8 21.5196 7.89464 21.7071 7.70711C21.8946 7.51957 22 7.26522 22 7V5H26V7C26 7.26522 26.1054 7.51957 26.2929 7.70711C26.4804 7.89464 26.7348 8 27 8H31C31.2652 8 31.5196 7.89464 31.7071 7.70711C31.8946 7.51957 32 7.26522 32 7V5H36V7C36 7.26522 36.1054 7.51957 36.2929 7.70711C36.4804 7.89464 36.7348 8 37 8H41C41.2652 8 41.5196 7.89464 41.7071 7.70711C41.8946 7.51957 42 7.26522 42 7V5H45C45.2652 5 45.5196 5.10536 45.7071 5.29289C45.8946 5.48043 46 5.73478 46 6V11H2V6ZM6 49H27.283C27.7937 49.7089 28.358 50.3775 28.971 51H6V49ZM56 39C56 41.9667 55.1203 44.8668 53.472 47.3336C51.8238 49.8003 49.4811 51.7229 46.7402 52.8582C43.9994 53.9935 40.9834 54.2906 38.0736 53.7118C35.1639 53.133 32.4912 51.7044 30.3934 49.6066C28.2956 47.5088 26.867 44.8361 26.2882 41.9264C25.7094 39.0166 26.0065 36.0006 27.1418 33.2598C28.2771 30.5189 30.1997 28.1762 32.6664 26.528C35.1332 24.8797 38.0333 24 41 24C44.9769 24.0045 48.7896 25.5863 51.6016 28.3984C54.4137 31.2104 55.9955 35.0231 56 39ZM41 22C38.0637 21.9979 35.177 22.757 32.6215 24.2031C30.066 25.6492 27.929 27.733 26.4188 30.2512C24.9087 32.7694 24.0771 35.636 24.0051 38.5714C23.9331 41.5068 24.6232 44.4108 26.008 47H2V13H46V22.753C44.3804 22.2532 42.695 21.9993 41 22Z" fill="#83D2FF"/>
<path d="M9 17C8.40666 17 7.82664 17.1759 7.33329 17.5056C6.83994 17.8352 6.45543 18.3038 6.22836 18.8519C6.0013 19.4001 5.94189 20.0033 6.05765 20.5853C6.1734 21.1672 6.45912 21.7018 6.87868 22.1213C7.29824 22.5409 7.83279 22.8266 8.41473 22.9424C8.99667 23.0581 9.59987 22.9987 10.1481 22.7716C10.6962 22.5446 11.1648 22.1601 11.4944 21.6667C11.8241 21.1734 12 20.5933 12 20C12 19.2044 11.6839 18.4413 11.1213 17.8787C10.5587 17.3161 9.79565 17 9 17ZM9 21C8.80222 21 8.60888 20.9414 8.44443 20.8315C8.27998 20.7216 8.15181 20.5654 8.07612 20.3827C8.00043 20.2 7.98063 19.9989 8.01922 19.8049C8.0578 19.6109 8.15304 19.4327 8.2929 19.2929C8.43275 19.153 8.61093 19.0578 8.80491 19.0192C8.99889 18.9806 9.19996 19.0004 9.38269 19.0761C9.56541 19.1518 9.72159 19.28 9.83147 19.4444C9.94135 19.6089 10 19.8022 10 20C10 20.2652 9.89464 20.5196 9.70711 20.7071C9.51957 20.8946 9.26522 21 9 21Z" fill="#83D2FF"/>
<path d="M19 17C18.4067 17 17.8266 17.1759 17.3333 17.5056C16.8399 17.8352 16.4554 18.3038 16.2284 18.8519C16.0013 19.4001 15.9419 20.0033 16.0576 20.5853C16.1734 21.1672 16.4591 21.7018 16.8787 22.1213C17.2982 22.5409 17.8328 22.8266 18.4147 22.9424C18.9967 23.0581 19.5999 22.9987 20.1481 22.7716C20.6962 22.5446 21.1648 22.1601 21.4944 21.6667C21.8241 21.1734 22 20.5933 22 20C22 19.2044 21.6839 18.4413 21.1213 17.8787C20.5587 17.3161 19.7957 17 19 17ZM19 21C18.8022 21 18.6089 20.9414 18.4444 20.8315C18.28 20.7216 18.1518 20.5654 18.0761 20.3827C18.0004 20.2 17.9806 19.9989 18.0192 19.8049C18.0578 19.6109 18.153 19.4327 18.2929 19.2929C18.4327 19.153 18.6109 19.0578 18.8049 19.0192C18.9989 18.9806 19.2 19.0004 19.3827 19.0761C19.5654 19.1518 19.7216 19.28 19.8315 19.4444C19.9414 19.6089 20 19.8022 20 20C20 20.2652 19.8946 20.5196 19.7071 20.7071C19.5196 20.8946 19.2652 21 19 21Z" fill="#83D2FF"/>
<path d="M29 17C28.4067 17 27.8266 17.1759 27.3333 17.5056C26.8399 17.8352 26.4554 18.3038 26.2284 18.8519C26.0013 19.4001 25.9419 20.0033 26.0576 20.5853C26.1734 21.1672 26.4591 21.7018 26.8787 22.1213C27.2982 22.5409 27.8328 22.8266 28.4147 22.9424C28.9967 23.0581 29.5999 22.9987 30.148 22.7716C30.6962 22.5446 31.1648 22.1601 31.4944 21.6667C31.8241 21.1734 32 20.5933 32 20C32 19.2044 31.6839 18.4413 31.1213 17.8787C30.5587 17.3161 29.7957 17 29 17ZM29 21C28.8022 21 28.6089 20.9414 28.4444 20.8315C28.28 20.7216 28.1518 20.5654 28.0761 20.3827C28.0004 20.2 27.9806 19.9989 28.0192 19.8049C28.0578 19.6109 28.153 19.4327 28.2929 19.2929C28.4327 19.153 28.6109 19.0578 28.8049 19.0192C28.9989 18.9806 29.2 19.0004 29.3827 19.0761C29.5654 19.1518 29.7216 19.28 29.8315 19.4444C29.9414 19.6089 30 19.8022 30 20C30 20.2652 29.8946 20.5196 29.7071 20.7071C29.5196 20.8946 29.2652 21 29 21Z" fill="#83D2FF"/>
<path d="M9 25C8.40666 25 7.82664 25.1759 7.33329 25.5056C6.83994 25.8352 6.45543 26.3038 6.22836 26.8519C6.0013 27.4001 5.94189 28.0033 6.05765 28.5853C6.1734 29.1672 6.45912 29.7018 6.87868 30.1213C7.29824 30.5409 7.83279 30.8266 8.41473 30.9424C8.99667 31.0581 9.59987 30.9987 10.1481 30.7716C10.6962 30.5446 11.1648 30.1601 11.4944 29.6667C11.8241 29.1734 12 28.5933 12 28C12 27.2044 11.6839 26.4413 11.1213 25.8787C10.5587 25.3161 9.79565 25 9 25ZM9 29C8.80222 29 8.60888 28.9414 8.44443 28.8315C8.27998 28.7216 8.15181 28.5654 8.07612 28.3827C8.00043 28.2 7.98063 27.9989 8.01922 27.8049C8.0578 27.6109 8.15304 27.4327 8.2929 27.2929C8.43275 27.153 8.61093 27.0578 8.80491 27.0192C8.99889 26.9806 9.19996 27.0004 9.38269 27.0761C9.56541 27.1518 9.72159 27.28 9.83147 27.4444C9.94135 27.6089 10 27.8022 10 28C10 28.2652 9.89464 28.5196 9.70711 28.7071C9.51957 28.8946 9.26522 29 9 29Z" fill="#83D2FF"/>
<path d="M19 25C18.4067 25 17.8266 25.1759 17.3333 25.5056C16.8399 25.8352 16.4554 26.3038 16.2284 26.8519C16.0013 27.4001 15.9419 28.0033 16.0576 28.5853C16.1734 29.1672 16.4591 29.7018 16.8787 30.1213C17.2982 30.5409 17.8328 30.8266 18.4147 30.9424C18.9967 31.0581 19.5999 30.9987 20.1481 30.7716C20.6962 30.5446 21.1648 30.1601 21.4944 29.6667C21.8241 29.1734 22 28.5933 22 28C22 27.2044 21.6839 26.4413 21.1213 25.8787C20.5587 25.3161 19.7957 25 19 25ZM19 29C18.8022 29 18.6089 28.9414 18.4444 28.8315C18.28 28.7216 18.1518 28.5654 18.0761 28.3827C18.0004 28.2 17.9806 27.9989 18.0192 27.8049C18.0578 27.6109 18.153 27.4327 18.2929 27.2929C18.4327 27.153 18.6109 27.0578 18.8049 27.0192C18.9989 26.9806 19.2 27.0004 19.3827 27.0761C19.5654 27.1518 19.7216 27.28 19.8315 27.4444C19.9414 27.6089 20 27.8022 20 28C20 28.2652 19.8946 28.5196 19.7071 28.7071C19.5196 28.8946 19.2652 29 19 29Z" fill="#83D2FF"/>
<path d="M9 33C8.40666 33 7.82664 33.1759 7.33329 33.5056C6.83994 33.8352 6.45543 34.3038 6.22836 34.852C6.0013 35.4001 5.94189 36.0033 6.05765 36.5853C6.1734 37.1672 6.45912 37.7018 6.87868 38.1213C7.29824 38.5409 7.83279 38.8266 8.41473 38.9424C8.99667 39.0581 9.59987 38.9987 10.1481 38.7716C10.6962 38.5446 11.1648 38.1601 11.4944 37.6667C11.8241 37.1734 12 36.5933 12 36C12 35.2044 11.6839 34.4413 11.1213 33.8787C10.5587 33.3161 9.79565 33 9 33ZM9 37C8.80222 37 8.60888 36.9414 8.44443 36.8315C8.27998 36.7216 8.15181 36.5654 8.07612 36.3827C8.00043 36.2 7.98063 35.9989 8.01922 35.8049C8.0578 35.6109 8.15304 35.4327 8.2929 35.2929C8.43275 35.153 8.61093 35.0578 8.80491 35.0192C8.99889 34.9806 9.19996 35.0004 9.38269 35.0761C9.56541 35.1518 9.72159 35.28 9.83147 35.4444C9.94135 35.6089 10 35.8022 10 36C10 36.2652 9.89464 36.5196 9.70711 36.7071C9.51957 36.8946 9.26522 37 9 37Z" fill="#83D2FF"/>
<path d="M19 33C18.4067 33 17.8266 33.1759 17.3333 33.5056C16.8399 33.8352 16.4554 34.3038 16.2284 34.852C16.0013 35.4001 15.9419 36.0033 16.0576 36.5853C16.1734 37.1672 16.4591 37.7018 16.8787 38.1213C17.2982 38.5409 17.8328 38.8266 18.4147 38.9424C18.9967 39.0581 19.5999 38.9987 20.1481 38.7716C20.6962 38.5446 21.1648 38.1601 21.4944 37.6667C21.8241 37.1734 22 36.5933 22 36C22 35.2044 21.6839 34.4413 21.1213 33.8787C20.5587 33.3161 19.7957 33 19 33ZM19 37C18.8022 37 18.6089 36.9414 18.4444 36.8315C18.28 36.7216 18.1518 36.5654 18.0761 36.3827C18.0004 36.2 17.9806 35.9989 18.0192 35.8049C18.0578 35.6109 18.153 35.4327 18.2929 35.2929C18.4327 35.153 18.6109 35.0578 18.8049 35.0192C18.9989 34.9806 19.2 35.0004 19.3827 35.0761C19.5654 35.1518 19.7216 35.28 19.8315 35.4444C19.9414 35.6089 20 35.8022 20 36C20 36.2652 19.8946 36.5196 19.7071 36.7071C19.5196 36.8946 19.2652 37 19 37Z" fill="#83D2FF"/>
<path d="M28 39C28 41.5712 28.7624 44.0846 30.1909 46.2224C31.6194 48.3603 33.6497 50.0265 36.0251 51.0104C38.4006 51.9944 41.0144 52.2518 43.5362 51.7502C46.0579 51.2486 48.3743 50.0105 50.1924 48.1924C52.0105 46.3743 53.2486 44.0579 53.7502 41.5362C54.2518 39.0144 53.9944 36.4006 53.0104 34.0251C52.0265 31.6497 50.3603 29.6194 48.2224 28.1909C46.0846 26.7624 43.5712 26 41 26C37.5534 26.004 34.2491 27.3749 31.812 29.812C29.3749 32.2491 28.004 35.5534 28 39ZM52 39H50C49.7348 39 49.4804 39.1054 49.2929 39.2929C49.1054 39.4804 49 39.7348 49 40C49 40.2652 49.1054 40.5196 49.2929 40.7071C49.4804 40.8946 49.7348 41 50 41H51.809C51.3702 43.3557 50.175 45.504 48.4048 47.119C46.6346 48.734 44.386 49.7276 42 49.949V48C42 47.7348 41.8946 47.4804 41.7071 47.2929C41.5196 47.1054 41.2652 47 41 47C40.7348 47 40.4804 47.1054 40.2929 47.2929C40.1054 47.4804 40 47.7348 40 48V49.949C37.614 49.7276 35.3654 48.734 33.5952 47.119C31.825 45.504 30.6298 43.3557 30.191 41H32C32.2652 41 32.5196 40.8946 32.7071 40.7071C32.8946 40.5196 33 40.2652 33 40C33 39.7348 32.8946 39.4804 32.7071 39.2929C32.5196 39.1054 32.2652 39 32 39H30C30.0036 36.2573 31.0308 33.6148 32.8804 31.5896C34.73 29.5645 37.2689 28.3026 40 28.051V30C40 30.2652 40.1054 30.5196 40.2929 30.7071C40.4804 30.8946 40.7348 31 41 31C41.2652 31 41.5196 30.8946 41.7071 30.7071C41.8946 30.5196 42 30.2652 42 30V28.051C44.7311 28.3026 47.27 29.5645 49.1196 31.5896C50.9692 33.6148 51.9964 36.2573 52 39Z" fill="#83D2FF"/>
<path d="M41.2151 38.52L39.8321 36.445C39.6849 36.2243 39.4561 36.0712 39.196 36.0192C38.9359 35.9673 38.6658 36.0208 38.4451 36.168C38.2245 36.3152 38.0713 36.544 38.0194 36.8041C37.9674 37.0642 38.0209 37.3343 38.1681 37.555L40.1681 40.555C40.246 40.6715 40.3475 40.7703 40.466 40.8451C40.5845 40.9199 40.7174 40.9689 40.8561 40.989C40.9037 40.9966 40.9519 41.0003 41.0001 41C41.2339 41.0002 41.4604 40.9184 41.6401 40.769L47.6401 35.769C47.8441 35.5993 47.9723 35.3555 47.9964 35.0912C48.0206 34.827 47.9389 34.5639 47.7691 34.36C47.5994 34.156 47.3556 34.0279 47.0913 34.0037C46.8271 33.9795 46.5641 34.0613 46.3601 34.231L41.2151 38.52Z" fill="#83D2FF"/>
</svg>
