<svg width="20" height="20" viewBox="0 0 20 20" fill="none" xmlns="http://www.w3.org/2000/svg">
<path fill-rule="evenodd" clip-rule="evenodd" d="M20 18.8962C20 19.5058 19.5057 20 18.8962 20H12.7738V13.083H15.1693L15.528 10.1943H12.7738V8.34988C12.7738 7.51351 12.9974 6.94355 14.1522 6.94355L15.625 6.94288V4.35923C15.3702 4.32402 14.4959 4.24536 13.4789 4.24536C11.3554 4.24536 9.90166 5.59158 9.90166 8.06389V10.1943H7.5V13.083H9.90166V20H1.10383C0.494062 20 0 19.5058 0 18.8962V1.10382C0 0.494139 0.494062 0 1.10383 0H18.8962C19.5057 0 20 0.494139 20 1.10382V18.8962Z" fill="#83D2FF"/>
</svg>
