<svg width="58" height="58" viewBox="0 0 58 58" fill="none" xmlns="http://www.w3.org/2000/svg">
<path d="M2.17617 18.5841L6.23617 21.6482C6.40689 21.7768 6.61264 21.8574 6.82973 21.8805C7.04682 21.9036 7.26643 21.8685 7.46327 21.7791C7.66012 21.6896 7.82619 21.5496 7.94238 21.3751C8.05856 21.2005 8.12014 20.9986 8.12001 20.7925V17.5094H13.05C13.0349 17.5291 13.0175 17.5477 13.0024 17.5685C10.5865 20.7325 9.28451 24.5322 9.28014 28.4316C9.27577 32.331 10.5692 36.1333 12.9781 39.3021C15.1105 42.1031 18.0239 44.2918 21.395 45.6252C21.4268 45.6376 21.4581 45.6486 21.489 45.658C23.8715 46.5835 26.4234 47.0587 29 47.0566C30.1668 47.0553 31.3312 46.9579 32.48 46.7655V53.6226C32.48 54.7836 32.9689 55.897 33.839 56.7179C34.7092 57.5388 35.8894 58 37.12 58H53.36C54.5906 58 55.7708 57.5388 56.641 56.7179C57.5111 55.897 58 54.7836 58 53.6226V43.6893C58.0018 42.8684 57.807 42.0577 57.4302 41.3177C57.0534 40.5778 56.5043 39.9277 55.8238 39.4159L51.7638 36.3518C51.5931 36.2232 51.3874 36.1427 51.1703 36.1195C50.9532 36.0964 50.7336 36.1315 50.5367 36.2209C50.3399 36.3104 50.1738 36.4504 50.0576 36.6249C49.9414 36.7995 49.8799 37.0014 49.88 37.2075V40.4906H44.0069C44.3294 40.1327 44.6554 39.7781 44.9477 39.3962L44.9616 39.3798L44.9744 39.3667C47.1067 36.5897 48.384 33.3107 48.6652 29.8919C48.9463 26.4731 48.2204 23.0475 46.5676 19.9935C44.9148 16.9394 42.3995 14.3757 39.2993 12.5855C36.1991 10.7953 32.6348 9.84832 29 9.84906C27.8332 9.85034 26.6688 9.94774 25.52 10.1402V4.37736C25.52 3.21641 25.0311 2.10301 24.161 1.2821C23.2908 0.461184 22.1106 0 20.88 0H4.64001C3.40941 0 2.2292 0.461184 1.35904 1.2821C0.488868 2.10301 1.21367e-05 3.21641 1.21367e-05 4.37736V14.3107C-0.00177128 15.1316 0.193014 15.9423 0.569828 16.6823C0.946643 17.4222 1.49575 18.0723 2.17617 18.5841ZM51.04 42.6792C51.3476 42.6792 51.6427 42.5639 51.8602 42.3587C52.0778 42.1535 52.2 41.8751 52.2 41.5849V39.4838L54.3738 41.1253C54.7822 41.4323 55.1118 41.8223 55.338 42.2663C55.5641 42.7103 55.6811 43.1967 55.68 43.6893V53.6226C55.68 54.2031 55.4356 54.7598 55.0005 55.1703C54.5654 55.5807 53.9753 55.8113 53.36 55.8113H37.12C36.5047 55.8113 35.9146 55.5807 35.4795 55.1703C35.0444 54.7598 34.8 54.2031 34.8 53.6226V44.8679C34.8 44.2874 35.0444 43.7308 35.4795 43.3203C35.9146 42.9098 36.5047 42.6792 37.12 42.6792H51.04ZM38.6094 40.4906C38.7989 39.8478 38.9714 39.2044 39.1268 38.5602C40.1004 38.7717 41.0748 39.0172 42.05 39.2966C41.6584 39.7139 41.2449 40.1123 40.8111 40.4906H38.6094ZM43.5487 37.4428C42.2286 37.0408 40.9105 36.6987 39.5943 36.4163C40.0307 34.1483 40.2793 31.8516 40.3378 29.5472H46.3548C46.1607 32.364 45.1938 35.0849 43.5487 37.4428ZM43.5696 19.4957C45.2035 21.8451 46.1632 24.5543 46.3548 27.3585H40.3378C40.2792 25.0624 40.031 22.7742 39.5954 20.5145C40.9352 20.2278 42.2634 19.8885 43.5696 19.4935V19.4957ZM42.0802 17.6353C41.1065 17.9111 40.1244 18.1555 39.1338 18.3685C38.8128 17.0334 38.42 15.7049 37.9552 14.3829C39.501 15.2582 40.8927 16.3555 42.0802 17.6353ZM30.16 12.0804C31.8083 12.1848 33.4322 12.5117 34.9821 13.0511C35.7586 14.9245 36.3867 16.8496 36.8613 18.8106C34.6475 19.1805 32.4075 19.3934 30.16 19.4475V12.0804ZM30.16 21.6395C32.5626 21.5838 34.9572 21.3556 37.323 20.9566C37.7288 23.0706 37.9615 25.2108 38.019 27.3585H30.16V21.6395ZM30.16 29.5472H38.0178C37.9605 31.7014 37.7278 33.8482 37.3218 35.9688C34.9569 35.5638 32.5627 35.33 30.16 35.2695V29.5472ZM30.16 37.4581C32.4061 37.519 34.6442 37.7385 36.8555 38.1148C36.6537 38.9435 36.4252 39.7676 36.17 40.5869C35.192 40.7837 34.3077 41.2737 33.6493 41.9838C32.9909 42.6939 32.5938 43.5859 32.5171 44.5265C31.7396 44.6762 30.952 44.775 30.16 44.822V37.4581ZM14.4292 19.4946C15.6813 19.8732 16.9298 20.1975 18.1749 20.4674C17.7368 22.7438 17.4875 25.0489 17.429 27.3618H11.6452C11.8369 24.5564 12.7961 21.8459 14.4292 19.4946ZM15.9164 17.6342L16.0382 17.5094H18.8396C18.7665 17.7819 18.7015 18.0566 18.6354 18.3225C17.7345 18.1234 16.8281 17.895 15.9164 17.6375V17.6342ZM14.4084 37.3761C12.7885 35.0343 11.8367 32.3377 11.6452 29.5472H17.429C17.4885 31.8509 17.7379 34.1469 18.1749 36.4142C16.9267 36.6834 15.672 37.0051 14.4107 37.3794L14.4084 37.3761ZM15.8955 39.2365C16.8142 38.9796 17.7275 38.7524 18.6354 38.5547C18.9447 39.8351 19.3152 41.099 19.7467 42.3466C18.311 41.4932 17.0144 40.4474 15.8978 39.2419L15.8955 39.2365ZM27.8435 44.8176C26.0955 44.7035 24.3752 44.3443 22.7395 43.7517C21.9861 41.9146 21.3744 40.0285 20.909 38.1082C23.1971 37.7153 25.5148 37.495 27.84 37.4494L27.8435 44.8176ZM27.8435 35.2607C25.3634 35.3157 22.8914 35.5509 20.4496 35.9644C20.044 33.8434 19.8113 31.6962 19.7536 29.5417H27.84L27.8435 35.2607ZM27.84 27.3585H19.749C19.8064 25.1981 20.0391 23.0451 20.445 20.9183C22.8861 21.3413 25.3588 21.5825 27.84 21.6395V27.3585ZM25.52 13.1321V12.3737C26.2856 12.2287 27.0607 12.1326 27.84 12.0859V19.4475C25.5135 19.3922 23.1951 19.1668 20.9055 18.7734C21.0115 18.3408 21.1275 17.9078 21.2535 17.4744C22.4127 17.3881 23.495 16.8936 24.2855 16.0891C25.0759 15.2846 25.5166 14.229 25.52 13.1321ZM2.32001 4.37736C2.32001 3.79688 2.56444 3.24019 2.99952 2.82973C3.43461 2.41927 4.02471 2.18868 4.64001 2.18868H20.88C21.4953 2.18868 22.0854 2.41927 22.5205 2.82973C22.9556 3.24019 23.2 3.79688 23.2 4.37736V13.1321C23.2 13.7125 22.9556 14.2692 22.5205 14.6797C22.0854 15.0902 21.4953 15.3208 20.88 15.3208H6.96001C6.65236 15.3208 6.35731 15.436 6.13977 15.6413C5.92222 15.8465 5.80001 16.1249 5.80001 16.4151V18.5162L3.62617 16.8747C3.2178 16.5678 2.88822 16.1777 2.66204 15.7337C2.43587 15.2897 2.31895 14.8033 2.32001 14.3107V4.37736Z" fill="#1F3862"/>
<path d="M12.7595 9.84918C13.7205 9.84918 14.4995 9.11425 14.4995 8.20767C14.4995 7.30109 13.7205 6.56616 12.7595 6.56616C11.7986 6.56616 11.0195 7.30109 11.0195 8.20767C11.0195 9.11425 11.7986 9.84918 12.7595 9.84918Z" fill="#1F3862"/>
<path d="M19.1404 9.84918C20.1014 9.84918 20.8804 9.11425 20.8804 8.20767C20.8804 7.30109 20.1014 6.56616 19.1404 6.56616C18.1794 6.56616 17.4004 7.30109 17.4004 8.20767C17.4004 9.11425 18.1794 9.84918 19.1404 9.84918Z" fill="#1F3862"/>
<path d="M6.38062 9.84918C7.3416 9.84918 8.12062 9.11425 8.12062 8.20767C8.12062 7.30109 7.3416 6.56616 6.38062 6.56616C5.41965 6.56616 4.64062 7.30109 4.64062 8.20767C4.64062 9.11425 5.41965 9.84918 6.38062 9.84918Z" fill="#1F3862"/>
<path d="M45.24 51.4344C46.201 51.4344 46.98 50.6995 46.98 49.7929C46.98 48.8863 46.201 48.1514 45.24 48.1514C44.279 48.1514 43.5 48.8863 43.5 49.7929C43.5 50.6995 44.279 51.4344 45.24 51.4344Z" fill="#1F3862"/>
<path d="M51.6209 51.4344C52.5818 51.4344 53.3609 50.6995 53.3609 49.7929C53.3609 48.8863 52.5818 48.1514 51.6209 48.1514C50.6599 48.1514 49.8809 48.8863 49.8809 49.7929C49.8809 50.6995 50.6599 51.4344 51.6209 51.4344Z" fill="#1F3862"/>
<path d="M38.8611 51.4344C39.8221 51.4344 40.6011 50.6995 40.6011 49.7929C40.6011 48.8863 39.8221 48.1514 38.8611 48.1514C37.9001 48.1514 37.1211 48.8863 37.1211 49.7929C37.1211 50.6995 37.9001 51.4344 38.8611 51.4344Z" fill="#1F3862"/>
</svg>
