<svg width="25" height="24" viewBox="0 0 25 24" fill="none" xmlns="http://www.w3.org/2000/svg">
<path d="M12.497 3C10.6469 3.00152 8.87258 3.72202 7.56157 5.00413C6.25057 6.28624 5.50941 8.02578 5.5 9.8428C5.5 12.5671 7.05622 14.848 8.19665 16.5106L8.40454 16.8139C9.5392 18.429 10.7564 19.9867 12.0515 21.4808L12.503 22L12.9544 21.4808C14.2493 19.9865 15.4666 18.4289 16.6014 16.8139L16.8093 16.5048C17.9438 14.8422 19.5 12.5671 19.5 9.8428C19.4906 8.02477 18.7486 6.28435 17.4363 5.00207C16.124 3.71979 14.3482 2.99998 12.497 3ZM12.497 12.9171C11.7264 12.9171 10.973 12.6927 10.3323 12.2722C9.69149 11.8517 9.19207 11.254 8.89715 10.5547C8.60224 9.85547 8.52507 9.08602 8.67542 8.34369C8.82577 7.60136 9.19687 6.91948 9.7418 6.38429C10.2867 5.84909 10.981 5.48462 11.7369 5.33696C12.4927 5.18931 13.2762 5.26509 13.9881 5.55473C14.7001 5.84438 15.3087 6.33487 15.7368 6.96419C16.165 7.59351 16.3935 8.33339 16.3935 9.09027C16.3935 10.1052 15.983 11.0786 15.2523 11.7962C14.5215 12.5139 13.5304 12.9171 12.497 12.9171Z" fill="#83D2FF"/>
<path d="M12.5 11C13.6046 11 14.5 10.1046 14.5 9C14.5 7.89543 13.6046 7 12.5 7C11.3954 7 10.5 7.89543 10.5 9C10.5 10.1046 11.3954 11 12.5 11Z" fill="#83D2FF"/>
</svg>
