<svg width="25" height="24" viewBox="0 0 25 24" fill="none" xmlns="http://www.w3.org/2000/svg">
<mask id="mask0" mask-type="alpha" maskUnits="userSpaceOnUse" x="0" y="0" width="25" height="24">
<rect x="0.5" width="24" height="24" fill="#C4C4C4"/>
</mask>
<g mask="url(#mask0)">
<path d="M10.823 13.1268C11.7131 14.4194 12.8753 15.5014 14.2282 16.2969L16.4634 15.0846C16.5286 15.0549 16.6012 15.0457 16.6717 15.0581C16.7423 15.0706 16.8074 15.1042 16.8584 15.1545L20.0814 18.1423C20.2048 18.2498 20.3015 18.3845 20.3639 18.5358C20.4263 18.6871 20.4527 18.8508 20.441 19.014C20.4292 19.1772 20.3797 19.3355 20.2963 19.4763C20.2129 19.6171 20.0979 19.7366 19.9603 19.8253L17.9577 21.2074C17.6709 21.4054 17.3395 21.5293 16.9931 21.5681C16.6468 21.6068 16.2962 21.5592 15.9727 21.4295C12.7443 20.1443 9.94263 17.9768 7.88782 15.1746C5.89207 12.3586 4.75635 9.02404 4.61842 5.57532C4.60528 5.23192 4.68107 4.89094 4.83844 4.58543C4.99581 4.27993 5.22943 4.02025 5.51666 3.83158L7.58537 2.43974C7.7146 2.34673 7.8632 2.28416 8.02005 2.25671C8.17689 2.22927 8.3379 2.23767 8.49104 2.28127C8.64418 2.32488 8.78547 2.40256 8.90433 2.50851C9.02319 2.61445 9.11654 2.74592 9.17739 2.89305L10.9635 6.91285C10.9953 6.97663 11.0058 7.04895 10.9934 7.11912C10.9809 7.1893 10.9463 7.25363 10.8945 7.30262L8.95962 8.9379C9.26217 10.4552 9.8987 11.8861 10.823 13.1268Z" fill="#83D2FF"/>
</g>
</svg>
