<svg width="58" height="60" viewBox="0 0 58 60" fill="none" xmlns="http://www.w3.org/2000/svg">
<path d="M44.4272 29.2555C44.8071 27.8111 45 26.3224 45 24.8312V24.3428C49.6536 23.3563 53 19.1176 53 14.1212V4.67099C53 4.36679 52.9873 3.94736 52.9292 3.68662C52.752 2.84091 52.0923 0.806734 49.7852 0.184176C47.5894 -0.394438 45.5244 0.42441 45.084 2.05234C44.7378 3.34384 45.5283 4.72666 47 5.52939V14.1212C47 16.4645 45.2056 18.3712 43 18.3712C40.7944 18.3712 39 16.4645 39 14.1212V5.52939C40.4717 4.72666 41.2622 3.34336 40.9155 2.04941C40.4756 0.425387 38.4092 -0.393461 36.209 0.185641C33.9077 0.806734 33.248 2.84091 33.0737 3.67392C33.0127 3.94736 33 4.36679 33 4.67099V14.1212C33 18.7684 35.8685 22.7622 40 24.076V24.8312C40 31.4698 34.6304 36.8712 28.0303 36.8712H25.9697C25.0474 36.8712 24.1265 36.7628 23.2285 36.5475C17.8643 35.2892 14.0737 30.5362 14.0098 24.9894C14.0093 24.9395 14.0078 24.8805 14 24.8312V20.2257C18.0738 19.2765 21 15.56 21 11.2511C21 6.17783 16.9624 2.05087 12 2.05087C7.0376 2.05087 3 6.17783 3 11.2511C3 15.1915 5.44214 18.6588 9 19.9281V25.0113C9.0835 33.1773 14.8931 40.1935 22.8057 41.692C23.8423 41.8971 24.9067 42.0011 25.9697 42.0011H28.0303C33.4746 42.0011 38.6279 39.3243 41.8164 34.8385C43.0317 33.1192 43.9102 31.2398 44.4272 29.2555ZM35 14.1212V4.67099C35 4.379 35.0156 4.16318 35.0288 4.0958C35.1543 3.49423 35.543 2.43711 36.7246 2.11777C37.0371 2.03574 37.3325 2.00058 37.6011 2.00058C38.3638 2.00058 38.9067 2.2833 38.9844 2.56992C39.085 2.94492 38.5586 3.60703 37.6426 3.95712C37.2559 4.10507 37 4.47666 37 4.89121V14.1212C37 17.5675 39.6914 20.3712 43 20.3712C46.3086 20.3712 49 17.5675 49 14.1212V4.89121C49 4.47666 48.7441 4.10507 48.3574 3.95712C47.4414 3.60703 46.915 2.94492 47.0151 2.57285C47.1206 2.18271 48.0771 1.80136 49.2695 2.1163C50.457 2.43711 50.8457 3.49423 50.9731 4.10361C50.9844 4.16318 51 4.379 51 4.67099V14.1212C51 18.2628 48.1934 21.7643 44.2803 22.4547C44.1665 22.4747 44.0576 22.4962 43.8794 22.5084C43.1318 22.5997 42.3716 22.5743 41.6646 22.4449C41.5521 22.425 41.4408 22.4046 41.3338 22.3741C41.2989 22.365 41.2704 22.3597 41.2305 22.3478C37.6201 21.4928 35 18.0328 35 14.1212ZM5 11.2511C5 7.28086 8.14014 4.05087 12 4.05087C15.8599 4.05087 19 7.28086 19 11.2511C19 14.7174 16.6025 17.6983 13.3047 18.3385C13.1851 18.3609 13.0664 18.3853 12.8506 18.4024C12.2256 18.4967 11.4487 18.4786 10.6826 18.336C10.5493 18.3126 10.417 18.2716 10.2544 18.2237C7.16064 17.4103 5 14.5426 5 11.2511ZM28.0303 40.0011H25.9697C25.0366 40.0011 24.103 39.9098 23.186 39.7286C16.1987 38.4054 11.0737 32.2071 11 25.0011V20.4049C11.0241 20.4076 11.0481 20.4064 11.0722 20.4089C11.382 20.4411 11.692 20.461 12 20.461V24.8312C12 24.9171 12.002 24.9923 12.0107 25.0724C12.1113 31.5162 16.5288 37.0304 22.7671 38.4937C23.813 38.7442 24.8906 38.8712 25.9697 38.8712H28.0303C35.7334 38.8712 42 32.5728 42 24.8312V24.5113C42.0215 24.5135 42.0449 24.5125 42.0665 24.5146C42.3707 24.5436 42.6814 24.5611 43 24.5611V24.8312C43 26.151 42.8296 27.4684 42.4922 28.7491C42.0356 30.502 41.2588 32.1622 40.1851 33.6817C37.3721 37.6388 32.8286 40.0011 28.0303 40.0011Z" fill="#1F3862"/>
<path d="M16 25.0011C16 25.5533 16.4478 26.0011 17 26.0011H22V34.0006C22 34.5529 22.4478 35.0006 23 35.0006C23.5522 35.0006 24 34.5529 24 34.0006V25.0011C24 24.4489 23.5522 24.0011 23 24.0011H17C16.4478 24.0011 16 24.4489 16 25.0011Z" fill="#1F3862"/>
<path d="M23 43.0006C22.4478 43.0006 22 43.4484 22 44.0006V54.0011H18V51.9594C18.6363 51.0967 19 50.0677 19 49.0011C19 46.2443 16.7568 44.0011 14 44.0011C11.2432 44.0011 9 46.2443 9 49.0011C9 50.0669 9.36322 51.0953 10 51.9593V54.0011H2V26.0011H7C7.55225 26.0011 8 25.5533 8 25.0011C8 24.4489 7.55225 24.0011 7 24.0011H1C0.447754 24.0011 0 24.4489 0 25.0011V55.0011C0 55.5533 0.447754 56.0011 1 56.0011H10V59.0011C10 59.3698 10.2031 59.7086 10.5283 59.8829C10.8521 60.0558 11.2466 60.0382 11.5547 59.8331L14 58.2028L16.4453 59.8331C16.6128 59.9449 16.8062 60.0011 17 60.0011C17.1616 60.0011 17.3242 59.962 17.4717 59.8829C17.7969 59.7086 18 59.3698 18 59.0011V56.0011H23C23.5522 56.0011 24 55.5533 24 55.0011V44.0006C24 43.4484 23.5522 43.0006 23 43.0006ZM14 46.0011C15.6543 46.0011 17 47.3468 17 49.0011C17 49.7233 16.7324 50.4274 16.249 50.9811C15.6787 51.629 14.8589 52.0011 14 52.0011C13.7853 52.0011 13.573 51.9779 13.3665 51.9329C12.7471 51.7979 12.1792 51.4672 11.7515 50.9816C11.2672 50.4257 11 49.7225 11 49.0011C11 47.3468 12.3457 46.0011 14 46.0011ZM16 57.1324L14.5547 56.1691C14.3867 56.0573 14.1934 56.0011 14 56.0011C13.8066 56.0011 13.6133 56.0573 13.4453 56.1691L12 57.1324V55.0011V53.5817C12.0128 53.5873 12.0272 53.5888 12.0401 53.5943C12.6537 53.8571 13.3185 54.0011 14 54.0011C14.6805 54.0011 15.3443 53.8574 15.9574 53.5951C15.9711 53.5892 15.9864 53.5876 16 53.5817V55.0011V57.1324Z" fill="#1F3862"/>
<path d="M57 28.0011H47C46.4478 28.0011 46 28.4489 46 29.0011C46 29.5533 46.4478 30.0011 47 30.0011H56V34.001L45 34.0006C44.4478 34.0006 44 34.4484 44 35.0006C44 35.5529 44.4478 36.0006 45 36.0006L56 36.001V50.0011H42V39.0006C42 38.4484 41.5522 38.0006 41 38.0006C40.4478 38.0006 40 38.4484 40 39.0006V51.0011C40 51.5533 40.4478 52.0011 41 52.0011H57C57.5522 52.0011 58 51.5533 58 51.0011V29.0011C58 28.4489 57.5522 28.0011 57 28.0011Z" fill="#1F3862"/>
<path d="M46 41.0011H52C52.5522 41.0011 53 40.5533 53 40.0011C53 39.4489 52.5522 39.0011 52 39.0011H46C45.4478 39.0011 45 39.4489 45 40.0011C45 40.5533 45.4478 41.0011 46 41.0011Z" fill="#1F3862"/>
<path d="M46 47.0011H52C52.5522 47.0011 53 46.5533 53 46.0011C53 45.4489 52.5522 45.0011 52 45.0011H46C45.4478 45.0011 45 45.4489 45 46.0011C45 46.5533 45.4478 47.0011 46 47.0011Z" fill="#1F3862"/>
<path d="M15 11.2511C15 9.56946 13.6543 8.20129 12 8.20129C10.3457 8.20129 9 9.56946 9 11.2511C9 12.9386 10.3457 14.3112 12 14.3112C13.6543 14.3112 15 12.9386 15 11.2511ZM11 11.2511C11 10.6823 11.458 10.2013 12 10.2013C12.542 10.2013 13 10.6823 13 11.2511C13 11.8258 12.542 12.3112 12 12.3112C11.458 12.3112 11 11.8258 11 11.2511Z" fill="#1F3862"/>
</svg>
